<svg width="91" height="189" viewBox="0 0 91 189" fill="none" xmlns="http://www.w3.org/2000/svg">
<g clip-path="url(#clip0_473_1526)">
<path d="M89.9914 40.9652C87.7921 17.6106 68.4978 0 45.1087 0C20.234 0 0 20.2998 0 45.2512H1.35915C1.35915 21.0524 20.9855 1.36888 45.1087 1.36888C67.7893 1.36888 86.5055 18.4455 88.6377 41.1311C88.7802 42.0657 88.8461 42.9018 88.8461 43.6868V45.2512C88.8461 45.9107 88.8098 46.5715 88.7304 47.2445C88.721 47.316 88.721 47.405 88.721 47.4333C87.6644 59.8166 80.6952 74.6638 74.6765 83.217L44.2751 126.418C40.3765 131.962 36.5464 144.067 36.5464 150.857V151.958H86.1842V150.59H37.9083C38.0077 143.972 41.6631 132.501 45.3923 127.21L75.7937 84.0059C81.9159 75.3085 89.002 60.1861 90.0842 47.3915C90.1676 46.6807 90.2092 45.9606 90.2092 45.2512V43.6868C90.2092 42.8331 90.138 41.9335 89.9928 40.9665L89.9914 40.9652Z" fill="#E6922F"/>
<path d="M1.35915 160.95V150.856C1.35915 136.808 7.45985 117.553 15.5381 106.068L45.9395 62.8563C50.4874 56.3962 53.3133 47.8175 53.6198 44.7156C53.3402 40.2017 49.6042 36.6655 45.1087 36.6655C40.3859 36.6655 36.5451 40.5173 36.5451 45.251H37.9069C37.9069 41.2712 41.1374 38.0344 45.1087 38.0344C49.0799 38.0344 52.0267 41.0068 52.2647 44.6913C51.9824 47.4709 49.1794 55.8932 44.8223 62.066L14.4183 105.283C6.20288 116.967 0 136.561 0 150.856V160.95C0 176.206 12.3748 188.618 27.5809 188.618H86.1829V187.25H27.5809C13.1223 187.25 1.35915 175.449 1.35915 160.95Z" fill="#E6922F"/>
</g>
<defs>
<clipPath id="clip0_473_1526">
<rect width="90.2092" height="188.619" fill="white"/>
</clipPath>
</defs>
</svg>
