<svg width="89" height="189" viewBox="0 0 89 189" fill="none" xmlns="http://www.w3.org/2000/svg">
<g clip-path="url(#clip0_473_1533)">
<path d="M44.2879 72.2654H26.7311V73.6049H44.2879C48.9199 73.6049 52.6862 69.8258 52.6862 65.1753V44.3508C52.6862 39.7148 48.9133 35.9424 44.2786 35.9424C39.644 35.9424 35.8737 39.7188 35.8737 44.3666H37.2105C37.2105 40.4619 40.3803 37.2805 44.2786 37.2805C48.1769 37.2805 51.3467 40.454 51.3467 44.3508V65.1753C51.3467 69.0866 48.1795 72.2641 44.2879 72.2641V72.2654Z" fill="#E6922F"/>
<path d="M88.5519 116.244C88.544 116.153 88.5347 116.059 88.5347 115.938L88.5268 115.744C88.5163 115.399 88.5083 115.057 88.4767 114.759C88.123 106.14 85.2923 97.9013 80.2789 90.8945C85.2752 83.8996 88.1059 75.6605 88.4595 67.0802C88.5268 66.4522 88.5585 65.8161 88.5585 65.1748V44.3503C88.5585 43.7103 88.5268 43.0782 88.4635 42.4792C87.5054 19.666 68.9153 1.04825 46.1736 0.0882801C44.9147 -0.0320474 43.5884 -0.0294028 42.4139 0.0882801C18.6323 1.09189 0 20.54 0 44.3675H1.3355C1.3355 21.2606 19.4043 2.39962 42.5023 1.42378C43.6676 1.31668 44.8368 1.31403 46.0852 1.42643C68.1684 2.35996 86.2003 20.4144 87.1359 42.5797C87.1913 43.1655 87.2243 43.7592 87.2243 44.3516V65.1762C87.2243 65.7725 87.19 66.3609 87.1306 66.9864C86.773 75.5071 83.9331 83.6325 78.9157 90.5057L78.6214 90.8958L78.9157 91.2938C83.9476 98.167 86.7875 106.298 87.1425 114.852C87.1702 115.164 87.1781 115.478 87.1953 115.796L87.2019 115.969C87.2019 116.093 87.2098 116.217 87.219 116.343C87.227 116.436 87.2322 116.527 87.2322 116.631L87.2243 144.25C87.2243 144.851 87.19 145.439 87.1306 146.064C86.1989 168.202 68.179 186.261 46.0575 187.184C44.8896 187.305 43.719 187.303 42.4746 187.187C19.4096 186.222 1.3355 167.362 1.3355 144.258H0C0 168.08 18.6363 187.529 42.3875 188.525C43.0144 188.587 43.6504 188.622 44.2878 188.622C44.9252 188.622 45.5679 188.587 46.1499 188.522C68.9193 187.57 87.5041 168.95 88.4595 146.163C88.5268 145.535 88.5585 144.899 88.5585 144.251L88.5691 116.622C88.5691 116.496 88.5585 116.368 88.5519 116.245V116.244Z" fill="#E6922F"/>
<path d="M26.7311 109.551H44.2878C48.1874 109.551 51.3639 112.722 51.3639 116.62L51.3467 144.245C51.3467 148.151 48.1795 151.334 44.2878 151.334C40.3962 151.334 37.2118 148.159 37.2118 144.255H35.875C35.875 148.899 39.6519 152.674 44.2892 152.674C48.9265 152.674 52.6875 148.894 52.6875 144.234L52.702 116.621C52.702 111.984 48.9265 108.211 44.2878 108.211H26.7311V109.552V109.551Z" fill="#E6922F"/>
</g>
<defs>
<clipPath id="clip0_473_1533">
<rect width="88.5691" height="188.619" fill="white"/>
</clipPath>
</defs>
</svg>
