<svg width="34" height="34" viewBox="0 0 34 34" fill="none" xmlns="http://www.w3.org/2000/svg">
<path d="M14.1667 17.0002H19.125V18.8418C19.125 19.1724 19.2667 19.3967 19.55 19.5147C19.8333 19.6328 20.0931 19.5738 20.3292 19.3377L23.0917 16.5752C23.375 16.2918 23.5167 15.9613 23.5167 15.5835C23.5167 15.2057 23.375 14.8752 23.0917 14.5918L20.3292 11.8293C20.0931 11.5932 19.8333 11.5342 19.55 11.6522C19.2667 11.7703 19.125 11.9946 19.125 12.3252V14.1668H12.75C12.3486 14.1668 12.0124 14.3028 11.7413 14.5748C11.4703 14.8468 11.3343 15.1831 11.3333 15.5835V19.8335C11.3333 20.2349 11.4693 20.5716 11.7413 20.8436C12.0133 21.1156 12.3496 21.2511 12.75 21.2502C13.1504 21.2492 13.4871 21.1132 13.7601 20.8422C14.033 20.5711 14.1686 20.2349 14.1667 19.8335V17.0002ZM17 31.1668C16.6458 31.1668 16.2978 31.096 15.9559 30.9543C15.614 30.8127 15.3009 30.6002 15.0167 30.3168L3.68334 18.9835C3.4 18.7002 3.1875 18.3871 3.04584 18.0442C2.90417 17.7014 2.83334 17.3534 2.83334 17.0002C2.83334 16.6469 2.90417 16.2989 3.04584 15.9561C3.1875 15.6132 3.4 15.3002 3.68334 15.0168L15.0167 3.6835C15.3 3.40016 15.6131 3.18766 15.9559 3.046C16.2988 2.90433 16.6468 2.8335 17 2.8335C17.3532 2.8335 17.7017 2.90433 18.0455 3.046C18.3893 3.18766 18.7019 3.40016 18.9833 3.6835L30.3167 15.0168C30.6 15.3002 30.8125 15.6132 30.9542 15.9561C31.0958 16.2989 31.1667 16.6469 31.1667 17.0002C31.1667 17.3534 31.0958 17.7019 30.9542 18.0457C30.8125 18.3894 30.6 18.7021 30.3167 18.9835L18.9833 30.3168C18.7 30.6002 18.3869 30.8127 18.0441 30.9543C17.7013 31.096 17.3532 31.1668 17 31.1668ZM11.3333 22.6668L17 28.3335L28.3333 17.0002L17 5.66683L5.66667 17.0002L11.3333 22.6668Z" fill="white"/>
</svg>
