<svg width="68" height="68" viewBox="0 0 68 68" fill="none" xmlns="http://www.w3.org/2000/svg">
<path d="M2.5 21.2197C2.84233 14.3072 3.86604 9.99512 6.93387 6.93387C9.99512 3.86604 14.3072 2.84233 21.2197 2.5M65.0417 21.2197C64.6993 14.3072 63.6756 9.99512 60.6078 6.93387C57.5465 3.86604 53.2345 2.84233 46.322 2.5M46.322 65.0417C53.2345 64.6993 57.5465 63.6756 60.6078 60.6078C63.6756 57.5465 64.6993 53.2345 65.0417 46.322M21.2197 65.0417C14.3072 64.6993 9.99512 63.6756 6.93387 60.6078C3.86604 57.5465 2.84233 53.2345 2.5 46.322" stroke="#E6922F" stroke-width="5" stroke-linecap="round" stroke-linejoin="round"/>
<path d="M58.9027 31.5259C59.7026 32.5266 60.1042 33.0302 60.1042 33.7708C60.1042 34.5115 59.7026 35.0151 58.9027 36.0157C55.3049 40.5187 46.1179 50.2292 33.7708 50.2292C21.4238 50.2292 12.2367 40.5187 8.63896 36.0157C7.83908 35.0151 7.4375 34.5115 7.4375 33.7708C7.4375 33.0302 7.83908 32.5266 8.63896 31.5259C12.2367 27.0229 21.4238 17.3125 33.7708 17.3125C46.1179 17.3125 55.3049 27.0229 58.9027 31.5259Z" stroke="#E6922F" stroke-width="5"/>
<path d="M40.3542 33.7708C40.3542 32.0248 39.6606 30.3503 38.426 29.1157C37.1913 27.8811 35.5168 27.1875 33.7708 27.1875C32.0248 27.1875 30.3503 27.8811 29.1157 29.1157C27.8811 30.3503 27.1875 32.0248 27.1875 33.7708C27.1875 35.5168 27.8811 37.1913 29.1157 38.426C30.3503 39.6606 32.0248 40.3542 33.7708 40.3542C35.5168 40.3542 37.1913 39.6606 38.426 38.426C39.6606 37.1913 40.3542 35.5168 40.3542 33.7708Z" stroke="#E6922F" stroke-width="5"/>
</svg>
