<svg width="74" height="74" viewBox="0 0 74 74" fill="none" xmlns="http://www.w3.org/2000/svg">
<path d="M62.1971 20.8125H56.459L42.3805 34.8848C42.8654 36.1206 42.91 37.4856 42.5068 38.7504C42.1035 40.0152 41.2771 41.1026 40.1665 41.8297C39.0558 42.5568 37.7287 42.8793 36.4082 42.743C35.0877 42.6067 33.8545 42.0199 32.9158 41.0812C31.9771 40.1425 31.3903 38.9092 31.2539 37.5888C31.1176 36.2683 31.4401 34.9411 32.1673 33.8305C32.8944 32.7198 33.9818 31.8934 35.2465 31.4902C36.5113 31.087 37.8764 31.1316 39.1121 31.6165L53.1876 17.5411V11.803C53.1878 11.0352 53.4928 10.2988 54.0355 9.75566L59.3696 4.42149C59.4684 4.32214 59.5923 4.25156 59.7281 4.21734C59.8639 4.18311 60.0065 4.18654 60.1405 4.22724C60.4149 4.30741 60.6184 4.53558 60.6739 4.81616L62.0922 11.9109L69.1839 13.3292C69.4614 13.3847 69.6896 13.5882 69.7697 13.8627C69.8102 13.996 69.8138 14.1377 69.7802 14.2729C69.7465 14.4081 69.6768 14.5317 69.5786 14.6304L64.2413 19.9646C63.6989 20.5065 62.9638 20.8114 62.1971 20.8125Z" fill="#E6922F"/>
<path d="M8.09375 37C8.09375 44.6664 11.1392 52.0189 16.5602 57.4398C21.9812 62.8608 29.3336 65.9063 37 65.9063C40.796 65.9063 44.5549 65.1586 48.0619 63.7059C51.569 62.2532 54.7556 60.124 57.4398 57.4398C60.124 54.7556 62.2532 51.569 63.7059 48.062C65.1586 44.5549 65.9062 40.796 65.9062 37C65.9062 34.2312 65.5177 31.5549 64.7932 29.0234C64.6491 28.4422 64.7362 27.8278 65.036 27.3094C65.3358 26.791 65.825 26.4092 66.4007 26.2442C66.9763 26.0792 67.5935 26.144 68.1224 26.4248C68.6512 26.7057 69.0505 27.1807 69.2363 27.75C70.0811 30.6915 70.5312 33.7934 70.5312 37C70.5312 55.5185 55.5185 70.5313 37 70.5313C18.4815 70.5313 3.46875 55.5185 3.46875 37C3.46875 18.4815 18.4815 3.46877 37 3.46877C40.1296 3.46568 43.2407 3.90043 46.25 4.76068C46.5434 4.84299 46.8177 4.98248 47.057 5.17114C47.2963 5.35979 47.496 5.59389 47.6446 5.85997C47.7931 6.12606 47.8876 6.41888 47.9226 6.72161C47.9576 7.02433 47.9324 7.33099 47.8485 7.62396C47.7646 7.91692 47.6236 8.19041 47.4337 8.42871C47.2437 8.667 47.0085 8.8654 46.7417 9.0125C46.4748 9.1596 46.1814 9.2525 45.8785 9.28585C45.5756 9.3192 45.2691 9.29235 44.9766 9.20685C42.3825 8.46641 39.6977 8.09176 37 8.09377C29.3336 8.09377 21.9812 11.1392 16.5602 16.5602C11.1392 21.9812 8.09375 29.3336 8.09375 37Z" fill="#E6922F"/>
<path d="M21.9688 37C21.9775 39.0421 22.4022 41.0611 23.2171 42.9337C24.0321 44.8062 25.2201 46.493 26.7087 47.891C28.1973 49.2891 29.9552 50.3691 31.8751 51.0651C33.7951 51.7611 35.8367 52.0585 37.8754 51.9391C39.9141 51.8197 41.907 51.2861 43.7326 50.3708C45.5582 49.4554 47.178 48.1776 48.4933 46.6154C49.8085 45.0531 50.7916 43.2392 51.3824 41.2844C51.9732 39.3295 52.1594 37.2748 51.9296 35.2456C51.8649 34.8346 51.9125 34.4137 52.0674 34.0276C52.2224 33.6415 52.4789 33.3045 52.8098 33.0523C53.1407 32.8001 53.5336 32.6422 53.947 32.5951C54.3603 32.548 54.7787 32.6137 55.1578 32.7851C55.9318 33.1304 56.4528 33.8673 56.5207 34.7121C56.9994 38.7675 56.2029 42.8712 54.2417 46.453C52.2806 50.0347 49.2523 52.9165 45.5778 54.6978C41.9033 56.4791 37.7652 57.0714 33.7385 56.3924C29.7119 55.7134 25.9968 53.7967 23.1097 50.9089C20.2234 48.0242 18.3062 44.3128 17.6242 40.2895C16.9422 36.2662 17.529 32.1303 19.3034 28.4556C21.0777 24.7808 23.9516 21.7492 27.5265 19.7814C31.1014 17.8135 35.2 17.0068 39.254 17.4732C39.5605 17.5017 39.8582 17.591 40.1297 17.736C40.4012 17.8809 40.641 18.0787 40.8351 18.3175C41.0292 18.5564 41.1736 18.8316 41.26 19.1271C41.3463 19.4225 41.3729 19.7322 41.338 20.038C41.3031 20.3438 41.2075 20.6395 41.0568 20.9079C40.9061 21.1763 40.7034 21.4119 40.4605 21.6009C40.2176 21.7899 39.9394 21.9285 39.6422 22.0086C39.345 22.0887 39.0348 22.1087 38.7298 22.0674C36.624 21.8239 34.4905 22.0285 32.4693 22.6678C30.4482 23.3071 28.585 24.3666 27.0022 25.7767C25.4194 27.1869 24.1527 28.9158 23.2852 30.85C22.4178 32.7843 21.9692 34.8801 21.9688 37Z" fill="#E6922F"/>
</svg>
