<svg width="195" height="27" viewBox="0 0 195 27" fill="none" xmlns="http://www.w3.org/2000/svg">
<path d="M85 27V15.2099C85 12.41 82.6682 10.1427 79.7845 10.1427H69.9611L69.9483 0H68.2155C65.3361 0 63 2.2715 63 5.07134L63.0086 27H69.9611V16.8989H78.0475V27H85Z" fill="#0054A4"/>
<path d="M61 26.9958L60.9917 15.095C60.9917 12.2798 58.7282 10 55.9331 10H39.0586C36.2635 10 34 12.2798 34 15.095V26.9916H47.4896C50.2889 26.9916 52.5607 24.7119 52.5607 21.8967V20.19H40.7407H40.7531V16.7933H40.7407H54.2427V26.9916L60.9958 27L61 26.9958Z" fill="#0054A4"/>
<path d="M18.8326 26.9833L18.8834 16.7967H18.8749H21.7423H24.1233V27H25.8277C28.6782 27 30.9915 24.7191 30.9915 21.9025V20.195H30.9958V16.7967H30.9831H31L30.9873 15.0975C30.9873 12.2809 28.6824 10 25.8362 10H20.0252C18.8326 10 17.7457 10.4143 16.8745 11.0923C15.999 10.4185 14.9164 10 13.728 10L0 10.0167V27L6.87667 26.9916V16.7967H6.86398H12.0067V27L18.8284 26.9833H18.8326Z" fill="#0054A4"/>
<path d="M135 26.9958V15.095C135 12.2798 132.648 10 129.75 10H112.246C109.352 10 107 12.2798 107 15.095V26.9916H120.989C123.892 26.9916 126.248 24.7119 126.248 21.8967V20.19H113.99H113.999V16.7933H113.99H127.992V26.9916L134.996 27L135 26.9958Z" fill="#0054A4"/>
<path d="M195 26.9958V15.095C194.996 12.2798 192.732 10 189.936 10H173.055C170.264 10 168 12.2798 168 15.095V26.9916H181.492C184.291 26.9916 186.564 24.7119 186.564 21.8967V20.19H174.746H174.754V16.7933H174.746H188.246V26.9916L195 27V26.9958Z" fill="#0054A4"/>
<path d="M88 26.9959L94.7967 26.9628V16.8879H104.996V15.2219C104.996 12.4313 102.719 10.1741 99.9025 10.1741H98.195L94.8008 10.17V10.1824V6.7221H105V5.05604C105 2.26964 102.723 0.00827003 99.9067 0.00827003H98.1992L94.805 0.00413501V0.0165369V0L93.11 0.00827003C90.2935 0.00827003 88.0084 2.26137 88.0084 5.04364V27L88 26.9959Z" fill="#0054A4"/>
<path d="M138 27H160.7C163.584 27 165.927 24.7191 165.927 21.9025L165.897 20.2033H155.051L166 10H143.262C140.373 10 138.034 12.2809 138.034 15.0975V16.8301L149.369 16.805L138 26.9958V27Z" fill="#0054A4"/>
</svg>
