<svg width="39" height="56" viewBox="0 0 39 56" fill="none" xmlns="http://www.w3.org/2000/svg">
<path d="M19.5 26.6C17.653 26.6 15.8816 25.8625 14.5755 24.5497C13.2695 23.237 12.5357 21.4565 12.5357 19.6C12.5357 17.7435 13.2695 15.963 14.5755 14.6503C15.8816 13.3375 17.653 12.6 19.5 12.6C21.347 12.6 23.1184 13.3375 24.4245 14.6503C25.7306 15.963 26.4643 17.7435 26.4643 19.6C26.4643 20.5193 26.2842 21.4295 25.9342 22.2788C25.5842 23.1281 25.0712 23.8997 24.4245 24.5497C23.7778 25.1998 23.0101 25.7154 22.1651 26.0672C21.3202 26.4189 20.4146 26.6 19.5 26.6ZM19.5 0C14.3283 0 9.36838 2.06499 5.71142 5.74071C2.05446 9.41642 0 14.4018 0 19.6C0 34.3 19.5 56 19.5 56C19.5 56 39 34.3 39 19.6C39 14.4018 36.9455 9.41642 33.2886 5.74071C29.6316 2.06499 24.6717 0 19.5 0Z" fill="#306E57"/>
</svg>
