<svg width="60" height="56" viewBox="0 0 60 56" fill="none" xmlns="http://www.w3.org/2000/svg">
<path d="M41.3641 35.9259L39.8653 37.4181C39.8653 37.4181 36.2977 40.9626 26.5635 31.2844C16.8293 21.6062 20.3969 18.0617 20.3969 18.0617L21.339 17.1196C23.668 14.8071 23.8887 11.0913 21.8562 8.37694L17.7055 2.8329C15.1888 -0.527131 10.33 -0.97184 7.44759 1.89407L2.27578 7.03293C0.849416 8.456 -0.105887 10.2941 0.00940807 12.3365C0.305881 17.5643 2.67108 28.8072 15.8608 41.9245C29.8511 55.8324 42.9782 56.3858 48.3444 55.8851C50.0442 55.727 51.5199 54.8639 52.7091 53.678L57.3868 49.0267C60.5492 45.8874 59.6598 40.5014 55.6146 38.3042L49.3228 34.8816C46.6677 33.4421 43.4394 33.8637 41.3641 35.9259Z" fill="#306E57"/>
</svg>
