<svg width="106" height="107" viewBox="0 0 106 107" fill="none" xmlns="http://www.w3.org/2000/svg">
<path d="M104.066 82.6095C102.946 78.3859 98.5966 75.8195 94.164 76.7579L63.2708 83.3618C63.8787 81.6747 63.8801 79.8256 63.2746 78.1376C62.6691 76.4495 61.4953 75.0299 59.9583 74.1268L42.0501 63.6901C41.332 63.2364 40.6569 62.7166 40.0336 62.1373C38.4602 60.7643 36.5017 59.0569 32.8517 58.664C29.3984 58.3067 24.8955 59.1154 18.8212 61.2324V58.2335C18.8212 57.7901 18.6467 57.3648 18.3361 57.0513C18.0255 56.7378 17.6042 56.5616 17.165 56.5616H3.3125C2.87324 56.5616 2.45196 56.7378 2.14135 57.0513C1.83075 57.3648 1.65625 57.7901 1.65625 58.2335V96.7828C1.65625 97.2262 1.83075 97.6514 2.14135 97.965C2.45196 98.2785 2.87324 98.4546 3.3125 98.4546H17.165C17.6042 98.4546 18.0255 98.2785 18.3361 97.965C18.6467 97.6514 18.8212 97.2262 18.8212 96.7828V92.9981C23.761 92.3001 30.034 95.9134 36.1166 99.4202C41.3586 102.444 46.3564 105.328 50.5322 105.328C51.3177 105.334 52.0995 105.219 52.8509 104.987L98.3005 92.695C100.388 92.1269 102.168 90.7461 103.249 88.8555C104.33 86.9648 104.624 84.7186 104.066 82.6095ZM4.96875 95.1109V59.9054H15.5087V95.1109H4.96875ZM97.4413 89.4683L51.9648 101.775L51.8882 101.796C48.6938 102.829 43.1391 99.625 37.7666 96.5278C31.3611 92.8351 24.7609 89.0336 18.8274 89.6418V64.7726C32.3569 59.8719 35.156 62.3129 37.8743 64.6744C38.6527 65.3956 39.4986 66.0388 40.4001 66.595L58.3083 77.0317C58.7918 77.3149 59.2154 77.6915 59.5547 78.1399C59.8941 78.5884 60.1426 79.0999 60.2861 79.6453C60.4296 80.1907 60.4653 80.7593 60.3911 81.3186C60.3169 81.878 60.1343 82.4171 59.8538 82.9052C59.5732 83.3932 59.2001 83.8208 58.7559 84.1633C58.3116 84.5059 57.8049 84.7568 57.2645 84.9016C56.7242 85.0465 56.1609 85.0825 55.6068 85.0077C55.0528 84.9328 54.5187 84.7485 54.0352 84.4652L39.0854 75.7527C38.8969 75.636 38.6871 75.5585 38.4684 75.525C38.2498 75.4914 38.0267 75.5024 37.8123 75.5573C37.5979 75.6122 37.3966 75.7099 37.2202 75.8446C37.0438 75.9793 36.896 76.1483 36.7854 76.3416C36.6747 76.535 36.6036 76.7487 36.5761 76.9702C36.5486 77.1918 36.5654 77.4166 36.6254 77.6315C36.6854 77.8464 36.7875 78.0469 36.9255 78.2214C37.0636 78.3958 37.2348 78.5406 37.4292 78.6471L52.3789 87.3555C53.5208 88.0232 54.8169 88.375 56.1365 88.3753C56.8056 88.3748 57.4717 88.2856 58.1178 88.1099C58.6187 87.975 59.1044 87.788 59.567 87.5519C59.6443 87.5484 59.7211 87.5386 59.7968 87.5227L94.8493 80.041C97.6049 79.4517 100.191 80.9292 100.868 83.4767C101.197 84.729 101.022 86.0621 100.38 87.184C99.7373 88.3058 98.6807 89.125 97.4413 89.462V89.4683ZM13.8007 67.0652C13.8007 67.7774 13.5915 68.4735 13.1995 69.0657C12.8076 69.6578 12.2505 70.1194 11.5986 70.3919C10.9468 70.6644 10.2296 70.7357 9.53764 70.5968C8.84568 70.4579 8.21007 70.1149 7.7112 69.6113C7.21233 69.1078 6.87259 68.4662 6.73495 67.7677C6.59731 67.0692 6.66795 66.3452 6.93794 65.6872C7.20793 65.0293 7.66514 64.4669 8.25175 64.0712C8.83837 63.6756 9.52804 63.4644 10.2336 63.4644C11.1791 63.4644 12.0861 63.8427 12.7559 64.5164C13.4257 65.1902 13.8036 66.1044 13.8069 67.0589L13.8007 67.0652ZM37.8577 44.4029L45.905 45.6192C46.1038 46.15 46.3184 46.6732 46.5489 47.1887L41.6982 53.8072C41.2567 54.4029 41.0438 55.1399 41.099 55.8818C41.1542 56.6236 41.4737 57.3202 41.9984 57.8427L48.7145 64.5971C49.2323 65.123 49.9207 65.4426 50.6533 65.4971C51.3858 65.5516 52.1133 65.3374 52.7019 64.8938L59.2399 60.012C59.7554 60.2481 60.2751 60.4676 60.8071 60.6703L62.0121 68.7851C62.1173 69.519 62.4814 70.1899 63.0375 70.6744C63.5936 71.159 64.3043 71.4246 65.0389 71.4225L74.5209 71.4392C75.2565 71.4432 75.9686 71.1784 76.5257 70.6936C77.0828 70.2088 77.4473 69.5368 77.5518 68.8018L78.7588 60.6661C79.2847 60.4571 79.8064 60.2481 80.3198 60.012L86.8579 64.8918C87.4458 65.3359 88.1728 65.5506 88.9051 65.4965C89.6375 65.4423 90.3258 65.1229 90.8432 64.5971L97.5593 57.8427C98.0843 57.3205 98.4042 56.624 98.4597 55.8822C98.5153 55.1403 98.3028 54.4032 97.8616 53.8072L93.0109 47.1887C93.2365 46.6871 93.4456 46.1751 93.632 45.6589L101.721 44.405C102.452 44.3008 103.121 43.9321 103.604 43.3674C104.086 42.8028 104.349 42.0806 104.344 41.335L104.327 31.7656C104.329 31.0261 104.067 30.3108 103.589 29.7502C103.111 29.1896 102.449 28.8212 101.725 28.7124L93.6506 27.4585C93.4615 26.9569 93.2545 26.4616 93.0295 25.9726L97.8802 19.3018C98.3181 18.7064 98.528 17.9714 98.4714 17.2321C98.4147 16.4928 98.0952 15.7991 97.5718 15.2789L90.8495 8.50777C90.3327 7.98342 89.6461 7.66443 88.9154 7.60917C88.1847 7.55391 87.4587 7.76607 86.8703 8.20683L80.2722 13.0971C79.7892 12.8769 79.3013 12.6721 78.8085 12.4826L77.5663 4.31554C77.4585 3.58409 77.0936 2.91622 76.5382 2.43392C75.9829 1.95162 75.2742 1.68707 74.5416 1.68861L65.0513 1.67189C64.3174 1.66797 63.6068 1.93152 63.0499 2.41412C62.4931 2.89672 62.1275 3.56594 62.0204 4.29882L60.7782 12.4826C60.2827 12.6707 59.7941 12.8755 59.3124 13.0971L52.706 8.20474C52.1177 7.76439 51.3919 7.55266 50.6616 7.60831C49.9312 7.66396 49.2451 7.98326 48.7289 8.50777L42.0066 15.2684C41.4831 15.789 41.1635 16.4831 41.1068 17.2227C41.0501 17.9623 41.2601 18.6978 41.6982 19.2934L46.5489 25.9642C46.3253 26.4637 46.1162 26.9715 45.9278 27.4835L37.8536 28.704C37.1238 28.8077 36.4561 29.1753 35.9745 29.7383C35.4928 30.3014 35.23 31.0217 35.2346 31.7656L35.2512 41.3371C35.2481 42.0794 35.5108 42.7978 35.9909 43.36C36.471 43.9222 37.1362 44.2903 37.8639 44.3967L37.8577 44.4029ZM48.4039 30.4908L48.7248 29.5149C49.0617 28.495 49.4713 27.5012 49.9504 26.541L50.4038 25.6257L44.4931 17.4878L50.9111 11.0281L58.9542 16.9884L59.8589 16.5307C60.801 16.0536 61.7759 15.6457 62.776 15.3102L63.7366 14.9863L65.2583 5.01564L74.3242 5.03236L75.8376 14.9863L76.8086 15.3102C77.8022 15.647 78.7708 16.0549 79.707 16.5307L80.6118 16.9884L88.6549 11.0281L95.0729 17.4878L89.1621 25.6152L89.6155 26.5306C90.09 27.4836 90.4962 28.4697 90.8308 29.4814L91.1496 30.449L101.002 31.9746L101.019 41.126L91.1579 42.6537L90.837 43.6234C90.5001 44.6506 90.0891 45.6516 89.6073 46.6182L89.1497 47.5356L95.0729 55.617L88.6549 62.0705L80.6801 56.1081L79.7691 56.5721C78.798 57.0651 77.7918 57.4842 76.7589 57.826L75.7921 58.1499L74.3242 68.0892L65.2666 68.0725L63.7967 58.1562L62.8278 57.8343C61.7937 57.492 60.7862 57.0729 59.8134 56.5804L58.9025 56.1165L50.909 62.0684L44.491 55.617L50.4142 47.5335L49.9566 46.6161C49.4698 45.6372 49.0546 44.6237 48.7145 43.5837L48.3956 42.6057L38.5637 41.1198L38.5471 31.9746L48.4039 30.4908ZM69.7882 55.3809C73.4782 55.3817 77.0857 54.2778 80.1542 52.2089C83.2227 50.14 85.6145 47.1989 87.027 43.7578C88.4395 40.3166 88.8093 36.5298 88.0896 32.8765C87.3699 29.2231 85.5931 25.8672 82.9838 23.2334C80.3745 20.5995 77.05 18.8058 73.4308 18.0793C69.8116 17.3529 66.0602 17.7261 62.6512 19.152C59.2422 20.5778 56.3286 22.9922 54.279 26.0896C52.2294 29.1871 51.1359 32.8286 51.1367 36.5535C51.1438 41.5446 53.1112 46.3293 56.6075 49.8585C60.1037 53.3878 64.8437 55.3737 69.7882 55.3809ZM69.7882 21.0615C72.8227 21.0606 75.7894 21.9682 78.313 23.6693C80.8366 25.3704 82.8038 27.7888 83.9659 30.6185C85.1279 33.4482 85.4326 36.5622 84.8414 39.5667C84.2502 42.5712 82.7896 45.3313 80.6444 47.4979C78.4992 49.6645 75.7658 51.1403 72.7897 51.7387C69.8135 52.3371 66.7285 52.0312 63.9246 50.8598C61.1207 49.6883 58.7239 47.7038 57.0373 45.1573C55.3507 42.6108 54.45 39.6167 54.4492 36.5535C54.4541 32.4481 56.0717 28.5122 58.9471 25.6089C61.8225 22.7056 65.7212 21.0717 69.7882 21.0656V21.0615ZM61.4593 36.5493C61.4593 36.1059 61.6338 35.6806 61.9444 35.3671C62.255 35.0536 62.6763 34.8774 63.1155 34.8774H68.1319V29.8158C68.1319 29.3724 68.3064 28.9472 68.617 28.6336C68.9276 28.3201 69.3489 28.1439 69.7882 28.1439C70.2274 28.1439 70.6487 28.3201 70.9593 28.6336C71.2699 28.9472 71.4444 29.3724 71.4444 29.8158V34.8816H76.4629C76.9021 34.8816 77.3234 35.0577 77.634 35.3713C77.9446 35.6848 78.1191 36.1101 78.1191 36.5535C78.1191 36.9969 77.9446 37.4221 77.634 37.7357C77.3234 38.0492 76.9021 38.2253 76.4629 38.2253H71.4444V43.289C71.4444 43.7324 71.2699 44.1577 70.9593 44.4712C70.6487 44.7848 70.2274 44.9609 69.7882 44.9609C69.3489 44.9609 68.9276 44.7848 68.617 44.4712C68.3064 44.1577 68.1319 43.7324 68.1319 43.289V38.2253H63.1155C62.6763 38.2253 62.255 38.0492 61.9444 37.7357C61.6338 37.4221 61.4593 36.9969 61.4593 36.5535V36.5493Z" fill="white"/>
</svg>
