<svg width="106" height="106" viewBox="0 0 106 106" fill="none" xmlns="http://www.w3.org/2000/svg">
<path d="M79.5 28.1562V13.25C79.5 12.8107 79.3255 12.3895 79.0149 12.0789C78.7043 11.7682 78.283 11.5938 77.8438 11.5938H28.1562C27.717 11.5938 27.2957 11.7682 26.9851 12.0789C26.6745 12.3895 26.5 12.8107 26.5 13.25V28.1562C26.5 28.5955 26.6745 29.0168 26.9851 29.3274C27.2957 29.638 27.717 29.8125 28.1562 29.8125H77.8438C78.283 29.8125 78.7043 29.638 79.0149 29.3274C79.3255 29.0168 79.5 28.5955 79.5 28.1562ZM76.1875 26.5H29.8125V14.9062H76.1875V26.5Z" fill="black"/>
<path d="M102.638 89.416L97.0099 66.9125C96.9503 66.4819 96.8757 66.0546 96.7995 65.6405C96.5654 64.7659 96.5002 63.8547 96.6074 62.9557C97.0369 62.2105 97.6014 61.5516 98.2719 61.0129C99.0411 60.4661 99.6891 59.7664 100.175 58.9576C100.661 58.1488 100.975 57.2483 101.098 56.3125C100.975 55.3784 100.66 54.4796 100.174 53.6726C99.6877 52.8655 99.0402 52.1674 98.2719 51.622C97.6016 51.0824 97.0372 50.4231 96.6074 49.6776C96.5002 48.7786 96.5654 47.8674 96.7995 46.9928C97.0897 46.1207 97.1985 45.1985 97.1193 44.2828C97.0401 43.3671 96.7746 42.4773 96.3391 41.6679C95.6984 41.0016 94.9284 40.4732 94.0763 40.1149C93.2242 39.7566 92.3079 39.5761 91.3836 39.5844L91.0938 39.5347V4.96875C91.0938 4.52949 90.9193 4.10821 90.6087 3.7976C90.298 3.487 89.8768 3.3125 89.4375 3.3125H13.25C11.9322 3.3125 10.6684 3.83599 9.73656 4.76781C8.80474 5.69963 8.28125 6.96346 8.28125 8.28125V97.7188C8.28125 99.0365 8.80474 100.3 9.73656 101.232C10.6684 102.164 11.9322 102.688 13.25 102.688H89.4375C89.8768 102.688 90.298 102.513 90.6087 102.202C90.9193 101.892 91.0938 101.471 91.0938 101.031V84.9259L91.2064 84.6923L100.054 91.1517C100.329 91.3527 100.659 91.4641 101 91.4706C101.34 91.4771 101.674 91.3785 101.957 91.1882C102.239 90.9979 102.456 90.7252 102.578 90.4072C102.7 90.0892 102.721 89.7413 102.638 89.411V89.416ZM93.6609 43.6173C93.969 44.0397 93.7206 45.4061 93.54 46.4032C93.1608 47.8068 93.1323 49.2822 93.4572 50.6995C94.0153 51.9997 94.8864 53.1417 95.9929 54.0236C96.7896 54.7821 97.785 55.7262 97.785 56.3125C97.785 56.8988 96.7913 57.8429 95.9913 58.6014C94.8857 59.4839 94.0153 60.6257 93.4572 61.9255C93.1323 63.3428 93.1608 64.8182 93.54 66.2218C93.7206 67.2156 93.969 68.587 93.6609 69.0093C93.3529 69.4317 91.9567 69.6304 90.943 69.7662C89.4996 69.8353 88.0955 70.2597 86.8554 71.0018C85.7788 71.9454 84.9516 73.1401 84.4472 74.4799C83.9768 75.4621 83.3922 76.686 82.8638 76.8583C82.3902 77.004 81.1877 76.3614 80.3066 75.8894C79.0718 75.0826 77.6569 74.5933 76.1875 74.465C74.7181 74.5933 73.3032 75.0826 72.0684 75.8894C71.1873 76.3631 69.9898 77.009 69.5112 76.8583C68.9812 76.6927 68.3965 75.4621 67.9278 74.4799C67.4228 73.1404 66.5957 71.9459 65.5196 71.0018C64.28 70.2587 62.8756 69.8342 61.432 69.7662C60.4183 69.6304 59.0304 69.435 58.7141 69.0077C58.3977 68.5803 58.6544 67.2189 58.835 66.2218C59.2143 64.8182 59.2427 63.3428 58.9178 61.9255C58.3597 60.6253 57.4886 59.4833 56.3821 58.6014C55.5854 57.8429 54.59 56.8988 54.59 56.3125C54.59 55.7262 55.5838 54.7821 56.3837 54.0236C57.4893 53.1411 58.3598 51.9993 58.9178 50.6995C59.2427 49.2822 59.2143 47.8068 58.835 46.4032C58.6544 45.4094 58.406 44.038 58.7141 43.6157C59.0221 43.1933 60.4183 42.9946 61.432 42.8588C62.8754 42.7897 64.2795 42.3653 65.5196 41.6232C66.5962 40.6796 67.4234 39.4849 67.9278 38.1451C68.3982 37.1629 68.9828 35.939 69.5112 35.7667C69.9815 35.6127 71.1873 36.2636 72.0684 36.7356C73.3032 37.5424 74.7181 38.0317 76.1875 38.16C77.6569 38.0317 79.0718 37.5424 80.3066 36.7356C81.1877 36.2636 82.3935 35.616 82.8638 35.7667C83.3938 35.9323 83.9785 37.1629 84.4472 38.1451C84.9522 39.4846 85.7793 40.6791 86.8554 41.6232C88.095 42.3663 89.4994 42.7908 90.943 42.8588C91.9567 42.9946 93.3446 43.1817 93.6609 43.6173ZM60.7943 73.0224L60.9914 73.0489C61.8832 73.0944 62.7582 73.3085 63.5702 73.6799C64.1622 74.3305 64.6264 75.0868 64.9383 75.9092C65.2175 76.7992 65.6767 77.6223 66.2873 78.3274C66.8978 79.0326 67.6468 79.6047 68.4876 80.0085C69.2439 80.175 70.0259 80.1876 70.7871 80.0453C71.5483 79.903 72.273 79.6088 72.9181 79.1803L70.5364 88.7286L66.8926 81.191C66.787 80.9721 66.6345 80.7791 66.446 80.6257C66.2574 80.4723 66.0374 80.3623 65.8015 80.3035C65.5657 80.2447 65.3198 80.2386 65.0813 80.2855C64.8428 80.3324 64.6175 80.4312 64.4215 80.5749L57.6706 85.5287L60.7943 73.0224ZM11.5938 97.7188V8.28125C11.5938 7.84199 11.7682 7.42071 12.0789 7.1101C12.3895 6.7995 12.8107 6.625 13.25 6.625H14.9063V99.375H13.25C12.8107 99.375 12.3895 99.2005 12.0789 98.8899C11.7682 98.5793 11.5938 98.158 11.5938 97.7188ZM87.7813 99.375H18.2188V6.625H87.7813V37.4313C87.6637 37.1961 87.5477 36.9559 87.4368 36.7224C87.1575 35.8324 86.6983 35.0094 86.0877 34.3042C85.4772 33.5991 84.7283 33.0269 83.8874 32.6232C82.9922 32.4628 82.0737 32.4868 81.188 32.6935C80.3024 32.9003 79.4682 33.2855 78.7365 33.8256C77.9607 34.3274 77.0951 34.6744 76.1875 34.8475C75.2794 34.6724 74.4138 34.3231 73.6385 33.819C72.9068 33.2789 72.0726 32.8938 71.187 32.687C70.3013 32.4803 69.3828 32.4563 68.4876 32.6165C67.6469 33.0205 66.8981 33.5928 66.2876 34.2979C65.6771 35.003 65.2178 35.8259 64.9383 36.7157C64.6264 37.5382 64.1622 38.2945 63.5702 38.9451C62.7583 39.3167 61.8832 39.5308 60.9914 39.5761C60.0664 39.568 59.1495 39.7494 58.2972 40.1092C57.4449 40.469 56.6754 40.9994 56.0359 41.6679C55.6004 42.4773 55.3349 43.3671 55.2557 44.2828C55.1765 45.1985 55.2853 46.1207 55.5755 46.9928C55.8096 47.8674 55.8748 48.7786 55.7676 49.6776C55.3381 50.4228 54.7737 51.0816 54.1031 51.6203C53.3349 52.1662 52.6875 52.8646 52.2013 53.672C51.7151 54.4793 51.4007 55.3782 51.2775 56.3125C51.4005 57.2466 51.7149 58.1454 52.2011 58.9524C52.6873 59.7595 53.3348 60.4576 54.1031 61.003C54.7734 61.5426 55.3378 62.2019 55.7676 62.9474C55.8748 63.8464 55.8096 64.7576 55.5755 65.6322C55.2853 66.5043 55.1765 67.4265 55.2557 68.3422C55.3349 69.2579 55.6004 70.1477 56.0359 70.9571C56.4381 71.4996 56.9692 71.9334 57.5812 72.2191L53.3478 89.1692C53.2654 89.4995 53.2867 89.8472 53.409 90.1649C53.5312 90.4827 53.7484 90.7551 54.031 90.9449C54.3135 91.1348 54.6478 91.233 54.9882 91.2262C55.3285 91.2193 55.6585 91.1077 55.9332 90.9066L64.7793 84.429L69.5459 94.2986C69.6814 94.5789 69.893 94.8154 70.1567 94.9809C70.4203 95.1464 70.7253 95.2342 71.0366 95.2344C71.0929 95.2344 71.1492 95.2344 71.2022 95.2261C71.5407 95.1909 71.8601 95.0523 72.117 94.8292C72.374 94.606 72.5559 94.3092 72.6382 93.9789L76.6562 77.8587C77.3786 78.1026 78.074 78.42 78.7315 78.806C79.0197 78.9617 79.3162 79.1191 79.6193 79.2714L83.3375 94.2257C83.4195 94.5562 83.6013 94.8535 83.8583 95.077C84.1152 95.3004 84.4348 95.4392 84.7735 95.4745C84.8315 95.4745 84.8878 95.4745 84.9391 95.4745C85.2504 95.4744 85.5554 95.3865 85.819 95.221C86.0827 95.0555 86.2943 94.8191 86.4298 94.5387L87.7813 91.7745V99.375ZM91.5575 80.8449C91.3615 80.7018 91.1364 80.6036 90.8981 80.5571C90.6599 80.5107 90.4144 80.5172 90.179 80.5761C89.9436 80.635 89.724 80.745 89.5357 80.8982C89.3475 81.0514 89.1952 81.2441 89.0897 81.4627L85.4459 88.9837L83.2498 80.1509C83.4646 80.1231 83.6764 80.0754 83.8824 80.0085C84.7231 79.6045 85.4719 79.0322 86.0824 78.3271C86.693 77.622 87.1522 76.7991 87.4318 75.9092C87.7437 75.0868 88.2078 74.3305 88.7999 73.6799C89.6118 73.3083 90.4869 73.0942 91.3786 73.0489C92.5959 72.9539 93.7879 72.6514 94.9031 72.1545L98.31 85.7822L91.5575 80.8449Z" fill="black"/>
<path d="M77.8437 44.7187C77.8436 44.4256 77.7658 44.1377 77.6181 43.8845C77.4703 43.6313 77.2581 43.4218 77.0029 43.2775C76.7478 43.1331 76.4589 43.0591 76.1657 43.0629C75.8726 43.0668 75.5858 43.1484 75.3345 43.2993L67.0532 48.2681L68.7592 51.1069L74.5312 47.6437V64.5937H69.5624V67.9062H82.8124V64.5937H77.8437V44.7187Z" fill="black"/>
</svg>
