<svg width="106" height="106" viewBox="0 0 106 106" fill="none" xmlns="http://www.w3.org/2000/svg">
<path d="M103.193 68.9534C103.799 68.0205 104.552 66.8595 104.293 65.385C104.133 64.4776 103.644 63.7236 103.212 63.058C102.934 62.6294 102.619 62.1435 102.565 61.8371C102.511 61.5301 102.641 60.9653 102.756 60.4672C102.974 59.5178 103.222 58.4414 102.823 57.3408C102.414 56.215 101.478 55.5076 100.726 54.9388C100.33 54.6391 99.8808 54.2993 99.7398 54.055C99.5895 53.7948 99.5183 53.2257 99.4553 52.7234C99.3396 51.798 99.1955 50.6463 98.4365 49.743C97.6728 48.8341 96.5565 48.4919 95.6596 48.2168C95.1797 48.0695 94.6358 47.9027 94.4137 47.7166C94.1897 47.529 93.9297 47.0209 93.7001 46.5725C93.2734 45.7394 92.7425 44.7022 91.7184 44.1099C90.6967 43.519 89.5342 43.5768 88.6005 43.6227C88.0957 43.648 87.5239 43.6761 87.2465 43.5749C87.1202 43.5287 86.9612 43.418 86.7906 43.2793C86.5492 32.2302 82.121 21.8789 74.2677 14.0597C66.2345 6.06105 55.5672 1.65625 44.231 1.65625C20.7551 1.65625 1.65625 20.7551 1.65625 44.231C1.65625 67.7067 20.7551 86.8055 44.2308 86.8055C50.1452 86.8055 55.8579 85.6157 61.226 83.2736C61.308 83.3104 61.3904 83.3454 61.4725 83.3783L55.4589 96.2948C55.1985 96.8542 55.2705 97.5119 55.6459 98.0016C56.0212 98.491 56.6375 98.7315 57.2454 98.6255L64.2078 97.4088L67.7588 103.52C68.0561 104.032 68.6025 104.344 69.1907 104.344C69.2157 104.344 69.241 104.343 69.266 104.342C69.8824 104.314 70.432 103.946 70.6925 103.387L76.6045 90.6886C77.0222 90.5617 77.4189 90.395 77.7947 90.2366C78.2636 90.0391 78.7948 89.8153 79.0926 89.8149H79.0932C79.3698 89.8149 79.8853 90.0327 80.3401 90.2248C81.1014 90.5468 82.0252 90.9377 83.0384 90.8898L87.3129 100.814C87.557 101.381 88.0957 101.765 88.711 101.811C88.7522 101.814 88.7934 101.815 88.8344 101.815C89.4042 101.815 89.9379 101.521 90.2414 101.032L93.9682 95.0267L100.892 96.4447C101.497 96.5697 102.12 96.3461 102.509 95.8675C102.898 95.3888 102.99 94.7336 102.746 94.1671L97.8351 82.7659C98.05 82.6067 98.2529 82.4224 98.4349 82.2053C99.1945 81.2989 99.3388 80.1428 99.4547 79.2139C99.517 78.7139 99.5878 78.1473 99.7342 77.8941C99.8793 77.6431 100.334 77.3001 100.735 76.9974C101.483 76.4324 102.415 75.7289 102.822 74.6143C103.226 73.5056 102.968 72.3742 102.76 71.4651C102.647 70.9718 102.519 70.4126 102.571 70.1159C102.621 69.8352 102.925 69.3669 103.193 68.9534ZM4.96875 44.231C4.96875 22.5815 22.5817 4.96875 44.231 4.96875C64.7836 4.96875 81.7556 20.9176 83.3657 41.0885C82.2568 40.9307 81.2666 41.3462 80.39 41.7156C79.9213 41.9131 79.3899 42.1369 79.0919 42.1371C79.0917 42.1371 79.0915 42.1371 79.0913 42.1371C78.8145 42.1371 78.299 41.9193 77.8446 41.7271C76.9748 41.3597 75.8927 40.9017 74.7083 41.1108C73.5238 41.3197 72.6634 42.1199 71.9719 42.7627C71.61 43.0991 71.1999 43.4805 70.9401 43.5749C70.66 43.6761 70.0842 43.648 69.5764 43.6223C68.5942 43.5737 67.4808 43.5182 66.4651 44.1045C65.4331 44.7007 64.901 45.7429 64.4735 46.5804C64.2461 47.0255 63.9886 47.53 63.7691 47.7147C63.5433 47.9048 62.9961 48.0737 62.5133 48.223C62.1477 48.3358 61.7456 48.4608 61.346 48.6302C58.5741 45.757 55.1558 43.6538 51.4143 42.4689C54.8275 40.1579 57.075 36.2497 57.075 31.8265C57.075 24.7444 51.3131 18.9825 44.231 18.9825C37.1489 18.9825 31.387 24.7444 31.387 31.8265C31.387 36.2491 33.6341 40.1568 37.0464 42.4681C27.4325 45.5212 20.4468 54.5308 20.4468 65.1422C20.4468 66.0568 21.1884 66.7984 22.1031 66.7984H53.9445C54.1401 67.6032 54.579 68.2864 54.9728 68.894C55.2506 69.3225 55.5657 69.8085 55.6198 70.1151C55.674 70.4221 55.544 70.9867 55.4295 71.4848C55.2111 72.4342 54.9637 73.5104 55.3624 74.6112C55.7707 75.737 56.7067 76.4444 57.4586 77.0131C57.8551 77.3127 58.3046 77.6525 58.4459 77.8972C58.5961 78.1572 58.6673 78.7265 58.7302 79.2288C58.7845 79.6623 58.8457 80.1453 58.9726 80.6292C54.2958 82.5287 49.3461 83.4934 44.2312 83.4934C22.5817 83.4928 4.96875 65.88 4.96875 44.231ZM55.4252 60.4869C55.538 60.9804 55.6657 61.5396 55.6136 61.8357C55.5639 62.1166 55.2599 62.5849 54.9916 62.9982C54.8904 63.1538 54.7852 63.3168 54.6813 63.4855H23.8256C24.6713 52.9687 33.5001 44.6701 44.231 44.6701C49.8564 44.6701 55.2007 46.9754 59.0602 51.0305C58.8704 51.615 58.7954 52.2129 58.73 52.7385C58.6677 53.2385 58.5969 53.8049 58.4507 54.0577C58.306 54.308 57.852 54.6509 57.4514 54.9531C56.7025 55.5185 55.7705 56.2222 55.3635 57.3375C54.9589 58.4455 55.2175 59.5774 55.4252 60.4869ZM44.231 41.3578C38.9753 41.3578 34.6995 37.082 34.6995 31.8263C34.6995 26.5706 38.9753 22.2948 44.231 22.2948C49.4867 22.2948 53.7625 26.5706 53.7625 31.8263C53.7625 37.082 49.4867 41.3578 44.231 41.3578ZM69.029 99.1119L66.4922 94.7464C66.1438 94.1468 65.4579 93.8286 64.7751 93.9471L59.8014 94.8162L64.3323 85.0843C64.384 85.1828 64.4352 85.2824 64.4848 85.3793C64.9115 86.2126 65.4424 87.2498 66.467 87.8421C67.4889 88.4328 68.6509 88.3756 69.5846 88.3291C70.0892 88.3044 70.661 88.2756 70.9382 88.3771C71.2076 88.4754 71.622 88.8613 71.9877 89.2017C72.3355 89.5255 72.7263 89.8892 73.1793 90.1967L69.029 99.1119ZM93.5019 91.55C92.8224 91.4101 92.1281 91.7097 91.7625 92.2991L89.1002 96.5894L85.9985 89.3878C86.0718 89.3205 86.1436 89.2541 86.2132 89.1893C86.5751 88.8528 86.9852 88.4715 87.2454 88.3771C87.5256 88.2756 88.1013 88.3042 88.6094 88.3295C89.5911 88.3783 90.7047 88.4338 91.72 87.8473C92.7529 87.2508 93.2848 86.2086 93.7123 85.371C93.9394 84.9263 94.1967 84.4218 94.416 84.2375C94.499 84.1677 94.6257 84.1009 94.776 84.0367L98.4483 92.563L93.5019 91.55ZM101.03 65.9602C101.064 66.1502 100.642 66.8007 100.415 67.15C99.975 67.8282 99.476 68.5967 99.3096 69.5406C99.1406 70.4972 99.3479 71.4036 99.5307 72.2034C99.6234 72.6094 99.7789 73.2893 99.7102 73.4787C99.6387 73.6746 99.0754 74.0998 98.739 74.354C98.0871 74.8461 97.3479 75.4041 96.867 76.2364C96.3846 77.0709 96.2697 77.9918 96.1683 78.804C96.1163 79.2213 96.0292 79.9197 95.8969 80.0772C95.7652 80.2333 95.0948 80.4405 94.6944 80.5643C93.9114 80.8062 93.0239 81.0805 92.2846 81.7018C91.5513 82.3181 91.132 83.14 90.7619 83.8652C90.5695 84.2418 90.248 84.8723 90.064 84.9785C89.8828 85.0762 89.1884 85.0418 88.774 85.0211C87.9537 84.9803 87.0235 84.934 86.1163 85.2631C85.2232 85.5869 84.5509 86.2117 83.958 86.7633C83.6253 87.0726 83.1222 87.5401 82.9019 87.579C82.681 87.6171 82.0488 87.3504 81.6301 87.1734C80.8854 86.8585 80.0416 86.502 79.0932 86.502C79.0919 86.502 79.0905 86.502 79.0892 86.502C78.1239 86.5033 77.2659 86.8647 76.5088 87.1838C76.126 87.345 75.4844 87.6129 75.2826 87.585C75.0728 87.5479 74.5548 87.0655 74.2453 86.7774C73.6497 86.2225 72.9744 85.5938 72.075 85.2654C71.4759 85.0464 70.868 84.9921 70.2886 84.9921C69.9902 84.9921 69.6995 85.0066 69.4213 85.0205C69.0029 85.041 68.3021 85.076 68.1251 84.9741C67.9462 84.8708 67.6253 84.2441 67.4338 83.8696C67.0609 83.1411 66.6382 82.3156 65.8995 81.6964C65.1627 81.0788 64.2776 80.8074 63.4967 80.5681C63.0936 80.4445 62.4191 80.2377 62.2847 80.0776C62.1553 79.9219 62.0688 79.2302 62.017 78.817C61.9152 78.003 61.7999 77.0802 61.3142 76.2397C60.8374 75.4145 60.1037 74.8596 59.4563 74.3704C59.1176 74.1143 58.5505 73.6857 58.4768 73.4822C58.4126 73.2928 58.5662 72.6257 58.6577 72.2274C58.843 71.4219 59.0532 70.509 58.8822 69.5397C58.7114 68.5708 58.2021 67.7851 57.7526 67.092C57.5056 66.7108 57.1982 66.2367 57.1551 65.9918C57.1214 65.8014 57.5435 65.1511 57.7702 64.802C58.2104 64.1242 58.7091 63.3559 58.8758 62.4116C59.0445 61.4558 58.8374 60.5492 58.6548 59.7494C58.5621 59.3434 58.4068 58.6638 58.4753 58.4733C58.547 58.277 59.1105 57.8516 59.4474 57.5973C60.0991 57.1054 60.8378 56.5477 61.3187 55.7158C61.8009 54.8817 61.9156 53.9612 62.017 53.1493C62.069 52.7317 62.1562 52.0327 62.2887 51.8748C62.4203 51.7187 63.0907 51.5117 63.4909 51.3878C64.2741 51.146 65.1616 50.8717 65.9007 50.2502C66.6336 49.6339 67.0533 48.812 67.4234 48.0867C67.6158 47.7099 67.9375 47.0795 68.1209 46.9735C68.3021 46.8756 68.9965 46.9102 69.4114 46.9309C70.2316 46.9717 71.1616 47.0178 72.069 46.6891C72.9622 46.3651 73.6342 45.7402 74.2271 45.1889C74.5598 44.8796 75.0627 44.4121 75.2834 44.3732C75.5051 44.3374 76.1364 44.6018 76.5548 44.7786C77.2995 45.0935 78.1431 45.45 79.0911 45.45H79.0957C80.0608 45.4489 80.919 45.0875 81.6759 44.7684C82.0587 44.6074 82.6978 44.3378 82.9028 44.3672C83.1123 44.4043 83.6307 44.8869 83.9404 45.1753C84.5362 45.7301 85.2116 46.3589 86.1105 46.687C87.0175 47.0182 87.945 46.9723 88.764 46.9319C89.1824 46.911 89.883 46.8764 90.0602 46.9783C90.2389 47.0816 90.5598 47.7083 90.7515 48.0828C91.1246 48.8113 91.5473 49.6372 92.2858 50.256C93.0224 50.8734 93.9075 51.1448 94.6882 51.3843C95.0913 51.5079 95.766 51.715 95.9004 51.8746C96.03 52.0296 96.1167 52.722 96.1683 53.1354C96.2701 53.9492 96.3855 54.8716 96.8709 55.7121C97.3473 56.5373 98.0813 57.0922 98.7286 57.5816C99.0895 57.8543 99.6348 58.2667 99.7087 58.4706C99.7727 58.66 99.6193 59.3265 99.5276 59.7248C99.3421 60.5303 99.1319 61.4431 99.3029 62.4129C99.474 63.3818 99.9833 64.1673 100.433 64.8604C100.68 65.2407 100.987 65.715 101.03 65.9602ZM79.0926 48.2401C69.313 48.2401 61.3568 56.1964 61.3568 65.9759C61.3568 75.7552 69.313 83.7114 79.0926 83.7114C88.8721 83.7114 96.8283 75.7552 96.8283 65.9759C96.8283 56.1961 88.8721 48.2401 79.0926 48.2401ZM79.0926 80.3989C71.1395 80.3989 64.6693 73.9288 64.6693 65.9759C64.6693 58.023 71.1395 51.5526 79.0926 51.5526C87.0455 51.5526 93.5158 58.023 93.5158 65.9759C93.5158 73.9288 87.0455 80.3989 79.0926 80.3989ZM82.9651 60.4206L80.6256 54.6958C80.3712 54.073 79.7652 53.666 79.0926 53.666C78.4199 53.666 77.8139 54.073 77.5595 54.6958L75.22 60.4206L69.0524 60.8765C68.3814 60.9262 67.8073 61.3767 67.5992 62.0166C67.3914 62.6564 67.5911 63.3582 68.1048 63.7927L72.8265 67.787L71.3541 73.7936C71.1941 74.447 71.445 75.1323 71.9893 75.5277C72.5336 75.9231 73.2632 75.9502 73.835 75.5958L79.0928 72.3394L84.3505 75.5958C84.6184 75.7618 84.9207 75.844 85.2225 75.844C85.565 75.844 85.9068 75.7378 86.1962 75.5277C86.7405 75.1323 86.9914 74.4468 86.8314 73.7936L85.359 67.787L90.0809 63.7929C90.5946 63.3584 90.7944 62.6564 90.5865 62.0166C90.3787 61.3767 89.8044 60.9262 89.1334 60.8765L82.9651 60.4206ZM82.4361 65.9202C81.9562 66.3262 81.7475 66.9686 81.897 67.5791L82.6487 70.6457L79.9646 68.9834C79.4302 68.6522 78.7547 68.6522 78.2203 68.9834L75.5362 70.6457L76.2879 67.5791C76.4376 66.9688 76.2287 66.3262 75.7488 65.9204L73.3381 63.8812L76.4869 63.6484C77.1135 63.6021 77.6601 63.2048 77.8978 62.6232L79.0921 59.7006L80.2865 62.6232C80.5242 63.205 81.0707 63.6023 81.6974 63.6484L84.8462 63.8812L82.4361 65.9202Z" fill="black"/>
</svg>
