<svg width="350" height="71" viewBox="0 0 350 71" fill="none" xmlns="http://www.w3.org/2000/svg">
<g opacity="0.2" clip-path="url(#clip0_146_247)">
<path d="M378 55.1169H307.22V38.2456H295.299V62.1207H297.779V50.5571H290.012V15.9014H282.339V42.8053H269.379V55.3754H274.709V27.7573L261.841 14.9128V46.7577H256.359V20.613L251.791 16.0532V8.90891L248.06 5.18488L244.557 8.22504V15.7495L240.407 19.8914V47.0614H246.155V39.1568H230.272V28.0611H223.314V55.1169H230.623V48.581H219.202V22.4373L209.914 13.1649L200.929 22.1336V51.0127H205.899V42.1969H194.379V27.7573H186.919V55.1169" stroke="#337058" stroke-linejoin="round"/>
<path d="M186.919 27.7574L181.578 33.0887V55.1169" stroke="#337058" stroke-linecap="round" stroke-linejoin="round"/>
<path d="M230.272 28.0611L233.579 31.3625V39.1568" stroke="#337058" stroke-linejoin="round"/>
<path d="M219.202 48.1829V58.8938" stroke="#337058" stroke-linecap="round" stroke-linejoin="round"/>
<path d="M261.841 14.9128L258.739 18.0096V47.0595" stroke="#337058" stroke-linejoin="round"/>
<path d="M282.339 15.9014L279.529 18.7048V58.8938" stroke="#337058" stroke-linecap="round" stroke-linejoin="round"/>
<path d="M307.22 38.2456L311.724 42.7412V55.1169" stroke="#337058" stroke-linecap="round" stroke-linejoin="round"/>
<path d="M209.914 13.1649V35.4224" stroke="#337058" stroke-linecap="round" stroke-linejoin="round"/>
<path d="M194.379 42.1969V66.3267" stroke="#337058" stroke-linecap="round" stroke-linejoin="round"/>
<path d="M205.899 51.0128V64.0884" stroke="#337058" stroke-linecap="round" stroke-linejoin="round"/>
<path d="M230.272 39.1568V44.7136" stroke="#337058" stroke-linecap="round" stroke-linejoin="round"/>
<path d="M240.407 47.0614V56.6346" stroke="#337058" stroke-linecap="round" stroke-linejoin="round"/>
<path d="M256.359 46.7577V58.8938" stroke="#337058" stroke-linecap="round" stroke-linejoin="round"/>
<path d="M251.791 16.0532V33.6094" stroke="#337058" stroke-linecap="round" stroke-linejoin="round"/>
<path d="M244.557 15.7495V37.0269" stroke="#337058" stroke-linecap="round" stroke-linejoin="round"/>
<path d="M282.339 18.5755H289.686" stroke="#337058" stroke-linecap="round" stroke-linejoin="round"/>
<path d="M282.339 21.062H289.686" stroke="#337058" stroke-linecap="round" stroke-linejoin="round"/>
<path d="M282.339 23.5485H289.686" stroke="#337058" stroke-linecap="round" stroke-linejoin="round"/>
<path d="M282.339 26.0359H289.686" stroke="#337058" stroke-linecap="round" stroke-linejoin="round"/>
<path d="M282.339 28.5223H289.686" stroke="#337058" stroke-linecap="round" stroke-linejoin="round"/>
<path d="M282.339 31.0088H289.686" stroke="#337058" stroke-linecap="round" stroke-linejoin="round"/>
<path d="M282.339 33.4962H289.686" stroke="#337058" stroke-linecap="round" stroke-linejoin="round"/>
<path d="M282.339 35.9827H289.686" stroke="#337058" stroke-linecap="round" stroke-linejoin="round"/>
<path d="M282.339 38.4691H289.686" stroke="#337058" stroke-linecap="round" stroke-linejoin="round"/>
<path d="M304.579 38.2456V58.8938" stroke="#337058" stroke-linecap="round" stroke-linejoin="round"/>
<path d="M301.129 38.2456V58.8938" stroke="#337058" stroke-linecap="round" stroke-linejoin="round"/>
<path d="M295.299 41.9357H301.129" stroke="#337058" stroke-linecap="round" stroke-linejoin="round"/>
<path d="M295.299 44.7136H301.129" stroke="#337058" stroke-linecap="round" stroke-linejoin="round"/>
<path d="M295.299 47.4915H301.129" stroke="#337058" stroke-linecap="round" stroke-linejoin="round"/>
<path d="M295.299 50.5883H301.129" stroke="#337058" stroke-linecap="round" stroke-linejoin="round"/>
<path d="M269.379 22.7033V60.6907" stroke="#337058" stroke-linecap="round" stroke-linejoin="round"/>
<path d="M200.929 26.6169L209.914 17.6493" stroke="#337058" stroke-linecap="round" stroke-linejoin="round"/>
<path d="M200.929 31.405L209.914 22.4373" stroke="#337058" stroke-linecap="round" stroke-linejoin="round"/>
<path d="M200.929 36.193L209.914 27.2253" stroke="#337058" stroke-linecap="round" stroke-linejoin="round"/>
<path d="M200.929 40.9811L209.914 32.0134" stroke="#337058" stroke-linecap="round" stroke-linejoin="round"/>
<path d="M178.786 59.5428V40.6236H168.421V59.5428H171.876V46.3389H165.919V26.7292H159.403V40.5245H154.599V52.0089H157.561V35.9544H154.599V32.8388H151.538V17.2691H144.826V68.6698H147.806V45.5503H143.148V38.0616L137.718 32.6416V46.3389H136.039V9.37018H127.45V23.3645H124.587V45.971H122.514V55.7461H119.553V38.3569L112.395 38.2692V44.5655H115.999V28.6997L104.546 17.2691V63.297H109.581V51.1797H101.881V40.7217L97.438 36.2874V31.7549L93.2922 27.6159V45.6493H86.7765V49.7874H90.4289V21.8015H83.8148V29.9806H80.6557V59.5428H-6.55876e-05" stroke="#337058" stroke-linejoin="round"/>
<path d="M165.919 26.7292L170.34 31.1409V40.6236" stroke="#337058" stroke-linejoin="round"/>
<path d="M136.039 9.37018L140.914 14.2356V35.8318" stroke="#337058" stroke-linejoin="round"/>
<path d="M93.2922 27.6159L85.8976 34.997V55.448" stroke="#337058" stroke-linejoin="round"/>
<path d="M83.8147 21.8015L76.0137 29.5882V59.5428" stroke="#337058" stroke-linejoin="round"/>
<path d="M80.6558 29.9807L76.0253 34.6017" stroke="#337058" stroke-linejoin="round"/>
<path d="M127.45 9.37018L123.172 13.6404V45.971" stroke="#337058" stroke-linejoin="round"/>
<path d="M124.587 23.3645L119.958 27.9847V35.8318" stroke="#337058" stroke-linejoin="round"/>
<path d="M151.538 17.2691L154.419 20.1442V29.9807" stroke="#337058" stroke-linejoin="round"/>
<path d="M178.786 40.6236L181.578 43.41V55.1169" stroke="#337058" stroke-linejoin="round"/>
<path d="M151.538 32.8388V56.7441" stroke="#337058" stroke-linejoin="round"/>
<path d="M159.404 28.0866H163.744" stroke="#337058" stroke-linejoin="round"/>
<path d="M159.404 29.5986H163.744" stroke="#337058" stroke-linejoin="round"/>
<path d="M159.404 31.1107H163.744" stroke="#337058" stroke-linejoin="round"/>
<path d="M159.404 32.6227H163.744" stroke="#337058" stroke-linejoin="round"/>
<path d="M159.404 34.1348H163.744" stroke="#337058" stroke-linejoin="round"/>
<path d="M159.404 35.6478H163.744" stroke="#337058" stroke-linejoin="round"/>
<path d="M159.404 37.1599H163.744" stroke="#337058" stroke-linejoin="round"/>
<path d="M159.404 38.672H163.744" stroke="#337058" stroke-linejoin="round"/>
<path d="M127.45 -1.66986H136.039V9.37018H127.45V-1.66986Z" stroke="#337058" stroke-linejoin="round"/>
<path d="M127.45 -1.66986L124.546 1.22881V12.2273" stroke="#337058" stroke-linejoin="round"/>
<path d="M104.546 2.12964V17.2691L100.059 21.7478V38.904" stroke="#337058" stroke-linejoin="round"/>
<path d="M104.546 2.12964L100.833 5.83669V20.9752" stroke="#337058" stroke-linejoin="round"/>
<path d="M79.5803 26.0284V12.798H88.8035V21.8016" stroke="#337058" stroke-linejoin="round"/>
<path d="M79.5803 12.798L76.356 16.0174V29.2392" stroke="#337058" stroke-linejoin="round"/>
<path d="M112.138 9.64561V24.7842" stroke="#337058" stroke-linejoin="round"/>
<path d="M109.795 7.26385V22.4034" stroke="#337058" stroke-linejoin="round"/>
<path d="M107.154 4.65854V19.7971" stroke="#337058" stroke-linejoin="round"/>
<path d="M114.024 26.5547V11.4727C110.689 8.14393 104.546 2.12869 104.546 2.12869" stroke="#337058" stroke-linejoin="round"/>
<path d="M137.718 46.3389V55.1169" stroke="#337058" stroke-linejoin="round"/>
<path d="M143.147 45.5503V50.7279" stroke="#337058" stroke-linejoin="round"/>
<path d="M127.45 23.3645V53.7558" stroke="#337058" stroke-linejoin="round"/>
<path d="M172.306 29.2392H176.726V40.6236H172.306V29.2392Z" stroke="#337058" stroke-linejoin="round"/>
<path d="M176.726 29.2392L180.473 32.9784V42.3064" stroke="#337058" stroke-linejoin="round"/>
</g>
<defs>
<clipPath id="clip0_146_247">
<rect width="378" height="71" fill="white" transform="matrix(-1 0 0 1 378 0)"/>
</clipPath>
</defs>
</svg>
