<svg width="32" height="32" viewBox="0 0 32 32" fill="none" xmlns="http://www.w3.org/2000/svg">
<path fill-rule="evenodd" clip-rule="evenodd" d="M2.61473 15.6877C2.61473 8.46722 8.46769 2.61426 15.6881 2.61426C22.9086 2.61426 28.7615 8.46722 28.7615 15.6877C28.7615 22.9081 22.9086 28.761 15.6881 28.761C13.4264 28.7645 11.2029 28.1787 9.2364 27.0615L4.33519 28.6944C4.10484 28.7712 3.85765 28.7823 3.62132 28.7266C3.38499 28.6708 3.16887 28.5503 2.99717 28.3786C2.82547 28.2069 2.70498 27.9908 2.64921 27.7545C2.59344 27.5181 2.60459 27.2709 2.6814 27.0406L4.31558 22.1394C3.19791 20.173 2.61172 17.9494 2.61473 15.6877ZM10.4588 9.15096C10.112 9.15096 9.77951 9.28869 9.53434 9.53387C9.28917 9.77904 9.15143 10.1116 9.15143 10.4583C9.15143 10.805 9.28917 11.1375 9.53434 11.3827C9.77951 11.6279 10.112 11.7656 10.4588 11.7656H20.9175C21.2642 11.7656 21.5967 11.6279 21.8419 11.3827C22.0871 11.1375 22.2248 10.805 22.2248 10.4583C22.2248 10.1116 22.0871 9.77904 21.8419 9.53387C21.5967 9.28869 21.2642 9.15096 20.9175 9.15096H10.4588ZM10.4588 14.3803C10.112 14.3803 9.77951 14.5181 9.53434 14.7632C9.28917 15.0084 9.15143 15.3409 9.15143 15.6877C9.15143 16.0344 9.28917 16.3669 9.53434 16.6121C9.77951 16.8573 10.112 16.995 10.4588 16.995H20.9175C21.2642 16.995 21.5967 16.8573 21.8419 16.6121C22.0871 16.3669 22.2248 16.0344 22.2248 15.6877C22.2248 15.3409 22.0871 15.0084 21.8419 14.7632C21.5967 14.5181 21.2642 14.3803 20.9175 14.3803H10.4588ZM10.4588 19.6097C10.112 19.6097 9.77951 19.7474 9.53434 19.9926C9.28917 20.2378 9.15143 20.5703 9.15143 20.917C9.15143 21.2637 9.28917 21.5963 9.53434 21.8414C9.77951 22.0866 10.112 22.2243 10.4588 22.2243H14.3808C14.7275 22.2243 15.06 22.0866 15.3052 21.8414C15.5504 21.5963 15.6881 21.2637 15.6881 20.917C15.6881 20.5703 15.5504 20.2378 15.3052 19.9926C15.06 19.7474 14.7275 19.6097 14.3808 19.6097H10.4588Z" fill="white"/>
</svg>
