<svg width="36" height="36" viewBox="0 0 36 36" fill="none" xmlns="http://www.w3.org/2000/svg">
<path d="M5.88304 29.4149C5.07413 29.4149 4.38189 29.1271 3.80633 28.5516C3.23078 27.976 2.94251 27.2833 2.94153 26.4734V8.82433C2.94153 8.01541 3.2298 7.32317 3.80633 6.74762C4.38287 6.17206 5.07511 5.88379 5.88304 5.88281H29.4152C30.2241 5.88281 30.9168 6.17108 31.4933 6.74762C32.0699 7.32415 32.3576 8.01639 32.3567 8.82433V26.4734C32.3567 27.2823 32.0689 27.9751 31.4933 28.5516C30.9178 29.1281 30.225 29.4159 29.4152 29.4149H5.88304ZM17.6491 19.1196L29.4152 11.7658V8.82433L17.6491 16.1781L5.88304 8.82433V11.7658L17.6491 19.1196Z" fill="white"/>
</svg>
