<svg width="34" height="34" viewBox="0 0 34 34" fill="none" xmlns="http://www.w3.org/2000/svg">
<path d="M29.0154 24.2755L23.2582 19.0409C22.9862 18.7933 22.6285 18.6611 22.2608 18.6725C21.8931 18.6838 21.5443 18.8378 21.2881 19.1018L17.899 22.5873C17.0832 22.4315 15.4431 21.9203 13.7549 20.2363C12.0667 18.5467 11.5554 16.9024 11.4039 16.0922L14.8865 12.7017C15.1505 12.4455 15.3045 12.0966 15.3159 11.729C15.3273 11.3613 15.1951 11.0036 14.9474 10.7316L9.71425 4.97582C9.46646 4.70299 9.12208 4.53749 8.75423 4.51448C8.38638 4.49148 8.02406 4.61277 7.7442 4.85261L4.67087 7.48831C4.42601 7.73406 4.27986 8.06113 4.26014 8.40748C4.2389 8.76155 3.83384 17.1488 10.3374 23.6552C16.0111 29.3274 23.118 29.7424 25.0753 29.7424C25.3614 29.7424 25.537 29.7339 25.5837 29.7311C25.9298 29.7106 26.2563 29.564 26.5015 29.3189L29.1358 26.2442C29.3765 25.9652 29.4987 25.6032 29.4762 25.2353C29.4538 24.8675 29.2884 24.5231 29.0154 24.2755Z" fill="white"/>
</svg>
