<svg width="33" height="34" viewBox="0 0 33 34" fill="none" xmlns="http://www.w3.org/2000/svg">
<g clip-path="url(#clip0_112_656)">
<path d="M0.701631 16.3711C0.70086 19.1554 1.42835 21.874 2.81167 24.2702L0.569336 32.4573L8.94785 30.2604C11.2653 31.522 13.8617 32.183 16.5002 32.1832H16.5072C25.2175 32.1832 32.3078 25.0954 32.3115 16.3836C32.3132 12.1621 30.6707 8.19246 27.6865 5.20593C24.7028 2.21966 20.7346 0.574192 16.5065 0.572266C7.79522 0.572266 0.705356 7.65969 0.701759 16.3711" fill="url(#paint0_linear_112_656)"/>
<path d="M0.137433 16.3655C0.136534 19.25 0.890102 22.0658 2.32274 24.5478L0 33.0284L8.67894 30.7528C11.0703 32.0566 13.7627 32.7441 16.5023 32.7451H16.5094C25.5322 32.7451 32.8773 25.4023 32.8811 16.3786C32.8826 12.0055 31.1811 7.89314 28.0902 4.79961C24.999 1.70648 20.8889 0.00179819 16.5094 0C7.48507 0 0.141029 7.34174 0.137433 16.3655ZM5.30606 24.1203L4.982 23.6059C3.61975 21.4399 2.90073 18.9368 2.90176 16.3666C2.90458 8.86621 9.00865 2.76407 16.5145 2.76407C20.1494 2.76561 23.5655 4.18258 26.1348 6.75347C28.7041 9.32462 30.1178 12.7425 30.1169 16.3776C30.1136 23.878 24.0094 29.9809 16.5094 29.9809H16.504C14.0619 29.9796 11.6669 29.3238 9.57816 28.0844L9.08109 27.7897L3.93083 29.14L5.30606 24.1203Z" fill="url(#paint1_linear_112_656)"/>
<path d="M12.4174 9.52395C12.111 8.84282 11.7885 8.82908 11.497 8.81713C11.2584 8.80686 10.9856 8.80763 10.713 8.80763C10.4402 8.80763 9.99696 8.91026 9.6223 9.31934C9.24725 9.72882 8.19043 10.7183 8.19043 12.7309C8.19043 14.7434 9.65634 16.6886 9.86069 16.9618C10.0653 17.2344 12.6906 21.4967 16.8486 23.1363C20.3042 24.499 21.0074 24.228 21.7574 24.1596C22.5075 24.0916 24.1777 23.1704 24.5185 22.2152C24.8595 21.2601 24.8595 20.4414 24.7572 20.2703C24.655 20.0999 24.3822 19.9975 23.9731 19.793C23.564 19.5885 21.5527 18.5988 21.1778 18.4622C20.8028 18.3258 20.5301 18.2577 20.2573 18.6673C19.9845 19.0763 19.2011 19.9975 18.9623 20.2703C18.7238 20.5437 18.485 20.5778 18.0761 20.3732C17.6667 20.1679 16.3493 19.7365 14.7863 18.343C13.5702 17.2587 12.7492 15.9197 12.5106 15.5101C12.2719 15.1012 12.485 14.8795 12.6901 14.6756C12.8739 14.4923 13.0993 14.1979 13.3041 13.9592C13.508 13.7203 13.5761 13.5498 13.7125 13.277C13.8491 13.004 13.7807 12.7651 13.6786 12.5604C13.5761 12.3558 12.7812 10.3327 12.4174 9.52395Z" fill="white"/>
</g>
<defs>
<linearGradient id="paint0_linear_112_656" x1="1587.68" y1="3189.08" x2="1587.68" y2="0.572266" gradientUnits="userSpaceOnUse">
<stop stop-color="#1FAF38"/>
<stop offset="1" stop-color="#60D669"/>
</linearGradient>
<linearGradient id="paint1_linear_112_656" x1="1644.06" y1="3302.84" x2="1644.06" y2="0" gradientUnits="userSpaceOnUse">
<stop stop-color="#F9F9F9"/>
<stop offset="1" stop-color="white"/>
</linearGradient>
<clipPath id="clip0_112_656">
<rect width="32.8811" height="33.138" fill="white"/>
</clipPath>
</defs>
</svg>
