<svg width="550" height="217" viewBox="0 0 550 217" fill="none" xmlns="http://www.w3.org/2000/svg">
<path d="M0 169.515C0.724156 169.47 1.57462 169.657 1.59268 170.38C1.61686 171.347 1.03636 172.194 0 172.544C0 171.534 0 170.525 0 169.515Z" fill="#EEEEF0"/>
<path d="M0 164.593C1.29421 165.477 0.752397 166.36 0 167.243C0 166.36 0 165.477 0 164.593Z" fill="#EEEEF0"/>
<path d="M549.978 197.53C549.509 197.408 548.677 197.835 548.67 197.03C548.664 196.367 549.432 196.406 549.978 196.394C549.978 196.773 549.978 197.151 549.978 197.53Z" fill="#EEEEF0"/>
<path d="M307.797 170.263C306.538 172.439 305.901 174.88 304.87 177.152C304.641 177.658 304.368 178.145 304.116 178.64C303.669 178.433 303.104 178.367 303.026 177.717C304.181 174.596 305.227 171.439 306.382 168.321C308.613 162.301 310.994 156.339 313.378 150.381C316.114 143.544 318.711 136.654 321.497 129.835C324.328 122.907 326.946 115.883 329.427 108.809C331.245 103.624 332.708 98.3625 333.995 93.0442C335.136 88.3355 335.805 83.5145 336.583 78.7464C337.197 74.9791 337.324 70.971 336.274 67.1238C336.173 66.7539 336.173 66.3767 336.24 65.9979C336.627 61.6687 335.896 57.4368 335.175 53.2016C335.041 52.4168 334.529 51.4679 335.78 51.0508C336.301 53.7363 336.898 56.4097 337.326 59.1099C338.053 63.688 338.37 68.307 338.428 72.9429C337.933 75.0784 338.574 77.2756 338.078 79.4111C337.35 85.8803 336.628 92.3437 334.883 98.6509C332.318 107.921 328.885 116.875 325.309 125.785C321.826 134.461 318.463 143.185 315.017 151.875C312.795 157.477 310.516 163.056 308.276 168.65C308.068 169.168 307.954 169.724 307.797 170.263Z" fill="#F7C193"/>
<path d="M335.781 51.0506C334.97 53.0094 336.387 54.7351 336.356 56.6259C336.305 59.8133 337.569 62.9766 336.543 66.187C336.444 66.2117 336.346 66.2364 336.248 66.2612C336.071 66.1525 335.942 66.0017 335.859 65.8106C335.458 64.5658 335.93 63.219 335.411 61.9875C334.88 59.5551 333.813 57.2318 333.914 54.67C334.418 53.3994 333.996 52.1528 333.658 50.9718C330.522 40.0134 325.928 29.8009 317.885 21.5043C314.654 18.1707 311.194 15.0405 307.105 12.7277C306.72 12.5098 306.352 12.2722 306.09 11.9033C304.589 10.078 302.443 9.27475 300.404 8.30122C297.309 7.22524 294.429 5.58426 291.22 4.80927C290.241 4.47578 289.229 4.26961 288.227 4.02601C287.071 3.51892 285.838 3.41532 284.599 3.32878C284.396 3.30157 284.2 3.25574 284.003 3.20333C278.742 3.08945 273.532 2.96406 268.268 3.90638C262.963 4.856 258.029 6.75143 253.002 8.47617C252.203 8.75033 250.954 9.42275 250.63 8.56012C250.227 7.48977 251.679 7.30273 252.453 6.93401C258.338 4.13369 264.479 2.15721 270.971 1.42721C274.925 0.982612 278.83 -0.0322855 282.859 0.338049C285.871 0.475519 288.856 0.74348 291.62 2.1123C291.812 2.83047 291.313 2.78277 290.868 2.79021C290.057 2.80384 289.299 2.50751 288.499 2.41412C294.307 2.99619 299.63 5.14794 304.767 7.70293C310.21 10.4099 314.804 14.3032 318.852 18.8399C320.522 20.7114 322.086 22.6666 323.568 24.6887C328.39 31.3585 331.955 38.644 334.243 46.5588C334.416 47.1566 334.617 47.7515 334.836 48.3372C334.924 48.5735 335.012 48.7076 334.924 48.4715C334.917 48.4529 335.015 48.3953 335.063 48.3559C335.568 49.1831 335.719 50.1049 335.781 51.0506Z" fill="#F4C7B6"/>
<path d="M512.254 190.216C508.124 191.794 512.033 193.592 511.748 195.233C509.068 194.783 506.641 193.426 503.896 193.358C502.689 193.327 501.779 193.612 501.607 195.001C501.509 195.787 500.967 196.015 500.26 196.012C499.324 196.008 498.388 196.011 497.272 196.011C497.755 195.121 498.871 194.446 497.859 193.504C497.29 192.974 494.517 193.705 494.154 194.519C493.539 195.897 492.524 196.084 491.247 195.757C490.624 195.598 489.982 195.528 489.391 195.76C488.053 196.285 487.417 195.568 486.889 194.499C486.477 193.662 486.738 193.274 487.615 193.381C488.838 193.531 489.472 193.02 490.149 191.975C490.916 190.791 492.07 189.807 493.204 188.929C494.27 188.105 495.532 187.667 496.885 188.502C497.19 188.69 497.661 188.891 497.944 188.785C500.516 187.822 503.601 187.915 505.358 185.249C505.526 184.994 505.788 184.662 505.736 184.424C505.226 182.085 506.615 182.739 507.846 183.01C508.758 183.212 509.669 183.366 510.311 184.299C510.511 183.903 510.622 183.757 510.66 183.593C510.797 183.013 510.427 182.132 511.18 181.927C511.994 181.706 512.524 182.47 513 183.041C513.522 183.668 513.438 184.329 512.882 184.907C512.101 185.721 511.382 186.634 510.204 186.907C509.371 187.099 508.933 187.692 508.649 188.415C508.231 189.476 508.845 190.226 510.005 190.117C510.502 190.071 510.997 190.011 511.494 189.977C511.608 189.97 511.727 190.046 512.254 190.216Z" fill="#EEEEF0"/>
<path d="M250.788 177.511C247.994 173.062 245.75 168.31 243.198 163.727C242.872 163.141 242.75 162.413 242.113 162.023C241.976 161.748 241.84 161.472 241.703 161.195C241.142 160.682 240.69 160.092 240.336 159.41C237.557 154.049 234.851 148.649 231.949 143.351C231.437 142.415 231.197 141.369 230.787 140.392C224.229 127.45 217.047 114.775 212.608 100.886C210.879 95.4779 209.698 89.8372 209.291 84.1109C209.153 82.1692 208.697 80.2494 208.871 78.2858C209.314 76.9458 209.116 75.5612 209.093 74.2015C209.051 71.7063 209.291 69.222 209.286 66.7293C209.285 66.1811 209.088 65.3898 210.091 65.396C210.684 66.0861 210.521 66.9291 210.545 67.7266C210.624 70.3466 210.415 72.971 210.669 75.585C212.114 81.0137 212.073 86.6648 213.119 92.1606C214.1 97.3177 215.589 102.309 217.463 107.199C220.916 116.211 225.277 124.81 229.483 133.472C234.789 144.4 240.107 155.326 245.812 166.056C247.435 169.109 249.125 172.128 250.611 175.253C250.951 175.968 251.497 176.699 250.788 177.511Z" fill="#E18F87"/>
<path d="M454.592 191.106C452.389 191.059 450.691 191.245 449.033 190.719C448.393 190.516 447.725 190.253 447.781 189.542C447.847 188.697 448.565 189.115 449.095 189.065C450.581 188.927 452.07 188.71 453.523 188.373C454.021 188.258 455.354 187.976 453.793 187.101C452.75 186.517 453.407 185.154 452.802 184.185C452.028 182.943 453.622 182.726 454.225 182.041C455.542 180.547 456.836 178.974 456.685 176.757C456.656 176.326 456.591 175.818 457.018 175.544C457.555 175.2 457.758 175.814 458.095 176.026C458.623 176.357 459.271 176.61 459.625 177.08C460.348 178.039 460.298 178.972 459.024 179.501C458.18 179.851 457.669 180.386 457.829 181.376C457.921 181.946 458.227 182.278 458.798 182.364C459.73 182.505 460.31 182.057 460.82 181.308C461.698 180.021 462.934 178.995 463.498 177.47C463.793 176.674 464.275 176.802 464.979 177.184C466.408 177.959 467.083 179.47 468.372 180.384C469.021 180.844 468.577 181.47 467.905 181.566C466.705 181.737 466.126 182.335 466.091 183.55C466.07 184.245 465.516 184.43 465.025 184.159C464.392 183.81 465.006 183.442 465.175 183.092C465.488 182.438 466.16 181.733 465.275 181.099C464.513 180.553 463.767 180.96 463.324 181.629C462.691 182.585 461.111 182.558 460.935 183.853C460.728 185.376 462.447 185.312 463.075 186.176C463.259 186.429 463.497 186.65 463.65 186.92C464.207 187.904 466.318 188.435 465.785 189.135C465.064 190.085 463.29 190.578 461.943 190.631C459.316 190.733 456.722 191.447 454.592 191.106Z" fill="#EEEEF0"/>
<path d="M282.859 0.337916C282.524 0.733974 282.058 0.614083 281.631 0.655059C273.832 1.40238 266.044 2.24388 258.618 4.95282C255.929 5.93385 253.319 7.1334 250.741 8.40229C253.488 7.98129 255.971 6.81276 258.546 5.89947C266.707 3.00433 275.143 2.04178 283.766 2.64524C283.996 2.66133 284.215 2.83344 284.439 2.93285C283.743 3.639 282.836 3.49772 281.983 3.52448C279.378 3.6063 276.768 3.39088 274.17 3.6856C267.777 4.37741 261.652 6.14945 255.632 8.3354C251.238 10.1681 246.387 10.583 242.102 12.8218C240.562 13.6265 239.319 15.0214 237.485 15.2559C237.102 15.3771 237.455 14.202 236.579 14.8753C233.709 17.0808 230.876 19.3091 228.486 22.0512C228.122 22.4688 227.844 22.9873 227.237 23.1233C226.92 23.1136 226.756 22.9292 226.685 22.6388C230.811 17.4482 235.942 13.4294 241.585 10.0657C252.845 3.3532 265.011 -0.160775 278.164 0.00564975C279.73 0.0254268 281.294 0.222873 282.859 0.337916Z" fill="#EB725A"/>
<path d="M230.787 140.392C231.884 141.555 232.374 143.076 233.095 144.449C236.014 150.005 238.842 155.609 241.703 161.195C240.46 161.148 240.52 161.785 240.953 162.624C241.222 163.146 241.26 163.621 240.556 163.777C240.003 163.9 239.575 163.753 239.485 163.075C239.295 161.656 238.283 161.119 237.109 160.477C235.557 159.627 234.373 158.373 233.642 156.525C232.436 153.473 231.807 150.143 229.731 147.468C229.339 146.964 229.256 146.498 229.511 145.908C229.753 145.348 229.767 144.747 229.097 144.468C228.035 144.025 228.4 143.545 228.791 142.755C229.598 141.124 230.142 141.37 230.929 142.813C230.882 142.006 230.834 141.199 230.787 140.392Z" fill="#EEEEF0"/>
<path d="M226.685 22.6392C226.795 22.7461 226.905 22.853 227.015 22.96C227.272 24.213 226.31 24.9193 225.687 25.7166C219.028 34.2512 214.732 43.8862 212.245 54.3843C211.519 57.4473 211.01 60.5439 210.594 63.66C210.513 64.2716 210.548 64.9389 209.976 65.3792C209.3 67.0064 209.711 68.7124 209.651 70.3786C209.567 72.6946 209.648 75.0162 209.63 77.3353C209.626 77.8023 209.941 78.6309 208.871 78.286L208.873 78.2891C208.567 75.3612 208.648 72.4314 208.832 69.5012C209.801 52.2467 215.211 36.6542 226.119 23.1218C226.272 22.9321 226.495 22.7988 226.685 22.6392Z" fill="#CC6B5B"/>
<path d="M323.385 24.8468C319.637 19.9285 315.565 15.336 310.532 11.6656C304.365 7.16818 297.304 4.81905 290.035 2.94572C289.314 2.75991 288.582 2.61985 287.741 2.43339C289.065 1.57574 290.454 3.30713 291.62 2.1123C296.059 2.69327 300.013 4.63989 303.882 6.69909C311.944 10.9893 318.563 16.9493 323.735 24.5033C323.858 24.8632 323.692 24.9271 323.385 24.8468Z" fill="#E78A6C"/>
<path d="M470.128 192.763C468.644 192.739 467.325 190.686 468.142 189.801C468.99 188.882 468.866 188.194 468.27 187.333C468.041 187.003 467.912 186.588 468.302 186.339C468.759 186.047 469.184 186.312 469.389 186.738C470.369 188.764 471.571 188.314 472.955 187.171C473.384 186.817 474.03 186.214 474.601 186.829C475.114 187.382 474.186 187.809 474.173 188.288C474.109 190.681 471.122 190.581 470.607 192.57C470.572 192.703 470.179 192.744 470.128 192.763Z" fill="#EEEEF0"/>
<path d="M434.841 184.007C435.508 183.002 435.726 182.046 434.915 180.956C434.539 180.45 435.241 179.857 435.678 180.293C436.786 181.398 438.378 181.143 439.574 181.939C440.261 182.396 440.807 182.971 440.695 183.734C440.567 184.61 439.672 184.12 439.132 184.291C437.711 184.742 436.343 184.543 434.841 184.007Z" fill="#EEEEF0"/>
<path d="M323.385 24.8469C323.502 24.7324 323.619 24.6179 323.735 24.5034C326.558 27.9232 328.593 31.8253 330.475 35.8006C332.386 39.8379 333.935 44.0235 335.063 48.356C335.048 48.5432 335.107 48.8131 335.006 48.9042C334.41 49.4403 334.692 48.6885 334.669 48.61C333.154 43.3032 331.21 38.1538 328.606 33.2963C327.044 30.3836 325.137 27.657 323.385 24.8469Z" fill="#DEA390"/>
<path d="M460.682 193.954C459.101 195.417 456.728 195.731 455.033 194.807C454.723 194.638 454.222 194.563 454.243 194.125C454.27 193.58 454.848 193.449 455.223 193.44C457.006 193.396 458.83 193.035 460.682 193.954Z" fill="#EEEEF0"/>
<path d="M465.191 192.973C464.366 193.003 463.766 192.882 463.908 192.095C464.085 191.103 464.819 190.275 465.7 190.155C466.668 190.022 466.701 191.227 466.746 191.847C466.831 193.009 465.745 192.846 465.191 192.973Z" fill="#EEEEF0"/>
<path d="M208.832 69.501C208.846 72.4302 208.859 75.3595 208.873 78.2888C208.325 75.362 208.403 72.4323 208.832 69.501Z" fill="#E18F87"/>
<path d="M150.327 160.439C149.738 160.273 149.049 160.268 149.014 159.543C148.995 159.149 149.441 158.912 149.848 158.981C150.336 159.063 150.881 159.194 150.993 159.786C151.096 160.326 150.634 160.34 150.327 160.439Z" fill="#EEEEF0"/>
<path d="M338.079 79.4109C338.205 77.2555 337.765 75.0693 338.428 72.9429C338.278 75.0969 338.881 77.292 338.079 79.4109Z" fill="#EEEEF0"/>
<path d="M286.701 210.034C286.113 210.46 285.165 210.405 285.682 211.813C285.945 212.531 285.108 214.013 283.855 214.547C280.381 216.028 276.728 216.205 273.037 216.068C271.854 216.024 270.678 215.817 269.498 215.703C264.897 215.26 260.283 215.308 255.67 215.331C252.845 215.345 250.046 215.097 247.27 214.602C245.777 214.335 244.289 214.654 242.805 214.654C239.658 214.652 236.548 214.249 233.413 214.161C218.829 213.752 204.242 213.886 189.657 213.747C186.755 213.719 183.844 214.034 180.901 213.535C179.267 213.258 177.458 213.463 175.728 213.467C170.207 213.477 164.772 212.822 159.348 211.862C155.704 211.218 152.006 211.065 148.304 211.162C147.231 211.19 146.189 211.096 145.141 210.807C141.61 209.833 137.952 209.966 134.347 209.627C130.881 209.302 127.301 209.531 124.092 207.757C123.636 207.506 122.813 207.561 122.978 206.774C123.098 206.205 123.677 205.985 124.283 205.853C128.698 204.891 133.248 205.05 137.67 204.295C142.856 203.409 148.117 203.344 153.301 202.534C153.61 202.486 153.925 202.463 154.238 202.456C160.37 202.326 166.502 202.22 172.633 202.068C181.427 201.85 190.22 201.545 199.018 201.696C205.904 201.815 212.797 201.789 219.673 202.122C225.871 202.422 232.067 202.678 238.27 202.879C244.521 203.082 250.762 203.637 257.002 204.075C259.541 204.254 262.154 203.917 264.658 204.678C265.044 204.795 265.392 204.589 265.615 204.232C266.585 204.335 267.194 204.974 267.76 205.683C267.849 205.884 267.891 206.092 267.891 206.312C267.426 207.378 266.434 207.174 265.607 207.179C259.316 207.217 253.025 207.252 246.734 207.208C241.842 207.174 236.989 207.792 232.094 207.87C234.899 208.536 237.729 208.875 240.57 209.058C247.032 209.473 253.507 209.636 259.971 209.94C267.019 210.271 274.055 210.11 281.094 210.243C281.596 210.252 282.102 210.257 282.588 210.092C282.798 210.017 283.013 209.966 283.232 209.929C284.386 209.999 285.574 209.052 286.701 210.034Z" fill="#E3D9D9"/>
<path d="M250.788 177.511C250.322 174.792 248.67 172.6 247.472 170.221C244.931 165.177 242.139 160.261 239.591 155.221C236.136 148.385 232.725 141.524 229.455 134.599C224.42 123.938 218.863 113.503 215.169 102.246C213.167 96.1484 211.989 89.8979 211.494 83.496C211.298 80.9711 210.757 78.4731 210.374 75.9629C210.144 75.5943 210.181 75.2155 210.329 74.8334C210.514 74.7417 210.694 74.7536 210.867 74.8681C210.953 76.8906 212.765 77.251 214.024 78.147C214.815 79.1521 215.343 80.2823 215.688 81.5137C217.645 88.4916 219.429 95.5145 221.638 102.426C224.083 110.078 227.322 117.391 230.534 124.724C232.735 129.748 235.068 134.716 236.784 139.939C237.1 140.902 237.514 141.822 237.999 142.707C239.892 146.16 240.975 149.879 242.063 153.655C243.138 157.383 244.563 161.067 246.293 164.571C249.141 170.336 251.749 176.216 254.711 181.926C255.987 184.385 257.412 186.767 258.559 189.292C260.477 192.451 261.903 195.875 263.753 199.074C263.846 199.237 263.913 199.41 263.966 199.589C264.057 200.07 264.069 200.533 263.667 200.899C262.21 198.5 260.653 196.156 259.318 193.691C256.414 188.33 253.624 182.908 250.788 177.511Z" fill="#DB7268"/>
<path d="M289.358 208.882C289.226 208.958 289.094 209.035 288.962 209.111C286.693 208.847 284.689 207.782 282.609 206.963C280.951 206.311 279.983 204.887 279.113 203.411C276.371 198.757 274.406 193.717 271.952 188.92C271.555 188.142 271.247 187.314 270.825 186.542C265.269 174.755 259.479 163.074 254.323 151.104C249.664 140.289 245.383 129.317 241.325 118.258C237.973 109.125 235.304 99.8165 233.911 90.1762C233.354 86.3218 232.804 82.4497 232.992 78.5271C233.017 78.3242 233.069 78.1288 233.141 77.9375C233.364 77.4656 233.617 77.0249 234.213 76.9653C234.791 77.0587 235.041 77.4901 235.248 77.9689C235.538 82.3632 235.956 86.7435 236.696 91.0918C237.95 98.4608 240.312 105.499 242.942 112.462C247.775 125.257 253.457 137.683 259.006 150.174C264.297 162.086 269.711 173.947 274.8 185.952C276.52 190.009 278.062 194.145 279.994 198.11C280.492 199.132 281.028 200.132 281.748 201.016C284.269 204.112 287.208 204.515 290.535 202.224C291.021 201.927 291.425 201.339 292.121 201.754C292.926 203.935 291.802 205.632 290.688 207.306C290.311 207.872 289.696 208.265 289.358 208.882Z" fill="#E38345"/>
<path d="M271.211 186.547C273.089 190.365 275.053 194.143 276.812 198.014C277.855 200.311 279.065 202.492 280.439 204.586C281.297 205.895 282.628 206.565 284.093 207.079C285.749 207.661 287.342 208.426 288.962 209.111C288.588 209.261 288.214 209.412 287.84 209.562C284.703 210.083 281.885 209.201 279.018 207.944C276.112 206.671 272.937 206.058 270.053 204.648C269.171 204.217 268.14 203.946 267.222 204.736C265.178 203.879 264.714 201.857 263.871 200.122C263.772 199.917 263.853 199.625 263.656 199.431L263.649 199.421C263.132 198.29 262.955 197.157 263.623 196.018C266.302 194.639 266.01 192.552 265.457 190.006C264.425 185.25 263.175 180.592 261.301 176.104C260.863 175.056 260.493 173.984 260.358 172.849C260.305 172.4 260.328 171.927 260.796 171.699C261.255 171.475 261.662 171.719 261.985 172.032C262.758 172.784 263.378 173.652 263.807 174.648C264.529 176.326 265.4 177.931 266.211 179.566C266.915 180.986 267.734 182.315 269.049 183.275C270.167 184.091 270.379 185.529 271.211 186.547Z" fill="#CF4E40"/>
<path d="M289.358 208.882C289.606 207.576 290.869 206.884 291.245 205.586C291.624 204.279 292.111 203.031 291.988 201.642C291.577 201.136 291.878 200.673 292.127 200.257C293.416 198.101 294.328 195.727 295.76 193.663C298.732 189.379 300.28 184.435 302.342 179.73C302.588 179.168 302.601 178.471 303.318 178.223C303.792 177.961 304.084 178.051 304.116 178.64C301.237 186.055 298.591 193.563 295.351 200.834C293.958 203.96 292.132 206.78 289.358 208.882Z" fill="#F19873"/>
<path d="M267.039 204.687C266.989 203.733 267.527 203.473 268.348 203.616C268.9 203.712 269.502 203.762 269.977 204.023C273.405 205.908 277.352 206.401 280.827 208.093C282.647 208.979 284.432 209.429 286.415 209.266C286.905 209.225 287.427 209.163 287.839 209.562C287.46 209.719 287.08 209.877 286.701 210.034C285.565 210.122 284.43 210.21 283.294 210.299C280.382 210.323 277.613 209.597 274.876 208.695C273.75 208.324 272.642 207.852 271.413 207.99C270.93 208.008 270.482 207.874 270.048 207.679C269.036 207.268 268.209 206.595 267.447 205.83C267.409 205.731 267.385 205.629 267.375 205.523C267.202 205.269 267.033 205.013 267.039 204.687Z" fill="#98362D"/>
<path d="M267.039 204.688C267.337 204.891 267.468 205.162 267.375 205.524C266.572 205.389 266.28 204.555 265.615 204.232C264.966 203.121 264.316 202.011 263.666 200.9C263.663 200.41 263.659 199.921 263.656 199.431C264.774 201.189 265.615 203.127 267.039 204.688Z" fill="#D25C52"/>
<path d="M303.318 178.222C302.077 182.382 300.339 186.377 298.351 190.185C296.478 193.773 294.386 197.278 292.338 200.79C292.185 201.053 292.103 201.358 291.988 201.643C291.614 201.916 291.24 202.19 290.865 202.463C288.579 203.239 286.48 202.68 284.923 200.886C282.989 198.657 281.895 195.942 280.721 193.306C271.06 171.604 260.997 150.08 251.855 128.147C247.706 118.194 243.588 108.234 241.077 97.7082C239.537 91.2553 238.771 84.6871 238.599 78.0537C238.52 75.0291 239.263 72.1856 240.573 69.4772C242.454 66.407 244.32 63.3306 248.175 62.3626C250.207 61.8523 252.28 61.6074 254.344 61.2891C254.916 63.3152 254.035 65.2443 253.863 67.2114C253.306 73.5912 253.515 79.8828 254.913 86.1465C256.579 93.6091 259.39 100.549 264.042 106.653C265.792 108.949 267.829 111.006 270.061 112.848C270.543 113.246 271.117 113.527 271.761 113.605C274.112 114.673 276.258 116.131 278.615 117.196C286.064 120.564 293.409 120.079 300.693 116.681C301.207 116.441 301.707 116.174 302.217 115.93C303.535 115.463 304.564 114.459 305.856 113.939C308.422 112.82 310.221 110.758 311.987 108.728C318.891 100.795 322.576 91.4357 323.994 81.0872C324.224 79.4047 324.266 77.7049 324.56 76.0321C326.741 73.6268 329.205 71.693 332.494 71.0075C333.993 70.6949 334.828 71.5731 335.802 72.8575C336.203 71.3563 336.114 70.2441 335.698 69.1314C335.295 68.0554 335.3 67.0422 336.174 66.171C336.297 66.1698 336.42 66.1751 336.543 66.187C338.03 70.3382 337.846 74.7816 337.135 78.8334C335.583 87.6692 334.342 96.6308 331.307 105.146C327.875 114.775 324.329 124.358 320.416 133.808C316.843 142.437 313.621 151.212 310.204 159.906C308.224 164.946 306.16 169.953 304.645 175.162C304.331 176.241 303.236 176.975 303.318 178.222Z" fill="#FCCE69"/>
<path d="M254.215 61.2523C252.695 62.71 250.677 62.1962 248.891 62.5953C244.973 63.4704 242.987 66.5261 240.993 69.579C240.597 70.1211 240.219 70.6783 239.801 71.2025C239.473 71.6133 239.109 71.6869 238.808 71.1427C238.745 70.9633 238.654 70.7766 238.682 70.5935C239.155 67.5465 239.226 64.4732 239.308 61.3997C239.325 60.7743 239.358 60.1266 239.929 59.6916C240.869 59.8549 240.429 60.408 240.427 60.4489C242.181 55.8222 245.63 51.8251 249.238 47.9416C256.568 40.0526 264.728 33.189 274.142 27.9124C279.95 24.6572 286.006 22.3771 292.822 22.0214C298.675 21.716 304.326 22.2821 309.938 23.7752C310.625 24.0049 311.314 24.2344 311.968 24.552C313.011 25.1166 314.057 25.6775 315.188 26.0557C315.348 26.1163 315.498 26.1949 315.644 26.283C316.758 27.0494 317.874 27.8136 319.033 28.5138C323.249 31.5899 326.339 35.6383 328.981 40.0765C331.433 44.0324 332.896 48.3827 334.079 52.848C334.227 53.4088 334.311 53.9548 334.224 54.5262C334.399 57.0911 335.495 59.4591 335.812 61.9936C336.298 63.3529 335.669 64.8093 336.174 66.167L336.174 66.1709C335.322 68.3559 337.099 70.3792 336.566 72.5481C336.481 72.8923 336.672 73.3689 336.217 73.5247C335.795 73.6693 335.555 73.2723 335.293 73.0233C333.31 71.1343 332.611 71.0244 330.015 72.2804C328.096 73.2091 326.624 74.7565 324.944 76.0155C323.753 74.641 324.555 72.9913 324.318 71.4872C323.964 60.2709 320.632 50.1467 313.341 41.4768C313.058 41.1399 312.796 40.7873 312.529 40.4397C308.157 35.3054 302.793 31.7053 296.275 29.8926C283.89 26.673 273.813 30.5522 265.413 39.8333C263.017 42.4811 261.214 45.4835 259.485 48.5606C257.742 51.901 256.369 55.3846 255.36 59.0184C255.137 59.8207 255.206 60.8248 254.215 61.2523Z" fill="#FBB823"/>
<path d="M234.953 77.9027C234.699 77.6468 234.446 77.391 234.192 77.1351C233.684 74.366 234.401 71.6287 234.526 68.8862C234.784 63.2506 235.171 57.619 236.663 52.0929C239.796 40.495 244.79 29.8844 252.657 20.7615C258.527 13.9541 265.709 9.01618 274.322 6.2865C274.743 6.15323 275.149 5.99133 275.562 5.83363C280.748 4.81802 285.89 3.31988 291.263 4.43677C294.631 4.94554 297.498 6.82565 300.664 7.88495C301.176 8.83037 301.098 8.91154 299.524 9.07254C297.727 8.78707 296.014 8.16473 294.253 7.72744C291.416 7.11164 288.727 5.74179 285.656 6.37614C283.817 6.75591 281.897 6.36076 280.018 6.65664C272.787 7.79498 266.628 11.1869 260.958 15.6417C256.71 18.9799 253.392 23.1757 250.149 27.435C248.529 29.5636 247.639 32.0971 246.631 34.5254C244.899 38.6992 242.976 42.8293 242.523 47.4375C242.364 49.057 241.78 50.6357 241.264 52.1704C239.117 58.5551 238.48 65.1952 237.712 71.8179C237.529 73.3979 237.052 74.8906 236.546 76.3825C236.186 77.0683 236.032 77.9746 234.953 77.9027Z" fill="#F0961D"/>
<path d="M294.255 7.42412C296.108 7.41397 297.757 8.3051 299.536 8.62257C302.009 9.16599 304.351 10.0054 306.327 11.6633C316.894 18.043 324.588 26.9899 329.567 38.2362C331.615 42.8627 333.507 47.589 334.496 52.6035C334.629 53.2832 334.86 53.9615 334.224 54.5255C332.899 51.0453 332.204 47.3421 330.511 43.9915C329.864 42.71 329.226 41.4237 328.584 40.1395C323.65 30.4182 316.732 22.6465 307.044 17.3806C301.618 14.4317 296.294 11.3925 290.202 9.97581C287.888 9.43782 285.587 9.54699 283.271 9.49341C282.957 9.4861 282.638 9.51977 282.329 9.47569C281.624 9.37519 280.633 9.60283 280.54 8.55729C280.464 7.69751 281.299 7.51919 281.97 7.32633C282.211 7.25685 282.445 7.1632 282.693 7.10911C283.712 6.9401 284.743 6.85408 285.756 6.63317C287.301 6.58114 288.847 6.46306 290.383 6.74601C291.614 7.31108 293.031 6.81685 294.255 7.42412Z" fill="#FCF6F2"/>
<path d="M291.263 4.43712C285.869 4.27444 280.626 5.38338 275.366 6.3478C272.97 6.90595 270.493 7.1701 268.341 8.55623C267.747 8.93865 266.969 9.24753 266.277 8.58079C266.192 7.53003 267.114 7.31106 267.73 6.8748C269.661 5.50656 271.935 4.72356 273.848 3.31771C275.127 2.53846 276.53 3.01789 277.87 2.96166C280.056 2.86988 282.249 2.93458 284.439 2.93323L284.435 2.93303C285.68 3.26032 286.995 3.22975 288.215 3.68145C289.284 3.71694 290.301 3.96771 291.263 4.43712Z" fill="#FA762E"/>
<path d="M306.327 11.6638C304.064 10.6502 301.8 9.63655 299.536 8.62301C299.846 8.27549 301.003 9.22874 300.664 7.88525C302.646 9.00343 304.991 9.57393 306.327 11.6638Z" fill="#F2A056"/>
<path d="M288.215 3.68104C286.889 3.76694 285.641 3.45367 284.435 2.93262C285.741 2.94664 287.073 2.83205 288.215 3.68104Z" fill="#EB725A"/>
<path d="M336.174 66.1665C335.454 64.8275 335.936 63.384 335.812 61.9932C336.543 63.3311 336.072 64.7738 336.174 66.1665Z" fill="#FCCE69"/>
<path d="M210.402 74.8706C210.393 75.2349 210.383 75.5993 210.374 75.9632C209.643 74.1643 210.107 72.2811 210.007 70.4397C209.915 68.7574 209.98 67.0665 209.976 65.3794C211.38 50.9863 215.995 37.8076 224.717 26.1774C225.507 25.1234 226.25 24.0338 227.015 22.9603C229.486 20.1931 232.085 17.5693 235.126 15.4128C235.939 14.8364 236.728 14.265 237.922 13.8965C237.579 14.419 237.378 14.7236 237.178 15.0282C235.847 16.7866 234.134 18.1738 232.596 19.73C230.378 21.9754 228.309 24.336 226.491 26.9177C225.721 27.803 225.084 28.781 224.499 29.7969C219.348 37.2666 215.178 45.1999 212.988 54.0793C212.124 57.5816 211.517 61.112 211.659 64.7399C211.647 65.1668 211.593 65.5868 211.497 66.0023C211.225 68.2403 211.225 70.4989 210.935 72.7347C210.839 73.4751 210.971 74.255 210.402 74.8706Z" fill="#F5CBC3"/>
<path d="M273.848 3.31738C273.855 3.99465 273.4 4.28154 272.875 4.56986C270.675 5.77852 268.492 7.01672 266.303 8.24413C266.069 8.8958 265.481 9.16699 264.956 9.50682C256.043 15.2682 249.253 22.8601 244.339 32.3422C239.921 40.8687 236.798 49.7469 235.212 59.1893C234.984 60.5495 234.78 61.9231 234.653 63.304C234.601 63.8707 234.734 64.6537 233.782 64.6981C233.003 63.5425 233.335 62.2606 233.417 61.0284C233.801 55.2525 235.3 49.7252 237.237 44.3041C239.636 37.5914 242.176 30.9353 245.66 24.6933C247.939 20.6095 250.749 16.8882 253.655 13.2388C254.121 12.6536 254.659 12.1188 255.013 11.3833C254.374 11.4529 253.912 12.0063 253.268 11.8719C252.971 11.8006 252.757 11.6208 252.603 11.3625C252.255 9.20894 254.138 8.82147 255.339 7.89428C260.442 5.96233 265.676 4.51803 271.045 3.53939C271.99 3.36728 272.912 3.36372 273.848 3.31738Z" fill="#EB5932"/>
<path d="M255.339 7.89453C254.539 9.08174 252.853 9.57151 252.695 11.2652C252.073 12.1508 251.065 12.4151 250.149 12.785C246.403 14.2981 242.939 16.3208 239.535 18.4778C235.714 20.8999 231.867 23.2785 228.395 26.2037C227.755 26.5173 227.278 27.1113 226.556 27.2841C226.265 27.2084 226.072 27.0638 226.169 26.7203C229.235 22.2514 232.854 18.3065 237.178 15.0282C239.154 14.5196 240.505 12.9037 242.414 12.1775C245.512 10.9993 248.467 9.50552 251.872 9.28836C253.105 9.20977 254.055 8.05772 255.339 7.89453Z" fill="#DB533E"/>
<path d="M267.447 205.831C268.469 206.096 269.229 206.829 270.117 207.333C269.917 208.85 268.28 208.48 267.421 209.323C270.868 209.878 274.211 210.016 277.575 209.825C279.36 210.044 281.198 209.77 282.929 210.435C282.47 210.903 281.875 210.774 281.324 210.774C275.166 210.783 268.988 211.088 262.855 210.695C256.428 210.284 249.986 210.493 243.559 209.808C239.553 209.381 235.515 209.175 231.522 208.558C231.008 208.478 230.189 208.569 230.278 207.775C230.353 207.107 231.116 207.501 231.552 207.354C232.953 206.881 234.404 207.06 235.839 206.986C245.989 206.462 256.147 206.662 266.302 206.588C266.739 206.585 267.762 207.118 267.447 205.831Z" fill="#D6B8B3"/>
<path d="M282.929 210.435C281.045 210.411 279.161 210.388 277.277 210.364C275.51 210.111 273.721 210.18 271.952 209.977C271.237 209.895 270.631 209.567 270.359 208.869C270.065 208.111 270.697 207.935 271.198 207.704C271.533 207.334 272.011 207.266 272.403 207.409C275.947 208.706 279.656 209.364 283.294 210.299C283.173 210.344 283.051 210.389 282.929 210.435Z" fill="#542C28"/>
<path d="M258.367 189.58C257.41 187.914 256.369 186.291 255.511 184.575C251.518 176.595 247.345 168.692 244.057 160.385C242.983 157.672 241.657 155.037 241.123 152.085C240.586 149.112 239.37 146.332 237.933 143.654C235.699 139.489 234.507 134.89 232.59 130.58C229.503 123.641 226.162 116.796 223.628 109.627C221.33 103.129 219.116 96.603 217.467 89.8793C216.505 85.9593 215.684 81.9281 213.798 78.2729C215.586 77.419 217.43 78.4058 219.234 78.1015C220.185 78.0881 221.087 78.4197 222.026 78.505C224.798 78.7567 224.84 78.7917 225.324 81.593C225.991 85.4555 226.735 89.2546 229.158 92.5405C230.346 94.1518 230.59 96.1597 230.069 98.154C229.779 99.2648 230.135 100.271 230.397 101.305C232.718 110.476 235.749 119.427 238.774 128.379C239.501 130.531 240.413 132.614 241.383 134.663C243.839 139.851 246.062 145.131 247.772 150.613C248.902 154.233 250.973 157.461 251.973 161.135C252.866 164.415 253.978 167.638 254.836 170.925C255.37 172.972 255.005 175.149 255.339 177.285C255.871 180.683 256.812 183.913 258.069 187.085C258.381 187.871 258.95 188.669 258.367 189.58Z" fill="#D76459"/>
<path d="M258.367 189.581C258.029 188.636 257.76 187.66 257.341 186.754C255.525 182.823 254.579 178.56 254.409 174.377C254.15 168.004 251.83 162.325 249.649 156.603C246.163 147.453 242.342 138.425 238.695 129.34C235.456 121.275 232.748 112.939 230.751 104.415C230.092 101.603 228.97 98.9201 229.647 95.9335C229.964 94.5327 229.266 93.2324 228.456 92.2524C225.813 89.0567 225.435 85.1415 224.797 81.3279C224.523 79.6919 224.092 78.7919 222.237 78.9941C221.334 79.0925 220.386 78.7792 219.459 78.6522C219.488 77.8485 220.152 77.8112 220.662 77.793C222.092 77.742 223.487 77.3666 224.92 77.3951C226.464 77.5312 227.253 78.4793 227.575 79.9105C228.21 82.7341 229.218 85.4701 229.498 88.3783C229.663 90.094 230.612 91.5706 231.062 93.2167C232.441 98.2608 233.068 103.486 234.583 108.475C236.285 114.08 237.488 119.816 239.268 125.394C240.459 129.126 242.15 132.629 243.864 136.144C245.316 139.123 246.684 142.167 247.638 145.384C249.056 150.163 251.281 154.624 253.384 159.127C256.342 165.46 258.847 171.988 261.437 178.473C263.291 183.117 263.536 188.157 264.167 193.079C264.291 194.043 264.73 195.065 264.037 196.011C263.403 197.09 263.749 198.281 263.649 199.421C262.354 197.957 261.685 196.131 260.796 194.434C259.957 192.831 259.174 191.199 258.367 189.581Z" fill="#D25C52"/>
<path d="M225.124 77.896C223.237 78.1601 221.302 78.0604 219.459 78.6524C217.558 78.7335 215.671 78.6111 213.798 78.2734C213.569 78.1707 213.346 77.9966 213.11 77.9765C211.156 77.8109 210.429 76.7376 210.753 74.856C210.434 73.2688 210.492 71.6998 210.979 70.152C211.204 69.4416 211.705 69.1936 212.412 69.2876C213.204 69.5188 213.499 70.31 214.082 70.7763C216.074 71.8405 217.111 74.0808 219.316 74.9343C220.547 75.411 221.868 75.5798 223.057 76.1992C223.658 76.5125 224.272 76.068 224.816 75.7517C225.525 75.3395 226.211 74.8649 227.093 74.9987C227.979 75.133 228.514 74.7315 228.876 73.948C229.044 73.5837 229.219 73.0535 229.834 73.4243C230.559 74.8073 230.989 76.2615 230.905 77.8403C230.676 78.1058 230.347 78.2257 230.06 78.0816C228.436 77.2664 226.774 77.8009 225.124 77.896Z" fill="#CD4637"/>
<path d="M211.147 69.9448C210.813 71.5656 210.76 73.2091 210.753 74.8562C210.636 74.8652 210.519 74.87 210.402 74.8706C210.382 71.8103 210.618 68.7707 211.132 65.7534C211.79 66.3893 211.688 67.2101 211.682 68.0083C211.698 68.7072 211.561 69.3647 211.147 69.9448Z" fill="#E18F87"/>
<path d="M225.124 77.8958C227.01 76.8345 228.898 76.8647 230.787 77.8896C231.79 77.1552 232.64 77.4383 233.407 78.2834C233.624 88.1894 235.409 97.8325 238.259 107.296C242.521 121.451 248.241 135.057 253.864 148.696C257.071 156.478 260.846 164.009 264.311 171.677C266.562 176.658 269.436 181.348 271.211 186.548C267.874 183.214 265.089 179.492 263.44 175.032C263.075 174.043 262.326 173.384 261.857 172.507C261.694 172.202 261.386 171.811 260.964 171.989C260.489 172.189 260.755 172.604 260.831 172.958C261.109 174.251 261.549 175.481 262.084 176.691C264.379 181.877 265.353 187.437 266.599 192.918C266.836 193.957 266.576 194.77 265.511 195.222C265 195.44 264.527 195.745 264.036 196.011C263.3 190.375 263.143 184.555 261.153 179.241C259.357 174.444 257.474 169.642 255.385 164.937C252.713 158.917 249.484 153.104 247.545 146.807C245.74 140.946 242.738 135.667 240.413 130.068C238.801 126.185 237.659 122.154 236.771 118.024C235.982 114.357 234.593 110.824 233.71 107.172C232.563 102.434 231.889 97.5672 230.371 92.9349C228.905 88.4616 228.257 83.8063 226.926 79.3149C226.663 78.4282 226.024 77.987 225.124 77.8958Z" fill="#D65A4B"/>
<path d="M234.953 77.9027C235.629 77.6128 235.779 76.9345 236.082 76.3691C236.917 75.1876 237.348 73.7989 238.04 72.5452C238.287 72.0983 238.303 71.3819 239.098 71.451C239.753 70.8507 240.115 69.9529 240.993 69.5786C238.299 75.1775 239.163 80.9968 239.798 86.8466C240.443 92.791 241.633 98.5932 243.392 104.301C245.299 110.491 247.632 116.521 250.052 122.516C255.482 135.965 261.448 149.18 267.442 162.384C272.108 172.663 276.618 183.012 281.221 193.319C281.936 194.922 282.799 196.457 283.554 198.043C285.027 201.133 287.382 202.728 290.865 202.463C287.388 205.66 283.549 204.322 281.063 200.952C278.948 198.085 277.97 194.638 276.551 191.421C273.812 185.209 271.264 178.911 268.445 172.737C265.206 165.642 262.214 158.442 259.043 151.32C256.511 145.631 253.851 140 251.339 134.299C248.016 126.76 244.936 119.128 242.02 111.425C239.927 105.895 238.037 100.298 236.851 94.4987C235.733 89.0297 234.81 83.5235 234.953 77.9027Z" fill="#F2AD47"/>
<path d="M233.407 78.2835C232.552 78.0321 231.694 77.7965 230.787 77.8897C230.409 76.3742 230.032 74.8588 229.655 73.3434C229.095 72.7865 229.123 72.0755 229.223 71.3933C230.545 62.3667 231.603 53.294 234.204 44.5001C235.228 41.0381 236.823 37.8299 238.253 34.5447C238.629 33.6784 239.168 32.8392 239.208 31.894C239.429 26.6421 242.545 22.7835 245.437 18.8341C246.435 17.4714 247.52 16.1484 248.805 15.0239C250.289 13.9856 251.065 12.0544 253.043 11.6344C254.144 11.5776 254.771 10.3871 256.108 10.4247C255.507 12.3254 254.035 13.5447 252.93 14.9599C248.897 20.1259 245.306 25.5417 242.745 31.6093C239.835 38.5036 237.025 45.4323 235.219 52.7189C234.25 56.6303 233.771 60.6065 233.819 64.6414C234.431 65.2298 234.453 66.0194 234.355 66.7434C233.927 69.9112 234.088 73.1043 233.867 76.2791C233.828 76.8352 233.697 77.3858 233.432 77.8902C233.424 78.0213 233.415 78.1524 233.407 78.2835Z" fill="#DE4C2A"/>
<path d="M233.432 77.8904C233.097 73.4605 233.718 69.0588 233.819 64.6417C234.549 62.5025 234.505 60.2338 234.914 58.0373C236.168 51.2965 238.007 44.7489 240.819 38.484C243.09 33.4253 245.646 28.5209 248.824 23.9766C253.432 17.3898 259.355 12.2367 266.303 8.24431C267.031 9.03695 267.887 8.42515 268.306 8.08086C270.417 6.34882 272.95 6.64425 275.366 6.34766C270.138 8.02883 265.313 10.5069 260.898 13.7722C255.112 18.0507 250.543 23.4521 246.823 29.5598C244.535 33.3154 242.324 37.1374 240.749 41.2756C238.648 46.7992 236.722 52.4138 235.852 58.2502C235.217 62.5087 234.978 66.8596 234.924 71.1978C234.899 73.1893 234.735 75.1935 234.192 77.1354C233.939 77.3871 233.685 77.6387 233.432 77.8904Z" fill="#F07323"/>
<path d="M271.198 207.704C269.975 209.074 271.17 209.37 272.114 209.562C273.819 209.909 275.554 210.105 277.277 210.364C273.884 210.68 270.523 210.092 267.144 209.994C266.703 209.981 266.173 209.929 266.127 209.382C266.074 208.755 266.739 208.87 267.09 208.698C268.082 208.209 269.328 208.283 270.117 207.333C270.477 207.456 270.838 207.58 271.198 207.704Z" fill="#977874"/>
<path d="M254.215 61.2523C255.206 57.5031 256.41 53.8287 258.034 50.3018C258.344 49.6268 258.538 48.8835 259.124 48.3627C259.827 49.3102 259.282 50.1973 258.897 51.0132C256.811 55.4375 255.885 60.1544 255.013 64.9314C254.538 67.5256 254.967 70.0298 254.818 71.6713C254.07 65.2379 256.14 58.4876 259.066 51.9172C259.447 51.0625 259.782 50.1638 260.511 49.5128C261.43 49.2546 262.07 48.6274 262.761 47.9928C263.466 47.345 263.979 46.1857 265.291 46.543C265.38 46.7185 265.417 46.9027 265.405 47.0988C264.215 49.5946 262.542 51.8132 261.4 54.348C259.305 58.9987 258.211 63.856 257.704 68.9201C257.114 74.8283 257.519 80.6471 259.147 86.309C261.608 94.8672 266.065 102.068 274.007 106.675C275.574 107.584 277.452 107.853 278.842 109.1C277.37 110.454 275.951 109.377 274.583 108.925C271.496 107.907 268.931 106.069 266.889 103.531C265.913 102.318 265.857 103.361 265.621 104.013C264.347 104.171 264.22 103.035 263.716 102.322C263.556 101.886 263.421 101.446 263.535 100.973C263.629 100.742 263.838 100.538 263.843 100.292C263.864 99.1116 261.461 95.8127 260.284 95.3751C257.996 91.9703 256.868 88.1066 255.943 84.1759C255.685 83.0818 255.475 81.9638 255.34 80.84C256.354 89.5968 256.354 89.5968 260.506 98.8236C262.375 102.669 264.7 106.213 267.454 109.483C268.307 110.494 269.232 111.406 270.277 112.213C270.86 112.664 271.513 113.1 271.579 113.955C269.454 113.909 268.409 112.152 267.165 110.915C259.121 102.916 255.295 92.8283 253.562 81.8854C252.535 75.4018 252.718 68.8481 254.118 62.3802C254.197 62.0144 254.185 61.6288 254.215 61.2523Z" fill="#F37443"/>
<path d="M271.579 113.955C266.565 109.957 262.922 104.905 260.228 99.1246C260.053 98.5945 259.714 97.8972 260.353 97.6231C260.98 97.3547 261.241 98.1199 261.577 98.5541C262.462 99.6987 263.252 100.907 264.006 102.14C264.516 102.775 265.026 103.41 265.535 104.045C266.309 104.166 266.629 104.833 267.08 105.339C270.865 109.585 275.216 112.957 280.769 114.616C287.282 116.562 293.531 115.813 299.639 113.061C300.603 112.627 301.484 111.959 302.616 111.979C304.549 113.037 304.538 114.216 302.578 116.179C293.032 121.609 283.616 121.203 274.313 115.554C273.411 115.006 272.491 114.487 271.579 113.955Z" fill="#FBEFF0"/>
<path d="M302.578 116.179C302.92 115.449 303.372 114.747 303.574 113.98C303.785 113.18 303.442 112.521 302.528 112.33C303.237 110.694 304.891 110.046 306.108 108.953C309.195 106.182 312.024 103.217 314.058 99.5605C317.148 94.8069 318.844 89.5578 319.593 83.9705C319.978 82.8244 319.71 81.5809 320.146 80.4352C320.626 79.1743 321.415 78.9694 322.347 79.957C323.333 81.0022 323.166 82.3102 322.964 83.5458C322.252 87.9083 321.239 92.1925 319.555 96.3015C316.851 102.897 312.791 108.498 307.41 113.146C306.938 113.554 306.481 113.996 305.888 114.243C304.803 114.919 303.895 115.901 302.578 116.179Z" fill="#F7D9D4"/>
<path d="M305.888 114.243C310.169 109.986 314.374 105.681 317.2 100.23C320.01 94.8105 321.667 89.0451 322.522 83.0346C322.856 80.6896 322.616 80.3756 320.854 79.6615C320.166 81.041 320.601 82.6466 319.98 84.0374C319.199 83.2937 319.301 82.3197 319.44 81.4251C319.765 79.3312 319.724 77.2316 319.717 75.1305C319.68 73.0854 319.526 71.0315 320.07 69.0211C321.055 68.4619 321.032 69.3362 321.121 69.8426C321.293 70.8232 321.324 71.8316 321.801 72.7376C322.07 73.2477 322.396 73.7403 323.046 73.7189C323.787 73.6945 323.833 73.0746 323.974 72.5218C324.112 71.981 323.872 71.1826 324.812 71.1108C324.856 72.7457 324.899 74.3806 324.943 76.0153C324.45 85.7885 321.94 94.9681 316.684 103.271C314.092 107.366 311.095 111.159 306.99 113.892C306.685 114.095 306.426 114.686 305.888 114.243Z" fill="#DF5336"/>
<path d="M282.541 7.46871C282.453 7.55622 282.377 7.66247 282.275 7.72807C281.802 8.03177 280.721 7.71902 280.911 8.61371C281.068 9.34972 282.008 9.01074 282.574 8.97499C286.831 8.70607 290.995 9.21736 294.926 10.8454C303.944 14.5806 312.615 18.9707 319.446 26.1769C322.366 29.2568 325.014 32.6288 327.214 36.2858C327.903 37.4301 328.14 38.8468 328.584 40.1392C326.558 37.1586 324.619 34.1077 321.949 31.6342C320.902 30.6646 319.818 29.7355 318.751 28.7879C317.84 27.7157 316.611 27.0867 315.426 26.3966L315.386 26.433C314.786 26.0372 313.997 25.9742 313.518 25.3661C309.255 23.0764 304.695 21.7817 299.905 21.2273C296.415 20.8232 292.91 20.4982 289.403 20.5466C285.285 20.6033 281.219 21.3526 277.489 23.1106C265.791 28.6238 256.157 36.5791 249.283 47.6824C246.557 51.2949 243.619 54.7509 241.247 58.7126C240.303 58.0395 240.577 57.1138 240.515 56.2878C242.977 43.9606 247.757 32.7069 255.908 23.0255C262.323 15.4063 270.13 9.90929 279.851 7.37234C280.735 7.14174 281.672 6.7122 282.541 7.46871Z" fill="#FDEEE3"/>
<path d="M282.541 7.469C277.291 8.0086 272.623 10.1454 268.22 12.8849C258.323 19.0424 251.622 27.9345 246.787 38.3822C244.13 44.1218 242.154 50.085 240.962 56.3039C240.342 57.3606 241.2 58.7684 240.155 59.7243C239.818 61.1517 239.497 62.5515 239.797 64.0638C240.155 65.8661 239.513 67.6388 239.306 69.4204C239.228 70.0952 239.12 70.7688 239.098 71.4515C238.098 73.0943 237.691 75.1026 236.081 76.3696C237.715 72.0255 237.58 67.3785 238.278 62.8808C239.05 57.8989 240.696 53.1682 241.748 48.2864C242.584 44.41 243.631 40.6601 245.065 36.9626C247.243 31.3511 250.071 26.2621 254.074 21.6752C258.577 16.514 263.769 12.3944 269.817 9.37419C274.27 7.15011 279.027 6.09805 284.092 5.82402C287.365 5.64693 290.37 6.45184 293.502 6.73402C293.946 6.77403 294.182 6.99933 294.255 7.42454C292.961 7.42854 291.649 7.66742 290.401 7.10907C288.765 6.77131 287.125 6.82844 285.483 7.0681C284.563 7.64809 283.531 7.4045 282.541 7.469Z" fill="#F6A41D"/>
<path d="M261.001 49.4914C258.306 54.2242 256.656 59.2767 255.6 64.6456C255.039 67.4997 255.629 70.2002 255.427 72.9615C255.395 73.4012 255.615 73.9211 254.984 73.9647C254.453 74.0013 254.235 73.5223 254.24 73.0529C254.264 70.7876 254.094 68.5235 254.36 66.2565C255.028 60.5536 256.336 55.0342 258.793 49.8172C258.999 49.3779 259.018 48.8495 259.124 48.3624C263.229 40.0582 269.258 33.7642 277.939 30.2201C284.054 27.7231 290.256 27.6654 296.537 29.4825C297.742 30.8339 297.478 31.8379 295.581 32.029C292.903 32.2989 290.277 32.9948 287.569 32.993C286.758 32.9924 285.937 32.9121 285.14 33.1399C275.38 34.3495 268.114 39.4785 262.673 47.4901C262.185 48.208 261.838 49.0607 261.001 49.4914Z" fill="#F08466"/>
<path d="M324.812 71.111C324.309 71.551 324.461 72.1499 324.486 72.6842C324.527 73.5231 324.323 74.1614 323.443 74.404C322.49 74.667 321.888 74.1704 321.484 73.3945C320.901 72.2782 320.587 71.0905 320.688 69.8125C320.718 69.4338 320.658 69.0662 320.317 68.8151C319.253 66.8815 319.416 64.6697 318.967 62.5997C316.764 52.4553 311.494 44.4283 303.005 38.4661C301.766 37.596 300.157 37.0898 299.46 35.5335C300.146 34.8115 300.964 35.1021 301.737 35.2774C304.903 35.9951 307.626 37.604 310.178 39.5509C310.95 40.1393 311.691 41.0162 312.762 40.0283C318.726 46.4778 322.175 54.177 323.868 62.7157C324.415 65.4781 324.996 68.2569 324.812 71.111Z" fill="#E36146"/>
<path d="M248.912 47.5974C250.423 44.7758 252.217 42.1166 254.356 39.7699C258.332 35.4096 262.605 31.345 267.557 28.0736C273.734 23.9931 280.22 20.5812 287.753 20.0539C290.951 19.8299 294.204 20.1334 297.414 20.4101C302.547 20.8526 307.545 21.9402 312.251 24.1448C312.867 24.4337 313.597 24.5386 313.863 25.3059C313.144 25.6262 312.621 25.0385 311.999 24.9046C311.358 24.671 310.717 24.4374 310.076 24.2039C304.976 22.2238 299.649 21.9315 294.25 21.8922C281.773 21.8014 271.975 28.0233 262.596 35.2292C258.25 38.5688 254.459 42.5235 250.727 46.5291C250.256 47.0355 249.873 47.8577 248.912 47.5974Z" fill="#FBDEB4"/>
<path d="M248.912 47.5974C250.717 46.2183 252.079 44.4105 253.63 42.7822C258.707 37.4552 264.337 32.7972 270.634 28.938C274.453 26.5979 278.417 24.6405 282.622 23.1282C284.995 22.2753 287.465 21.7305 289.924 21.5898C296.438 21.217 302.948 21.3314 309.223 23.5315C309.567 23.6521 309.947 23.7831 310.077 24.2034C306.127 23.2031 302.115 22.6288 298.055 22.3217C295.032 22.0931 292.003 22.3723 289.077 22.859C279.075 24.5229 270.896 30.0082 262.988 35.9641C259.473 38.6116 256.246 41.5725 253.125 44.6743C248.134 49.6361 243.295 54.6931 240.466 61.3619C239.986 60.8243 240.317 60.2302 240.155 59.724C240.436 58.5867 240.19 57.3243 240.963 56.3036C240.963 56.9278 240.963 57.552 240.963 58.5777C243.557 54.5633 246.295 51.126 248.912 47.5974Z" fill="#FBCF7A"/>
<path d="M312.762 40.0284C312.797 41.5887 312.116 41.6155 311.076 40.8055C309.1 39.266 307.064 37.8261 304.769 36.7896C303.104 36.0375 301.396 35.4701 299.54 35.4992C298.918 35.9629 298.329 35.6309 297.765 35.3857C294.362 33.9047 290.832 33.1553 287.105 33.381C286.311 33.429 285.447 33.5158 284.8 32.8311C286.79 31.9843 288.981 32.882 290.988 32.1026C292.464 31.5292 294.061 31.8474 295.582 31.5826C296.894 31.3541 297.499 30.7668 296.536 29.4824C303.018 31.3391 308.427 34.8543 312.762 40.0284Z" fill="#EA7053"/>
<path d="M315.426 26.397C316.944 26.6221 318.058 27.411 318.751 28.7878C317.601 28.0491 316.308 27.5099 315.426 26.397Z" fill="#FBDEB4"/>
<path d="M311.999 24.9048C312.621 25.0384 313.242 25.172 313.863 25.3058C314.371 25.6818 314.878 26.0575 315.386 26.4332C314.084 26.3096 313.015 25.6662 311.999 24.9048Z" fill="#FBCF7A"/>
<path d="M285.483 7.06787C287.127 6.65061 288.766 6.6278 290.402 7.10891C288.762 7.09521 287.123 7.0815 285.483 7.06787Z" fill="#FDEEE3"/>
<path d="M253.043 11.6346C251.793 12.7728 250.543 13.9109 249.292 15.0491C247.705 15.1979 246.561 16.0703 245.417 17.1368C242.938 19.449 239.949 21.129 237.465 23.4706C236.094 24.7634 234.64 25.9835 233.397 27.3941C231.973 29.0096 230.588 30.6177 228.554 31.4929C228.205 31.6429 227.962 31.9513 227.76 32.2793C223.863 38.6046 220.173 45.0223 217.629 52.0595C216.34 55.6279 216.18 59.3191 215.817 63.0017C215.613 65.0642 215.352 67.1235 215.36 69.2093C215.364 70.1495 215.133 71.1524 213.792 71.0883C213.106 70.8185 212.977 70.127 212.656 69.581C212.088 69.1551 211.554 68.6969 211.183 68.0772C211.166 67.3027 211.149 66.5283 211.132 65.7536C211.142 65.3855 211.151 65.0177 211.161 64.6499C211.755 63.5798 211.945 62.3784 212.084 61.2063C213.186 51.9724 216.961 43.6562 221.01 35.4724C222.42 32.6216 224.327 29.9716 226.7 27.747C227.251 27.23 227.735 26.6499 228.117 25.9908C235.577 19.8541 243.663 14.7662 252.696 11.2651C252.811 11.3883 252.927 11.5114 253.043 11.6346Z" fill="#E37C6D"/>
<path d="M228.117 25.9907C228.574 26.6474 228.043 27.0625 227.682 27.4184C224.248 30.7992 221.825 34.8219 219.739 39.1507C217.014 44.8062 214.965 50.6879 213.272 56.7024C212.718 58.6681 212.613 60.7591 212.28 62.789C212.156 63.546 211.903 64.2534 211.161 64.6498C210.882 57.9498 213.014 51.7634 215.207 45.5909C217.202 39.9748 220.582 35.1162 223.673 30.1012C223.832 29.8441 224.101 29.6555 224.318 29.435C225.098 28.6786 225.56 27.6044 226.617 27.1254C226.975 26.5584 227.385 26.0615 228.117 25.9907Z" fill="#E18F87"/>
<path d="M226.617 27.1254C226.06 28.104 225.277 28.8565 224.319 29.4349C224.698 28.3673 225.31 27.4591 226.17 26.7202C226.319 26.8551 226.468 26.9902 226.617 27.1254Z" fill="#E37C6D"/>
<path d="M213.792 71.0881C214.506 70.7031 214.95 70.1678 214.934 69.2937C214.873 66.0893 215.502 62.9269 215.619 59.7483C215.758 55.9546 216.794 52.4351 218.238 49.0414C220.475 43.7801 223.102 38.7137 226.221 33.8899C227.3 32.2223 228.312 30.7497 230.156 29.9641C231.199 29.5198 231.644 28.479 232.37 27.7157C235.79 24.1219 239.453 20.808 243.61 18.06C244.59 17.4119 245.373 16.4645 246.249 15.6573C247.14 14.8367 248.093 14.3187 249.293 15.0489C246.125 18.7059 243.001 22.388 240.945 26.843C240.304 28.2325 239.824 29.6002 239.832 31.1748C239.844 33.5377 238.449 35.4865 237.474 37.48C234.534 43.4895 233.236 49.9498 231.98 56.4118C231.024 61.3244 230.435 66.309 229.71 71.2655C229.611 71.9462 229.669 72.6502 229.655 73.3433C229.122 74.8101 228.553 76.2104 226.519 75.3772C226.396 75.3265 226.141 75.4628 226.012 75.5821C223.43 77.9632 221.168 75.7976 218.757 75.1486C216.44 74.5251 215.787 72.0138 213.792 71.0881Z" fill="#D86A5C"/>
<path d="M211.183 68.0771C211.973 68.2838 212.481 68.7688 212.656 69.5808C212.106 69.5042 211.621 69.6999 211.147 69.9447C211.159 69.3222 211.171 68.6997 211.183 68.0771Z" fill="#D86A5C"/>
<path d="M278.829 109.285C268.141 105.731 262.004 97.7891 258.987 87.4564C255.298 74.8215 256.215 62.4102 262.735 50.7078C263.468 49.3935 264.385 48.1831 265.217 46.9246C266.519 44.5052 268.601 42.8994 270.868 41.4846C271.516 41.2384 272.125 40.905 272.761 40.6338C275.147 39.6173 277.368 38.958 279.75 41.0212C281.129 42.2156 283.012 42.8756 284.584 43.9236C291.773 49.3757 295.552 56.8541 297.395 65.5024C297.711 66.9838 297.659 68.513 298.092 69.9724C298.362 72.5701 298.106 75.1723 298.185 77.7694C298.182 78.18 298.234 78.5861 298.315 78.9889C298.348 79.2899 298.314 79.5835 298.206 79.8667C297.183 82.1157 297.028 84.6014 296.269 86.9356C294.196 93.3129 290.812 98.7794 285.706 103.146C283.567 104.653 281.464 106.222 279.037 107.159C280.299 107.466 281.635 107.745 282.862 108.365C283.187 108.529 283.613 108.678 283.622 109.103C283.634 109.652 283.119 109.793 282.723 109.902C281.344 110.281 280.023 110.149 278.829 109.285Z" fill="#FCFCFD"/>
<path d="M278.829 109.286C280.309 109.263 281.805 109.998 283.278 109.177C281.808 108.083 279.882 108.146 278.13 107.16C280.811 105.908 283.153 104.375 285.476 102.813C285.813 102.671 285.956 102.868 286.055 103.144C286.036 103.569 285.706 103.854 285.464 104.195C286.686 104.484 287.157 102.851 288.333 103.275C288.86 104.561 289.944 105.071 291.179 105.501C292.982 106.129 293.11 106.464 292.435 108.199C291.983 109.361 292.763 109.215 293.365 109.098C295.217 108.737 297.035 108.266 298.655 107.217C300.817 105.817 303.027 104.494 305.107 102.967C305.587 102.615 306.214 102.069 306.748 102.695C307.189 103.213 306.604 103.735 306.302 104.191C305.991 104.661 305.647 105.11 305.09 105.757C307.659 104.478 309.654 102.914 311.484 101.085C312.224 100.347 312.921 99.198 314.317 99.8803C311.831 104.607 308.042 108.14 303.87 111.321C303.425 111.66 302.976 111.994 302.528 112.33C298.58 114.321 294.497 115.943 290.036 116.186C279.616 116.756 271.686 112.18 265.535 104.046C265.484 103.803 265.464 103.548 265.376 103.319C265.186 102.821 265.024 102.286 265.635 102.033C266.091 101.843 266.402 102.244 266.711 102.58C267.682 103.64 268.59 104.793 269.704 105.682C272.359 107.802 275.347 109.206 278.829 109.286Z" fill="#F35C39"/>
<path d="M297.678 78.2772C297.664 75.3836 297.649 72.49 297.635 69.5965C297.218 64.0873 295.747 58.8984 293.144 54.0066C291.981 51.8203 290.479 49.8952 289.052 47.9043C288.796 47.5462 288.495 47.2187 288.29 46.8252C287.519 45.3384 287.984 44.3698 289.633 44.1319C290.564 43.9975 291.526 44.0489 292.424 43.7119C294.034 43.1082 294.371 41.7522 292.931 40.9331C289.93 39.2261 286.786 37.8047 283.156 38.1177C280.443 38.3517 277.836 39.0167 275.253 39.8188C273.741 40.4352 272.188 40.9677 270.849 41.9469C268.631 43.2194 267.093 45.2631 265.217 46.9243C265.192 46.7702 265.167 46.6159 265.142 46.4617C266.225 44.0326 267.857 41.9839 269.845 40.2877C275.028 35.8665 281.042 33.9229 287.847 34.6514C290.186 34.9019 292.393 35.6027 294.358 36.9538C295.834 38.0938 297.472 38.9655 299.078 39.9031C300.684 40.8405 302.524 41.646 302.969 43.7941C301.036 44.5832 301.036 44.5832 301.6 46.7232C302.077 48.5307 301.352 49.7054 299.439 50.2215C295.488 51.2877 295.182 51.6612 296.701 55.6207C298.651 60.7016 299.502 65.8973 299.356 71.3257C299.292 73.6835 298.627 75.8888 298.217 78.1617C298.069 78.3516 297.889 78.3896 297.678 78.2772Z" fill="#E3887F"/>
<path d="M294.244 37.4105C289.748 34.5782 284.828 34.4428 279.917 35.6238C274.889 36.8331 270.521 39.3376 267.453 43.7353C266.774 44.7082 265.917 45.5564 265.142 46.4618C264.194 47.2501 263.242 48.0251 262.432 48.9753C262.117 49.3452 261.802 50.2555 261.001 49.4916C266.323 40.1914 273.883 34.1021 284.8 32.8309C289.936 32.4841 294.881 33.1976 299.54 35.4988C303.406 38.0629 307.112 40.8301 310.312 44.2164C314.917 49.0899 317.54 55.007 319.169 61.4173C319.785 63.8393 320.288 66.2941 320.317 68.8149C320.317 70.8328 320.317 72.8507 320.317 74.8686C317.924 74.349 316.852 73.4335 316.808 71.2306C316.645 62.952 314.079 55.3213 310.304 48.1376C307.447 42.7003 303.278 38.4706 296.822 37.287C295.921 37.1219 295.089 37.0473 294.244 37.4105Z" fill="#E04D39"/>
<path d="M264.006 102.14C262.532 101.003 261.547 99.4731 260.469 97.5857C260.362 98.2715 260.295 98.698 260.228 99.1245C257.603 94.4563 255.592 89.5973 255.338 84.1394C255.262 82.4992 254.929 80.8711 255.031 79.1494C256.503 84.6965 257.687 90.3216 260.629 95.3197C262.087 96.9714 263.456 98.6712 263.689 100.987C263.795 101.371 263.901 101.756 264.006 102.14Z" fill="#F4C0AA"/>
<path d="M263.689 100.988C262.669 99.0984 261.649 97.2092 260.629 95.3201C261.068 94.8067 261.459 94.8735 261.797 95.4258C262.633 96.7912 263.449 98.1697 264.303 99.5232C264.822 100.345 264.534 100.769 263.689 100.988Z" fill="#F35C39"/>
<path d="M294.244 37.4108C294.461 36.4668 295.025 36.3292 295.927 36.4933C303.833 37.9309 308.736 43.0054 311.804 50.0155C313.58 54.0748 315.392 58.149 316.33 62.5571C316.936 65.4016 316.789 68.284 317.233 71.129C317.422 72.3433 317.496 73.2961 318.81 73.7704C319.371 73.973 319.818 74.4931 320.317 74.869C320.63 77.9408 319.79 80.97 319.98 84.0375C319.352 89.7709 317.71 95.1399 314.317 99.8802C312.897 99.9454 312.143 101.034 311.287 101.92C309.311 103.962 306.962 105.412 304.142 106.344C304.979 105.207 305.816 104.069 306.654 102.931C306.589 102.856 306.524 102.78 306.459 102.704C304.193 104.171 301.87 105.558 299.679 107.129C297.787 108.486 295.642 109.077 293.464 109.622C292.82 109.783 292.008 109.948 291.532 109.306C290.974 108.552 291.826 108.207 292.205 107.798C292.904 107.045 292.65 106.577 291.843 106.238C291.211 105.972 290.564 105.727 289.904 105.543C288.789 105.233 288.197 104.556 288.216 103.378C288.713 101.16 290.541 100.094 292.136 98.8239C293.716 99.0144 295.277 99.3969 296.83 98.5227C297.448 98.1751 298.147 98.7306 298.809 98.8991C299.93 99.184 301.225 100.257 301.966 98.2433C302.141 97.7667 302.976 97.8366 303.527 97.7375C305.493 97.3834 307.045 96.3704 308.121 94.7087C310.694 90.7372 313.104 86.6903 314.166 81.9818C314.635 79.901 314.912 77.8012 312.911 76.5072C310.968 75.2501 308.772 74.2796 306.438 75.8721C306.129 76.0832 305.783 76.2461 305.459 76.4387C303.541 77.5763 303.527 77.5828 302.388 75.6899C302.138 75.2744 301.808 75.0508 301.376 74.9148C300.787 74.7296 300.342 74.4132 300.43 73.7084C300.507 73.0919 300.898 72.6793 301.43 72.4228C302.317 71.9949 303.289 72.0063 304.209 72.1574C306.892 72.5979 309.593 72.2413 312.285 72.4385C314.777 72.621 315.102 72.0843 314.779 69.5769C313.584 60.3196 309.88 52.1811 303.942 45.0319C303.539 44.5471 303.123 44.0769 302.869 43.49C300.568 40.6461 296.918 39.7243 294.244 37.4108Z" fill="#DA442D"/>
<path d="M274.979 39.6475C276.878 38.4323 279.111 38.3326 281.209 37.7933C285.315 36.738 288.925 38.4475 292.535 39.9794C293.495 40.3866 294.589 41.0662 294.52 42.2512C294.441 43.6143 293.355 44.1608 292.047 44.4028C291.293 44.5423 290.556 44.5407 289.809 44.5836C288.184 44.6772 287.826 45.3871 288.765 46.7594C289.507 47.845 290.357 48.8572 291.092 49.9479C295.091 55.886 297.581 62.3356 297.635 69.5965C297.321 67.9466 297.048 66.2873 296.686 64.648C294.879 56.4664 290.98 49.5412 284.405 44.2368C283.412 42.601 283.662 41.9326 285.417 41.3454C286.327 41.0409 287.42 41.2292 288.472 40.1628C286.009 39.3896 283.777 39.092 281.472 39.2472C279.308 39.3928 277.166 39.875 274.979 39.6475Z" fill="#E7A39D"/>
<path d="M297.678 78.2773C297.79 78.2755 297.902 78.2755 298.014 78.277C298.206 78.0911 298.214 77.8294 298.298 77.5977C298.644 76.6492 299.008 75.3794 300.21 75.6987C301.327 75.9951 301.204 77.3119 301.123 78.3175C300.589 85.0043 299.101 91.4722 296.621 97.7059C295.927 99.4502 294.383 99.758 292.699 98.5069C292.56 98.1925 292.608 97.8786 292.787 97.6094C296.226 92.4248 296.973 86.376 298.25 80.4993C298.351 80.0373 298.587 79.4904 297.951 79.1704C297.619 78.9467 297.595 78.6286 297.678 78.2773Z" fill="#DF8479"/>
<path d="M274.979 39.6472C277.256 39.2958 279.523 38.8075 281.814 38.6327C283.991 38.4665 286.149 39.0018 288.292 39.399C288.71 39.4764 289.119 39.8024 289.097 40.3149C289.076 40.7903 288.765 41.1642 288.312 41.2793C287.531 41.4774 286.736 41.6605 285.937 41.7324C284.259 41.8833 283.759 42.6908 284.406 44.2361C282.321 42.9127 279.957 42.0687 278.07 40.3949C277.296 39.7089 276.268 39.9597 275.387 40.2511C273.855 40.7574 272.359 41.3755 270.849 41.9467C271.937 40.6599 273.51 40.2477 274.979 39.6472Z" fill="#ECC7C4"/>
<path d="M297.951 79.1706C299.253 78.5175 298.82 79.6778 298.759 80.0677C298.441 82.1078 298.106 84.1524 297.621 86.1575C296.992 88.7581 296.238 91.3294 295.496 93.9012C294.997 95.6314 293.924 97.0191 292.7 98.2993C292.725 98.771 292.222 98.8192 292.04 99.1251C290.766 100.542 289.491 101.96 288.216 103.378C287.156 104.007 286.357 105.305 284.719 104.629C284.845 103.974 285.42 103.638 285.889 103.226C286.065 102.892 286.245 102.56 286.533 102.307C293.026 96.6114 295.91 89.0382 297.624 80.8618C297.715 80.4289 297.76 79.9969 298.026 79.6284C298.001 79.4759 297.976 79.3232 297.951 79.1706Z" fill="#F3C3BA"/>
<path d="M298.027 79.6284C296.441 88.7653 293.567 97.2366 285.889 103.226C285.752 103.088 285.614 102.95 285.477 102.812C291.388 97.5869 294.918 90.9846 296.784 83.3812C297.095 82.1148 296.713 80.5732 298.027 79.6284Z" fill="#E3887F"/>
<path d="M292.04 99.1251C292.076 98.7022 292.381 98.4951 292.7 98.2994C294.498 99.4152 295.7 98.969 296.255 97.0337C297.186 93.7925 298.818 90.7717 299.331 87.4004C299.809 84.2523 300.232 81.0956 300.661 77.94C300.711 77.5723 300.691 77.177 300.611 76.8149C300.535 76.4714 300.477 75.9833 300.052 75.9519C299.827 75.9352 299.53 76.2461 299.346 76.4743C298.878 77.0557 298.455 77.6738 298.014 78.2772C297.784 75.5122 298.937 72.9188 298.863 70.1206C298.743 65.5588 298.265 61.13 296.53 56.8799C296.103 55.8351 295.713 54.7591 295.464 53.6614C294.873 51.0628 295.654 50.0804 298.334 49.8825C301.26 49.6666 301.931 48.5118 300.707 45.7965C300.577 45.5098 300.421 45.2354 300.294 44.948C300.12 44.5557 299.778 44.1407 300.105 43.7232C300.423 43.3175 300.896 43.4495 301.323 43.5968C301.855 43.7802 302.391 44.0495 302.87 43.4896C305.918 45.9436 307.809 49.2969 309.732 52.5859C312.819 57.8646 314.432 63.6647 315.349 69.6803C315.787 72.5578 315.431 73.14 312.529 72.9258C309.743 72.7201 306.945 73.2093 304.169 72.6332C303.395 72.4725 302.529 72.5805 301.738 72.7327C301.181 72.8399 300.699 73.3104 300.768 73.9604C300.831 74.5547 301.401 74.492 301.824 74.4723C302.793 74.4271 302.963 74.9901 302.961 75.7924C302.96 77.1204 303.601 77.1185 304.505 76.4877C304.918 76.2004 305.324 75.902 305.754 75.644C308.983 73.7083 312.692 74.5684 314.581 77.5699C315.194 78.543 315.14 79.5447 314.975 80.4835C313.948 86.312 311.196 91.3571 307.701 96.0382C306.561 97.5644 304.869 98.147 303.11 98.3001C301.395 98.4494 301.903 98.9975 302.975 99.9573C301.136 99.8146 299.602 100.102 298.203 99.1924C297.794 98.9261 297.284 98.609 296.799 98.9719C295.235 100.142 293.641 99.5757 292.04 99.1251Z" fill="#D76559"/>
</svg>
