<svg width="27" height="31" viewBox="0 0 27 31" fill="none" xmlns="http://www.w3.org/2000/svg">
<path d="M20.1082 13.9112C23.9786 15.5406 25.8828 19.4409 24.6199 23.4774C23.7593 26.2324 21.3076 28.4579 18.6804 29.464C15.3681 30.7364 10.9198 30.6547 7.6529 29.2991C1.02674 26.5532 -0.518998 18.928 0.138929 12.5844C0.597209 8.14394 2.44545 3.81547 6.52611 1.58996C9.60098 -0.0939183 13.5365 -0.332967 16.9032 0.372054C20.3986 1.10431 23.236 3.17248 24.9556 6.30423C25.4865 7.26494 25.9161 8.327 26.2367 9.50859C26.2458 9.55398 26.2276 9.60088 26.1822 9.60996L23.7487 10.2514C23.7033 10.2605 23.6564 10.2333 23.6473 10.197C23.2813 8.80509 22.7051 7.56903 21.908 6.49032C19.4185 3.10289 14.8523 2.19665 10.9168 2.90167C6.27656 3.73529 3.71441 6.99413 2.96422 11.4693C2.35167 15.1034 2.54376 19.3138 4.21807 22.665C5.6277 25.4851 8.18076 27.0676 11.2556 27.5078C12.9118 27.7363 14.5317 27.709 16.1152 27.4155C18.3855 26.9949 20.819 25.4926 21.8067 23.3412C22.448 21.9493 22.5115 20.1838 21.8067 18.801C21.4043 18.0142 20.7994 17.3818 20.0038 16.9068C19.9675 16.8795 19.9115 16.8977 19.8934 16.934C19.8843 16.9431 19.8843 16.9522 19.8843 16.9612C19.792 17.639 19.6378 18.3062 19.4079 18.9568C19.0782 19.8812 18.6033 20.6785 17.971 21.3275C15.8475 23.5152 12.151 23.7074 9.65243 22.1324C7.65747 20.8691 6.90727 18.2881 7.85861 16.1639C8.84626 13.9672 11.2632 13.0156 13.5591 12.9051C14.8583 12.8416 16.0578 12.896 17.1649 13.0519C17.2103 13.0609 17.2465 13.0246 17.2571 12.9792V12.952C17.1558 12.4482 17.0378 12.0367 16.8911 11.716C16.1228 10.023 14.3925 9.57364 12.6638 9.79302C11.5566 9.93069 10.6869 10.4527 10.0366 11.3498C10.0093 11.3861 9.96397 11.3952 9.92616 11.368L7.85861 9.95794C7.82231 9.93071 7.81326 9.88531 7.84048 9.83841C8.94761 8.28162 10.448 7.37537 12.3522 7.12877C13.9267 6.91847 15.6917 7.16508 17.0651 7.9987C19.1236 9.26198 19.8556 11.5329 20.0386 13.8295C20.0567 13.8749 20.0749 13.9021 20.1021 13.9112H20.1082ZM10.2332 17.4998C9.8218 18.8827 10.7732 19.972 12.0633 20.3003C13.8752 20.7587 15.8884 20.3547 16.749 18.4969C17.0877 17.7646 17.2889 16.9038 17.3524 15.9249C17.3524 15.8795 17.3252 15.8432 17.2889 15.8432C15.9443 15.5784 14.5619 15.5225 13.1523 15.6601C12.0088 15.7797 10.5901 16.3016 10.2332 17.4998Z" fill="#11418B"/>
</svg>
