<svg width="34" height="34" viewBox="0 0 34 34" fill="none" xmlns="http://www.w3.org/2000/svg">
<path d="M16.535 7.82186L9.04077 24.9549C11.1581 23.4533 13.7436 22.5695 16.537 22.5695V7.82186H16.535Z" fill="white"/>
<path d="M16.4259 7.77498L16.6532 7.8216L16.6416 22.6353L16.4959 22.6858C13.7433 22.6936 11.1967 23.5677 9.10845 25.0498L8.76074 25.2965L16.4259 7.77498ZM9.31436 24.6225C11.354 23.2705 13.7938 22.4741 16.4182 22.4507V8.38688L9.31436 24.6225Z" fill="white"/>
<path d="M23.963 25.0518C21.865 23.5638 19.3029 22.6877 16.5367 22.6877H16.4182V7.8216L16.6435 7.77498L24.3107 25.2985L23.963 25.0518ZM23.7571 24.6225L16.6533 8.38688V22.4507C19.2776 22.4741 21.7174 23.2705 23.7571 24.6225Z" fill="white"/>
</svg>
