<svg width="158" height="52" viewBox="0 0 158 52" fill="none" xmlns="http://www.w3.org/2000/svg">
<g clip-path="url(#clip0_341_338)">
<path d="M157.31 40.85L157.4 51.07H157.26V50.94H157.11L157.02 41H157.16V40.85H157.31Z" fill="#11418B"/>
<path d="M157.31 0.599998V10.66H157.16V10.53H157.02V0.729998H157.16V0.599998H157.31Z" fill="#11418B"/>
<path d="M157.26 51.07V51.21H132.9V51.07L133.02 50.99L132.98 50.94H157.11V51.07H157.26Z" fill="#11418B"/>
<path d="M157.26 50.94H157.11V51.07H157.26V50.94Z" fill="#11418B"/>
<path d="M157.16 40.85H157.02V40.99H157.16V40.85Z" fill="#11418B"/>
<path d="M157.16 40.72V40.85H157.02V41L141.9 41.18V41.04L142.01 40.96L141.98 40.91L157.16 40.72Z" fill="#11418B"/>
<path d="M157.16 10.66V10.81H141.62L141.67 10.74L141.55 10.66V10.53H157.02V10.66H157.16Z" fill="#11418B"/>
<path d="M157.16 10.53H157.02V10.66H157.16V10.53Z" fill="#11418B"/>
<path d="M157.16 0.599998H157.02V0.729998H157.16V0.599998Z" fill="#11418B"/>
<path d="M157.16 0.459999V0.599999H157.02V0.729999H133.32L133.36 0.679999L133.24 0.589999V0.459999H157.16Z" fill="#11418B"/>
<path d="M157.02 41L157.11 50.94H132.98L115.04 25.84L133.32 0.73H157.02V10.53H141.55V10.66L141.44 10.59L130.75 25.3L130.86 25.39L130.75 25.47L141.78 41.12L141.9 41.04V41.18L157.02 41Z" fill="#11418B"/>
<path d="M141.98 40.91L142.01 40.96L141.9 41.04V40.91H141.98Z" fill="#11418B"/>
<path d="M141.98 40.91H141.9V41.04L141.78 41.12L130.75 25.47L130.86 25.39L130.97 25.47L131.03 25.39L141.98 40.91Z" fill="#11418B"/>
<path d="M141.67 10.74L141.62 10.81H141.55V10.66L141.67 10.74Z" fill="#11418B"/>
<path d="M141.62 10.81L131.03 25.39L130.97 25.31L130.86 25.39L130.75 25.3L141.44 10.59L141.55 10.66V10.81H141.62Z" fill="#11418B"/>
<path d="M133.36 0.68L133.32 0.73H133.24V0.59L133.36 0.68Z" fill="#11418B"/>
<path d="M133.32 0.729998L115.04 25.84L114.98 25.75L114.87 25.84L114.75 25.75L133.12 0.509998L133.24 0.589998V0.729998H133.32Z" fill="#11418B"/>
<path d="M132.98 50.94L133.02 50.99L132.9 51.07V50.94H132.98Z" fill="#11418B"/>
<path d="M132.98 50.94H132.9V51.07L132.78 51.14L114.75 25.92L114.87 25.84L114.98 25.92L115.04 25.84L132.98 50.94Z" fill="#11418B"/>
<path d="M131.03 25.39L130.97 25.47L130.86 25.39L130.97 25.31L131.03 25.39Z" fill="#11418B"/>
<path d="M112.23 0.509998L120.68 11.6L120.57 11.67L120.45 11.6L120.4 11.67L112.03 0.729998H112.11V0.589998L112.23 0.509998Z" fill="#C1C1C1"/>
<path d="M120.68 11.76L112.23 22.69L112.11 22.61L112.23 22.53L112.11 22.38L120.4 11.67L120.45 11.75L120.57 11.67L120.68 11.76Z" fill="#C1C1C1"/>
<path d="M120.57 11.67L120.45 11.75L120.4 11.67L120.45 11.6L120.57 11.67Z" fill="#C1C1C1"/>
<path d="M120.4 11.67L112.11 22.38L106.39 14.68L106.28 14.76L106.16 14.68L79.66 50.94H64.55L100.53 0.73H112.03L120.4 11.67Z" fill="#C1C1C1"/>
<path d="M100.55 28.67L117.46 50.99L117.35 51.08V50.94H117.06L100.45 28.99L100.56 28.83L100.44 28.75L100.55 28.67Z" fill="#C1C1C1"/>
<path d="M117.35 51.08V51.21H101.59V51.08L101.71 50.99L101.66 50.94H117.06L117.23 51.16L117.35 51.08Z" fill="#C1C1C1"/>
<path d="M117.35 50.94V51.08L117.23 51.16L117.06 50.94H117.35Z" fill="#C1C1C1"/>
<path d="M100.45 28.99L117.06 50.94H101.66L93.17 39.55L100.45 28.99Z" fill="#C1C1C1"/>
<path d="M114.98 25.75L115.04 25.84L114.98 25.92L114.87 25.84L114.98 25.75Z" fill="#11418B"/>
<path d="M112.11 22.38L112.23 22.53L112.11 22.61L112 22.52L112.11 22.38Z" fill="#C1C1C1"/>
<path d="M112.11 0.59V0.73H112.03L111.99 0.68L112.11 0.59Z" fill="#C1C1C1"/>
<path d="M112.11 0.459999V0.589999L111.99 0.679999L112.03 0.729999H100.53L100.56 0.679999L100.44 0.599999V0.589999V0.459999H112.11Z" fill="#C1C1C1"/>
<path d="M112 22.52L112.11 22.61L111.99 22.69L106.28 14.99L106.39 14.84L106.28 14.76L106.39 14.68L112.11 22.38L112 22.52Z" fill="#C1C1C1"/>
<path d="M106.39 14.84L106.28 14.99L106.16 14.84L106.28 14.76L106.39 14.84Z" fill="#C1C1C1"/>
<path d="M106.16 14.84L106.28 14.99L79.85 51.16L79.73 51.07V50.94H79.66L106.16 14.68L106.28 14.76L106.16 14.84Z" fill="#C1C1C1"/>
<path d="M101.66 50.94L101.71 50.99L101.59 51.08V50.94H101.66Z" fill="#C1C1C1"/>
<path d="M93.17 39.55L101.66 50.94H101.59V51.08L101.48 51.16L92.89 39.62L93 39.55L93.13 39.62L93.17 39.55Z" fill="#C1C1C1"/>
<path d="M100.56 0.679998L100.53 0.729998H100.44V0.599998L100.56 0.679998Z" fill="#C1C1C1"/>
<path d="M100.56 28.83L100.45 28.99L100.32 28.83L100.44 28.75L100.56 28.83Z" fill="#C1C1C1"/>
<path d="M100.53 0.729998L64.55 50.94H64.27V51.07L64.16 50.99L100.32 0.509998L100.44 0.589998V0.599998V0.729998H100.53Z" fill="#C1C1C1"/>
<path d="M100.32 28.83L100.45 28.99L93.17 39.55L93.12 39.47L93 39.55L92.89 39.47L100.32 28.67L100.44 28.75L100.32 28.83Z" fill="#C1C1C1"/>
<path d="M93.17 39.55L93.13 39.62L93 39.55L93.12 39.47L93.17 39.55Z" fill="#C1C1C1"/>
<path d="M79.67 0.310001L87.26 10.83L87.14 10.9L87.02 10.83L86.97 10.89L79.48 0.530001H79.56V0.390001L79.67 0.310001Z" fill="#E6922F"/>
<path d="M87.2601 10.98L79.6701 22.19L79.5601 22.12L79.6701 22.04L79.5601 21.88L86.9701 10.89L87.0301 10.98L87.1401 10.9L87.2601 10.98Z" fill="#E6922F"/>
<path d="M87.14 10.9L87.03 10.98L86.97 10.89L87.02 10.83L87.14 10.9Z" fill="#E6922F"/>
<path d="M86.97 10.89L79.56 21.88L74.06 14.47L73.95 14.55L73.82 14.47L47.55 50.86H32.43L50.65 25.92L50.53 25.83L50.65 25.75L42.78 14.62L42.67 14.69L42.54 14.61L16.49 50.86L0.640015 51.14L37.06 0.529999H58.19L63.11 7.61L63.23 7.54L63.35 7.62L68.41 0.529999H79.48L86.97 10.89Z" fill="#E6922F"/>
<path d="M79.73 51.07V51.21H64.27V51.07L64.4 51.14L64.55 50.94H79.66L79.61 50.99L79.73 51.07Z" fill="#C1C1C1"/>
<path d="M79.73 50.94V51.07L79.61 50.99L79.66 50.94H79.73Z" fill="#C1C1C1"/>
<path d="M79.5599 21.88L79.6699 22.04L79.5599 22.12L79.4399 22.04L79.5599 21.88Z" fill="#E6922F"/>
<path d="M79.5599 0.389999V0.529999H79.4799L79.4399 0.469999L79.5599 0.389999Z" fill="#E6922F"/>
<path d="M79.56 0.25V0.39L79.44 0.47L79.48 0.53H68.41L68.44 0.47L68.33 0.39V0.25H79.56Z" fill="#E6922F"/>
<path d="M79.56 21.88L79.44 22.04L79.56 22.12L79.44 22.19L73.95 14.79L74.06 14.63L73.95 14.55L74.06 14.47L79.56 21.88Z" fill="#E6922F"/>
<path d="M74.0599 14.63L73.9499 14.79L73.8199 14.63L73.9499 14.55L74.0599 14.63Z" fill="#E6922F"/>
<path d="M73.95 14.55L73.82 14.63L73.95 14.79L47.7401 51.08L47.62 51V50.86H47.55L73.82 14.47L73.95 14.55Z" fill="#E6922F"/>
<path d="M68.44 0.469999L68.41 0.529999H68.33V0.389999L68.44 0.469999Z" fill="#E6922F"/>
<path d="M68.41 0.530001L63.35 7.62L63.23 7.54L63.35 7.47L63.22 7.29L68.21 0.310001L68.33 0.390001V0.530001H68.41Z" fill="#E6922F"/>
<path d="M64.55 50.94L64.4 51.14L64.27 51.07V50.94H64.55Z" fill="#C1C1C1"/>
<path d="M63.22 7.29L63.35 7.47L63.23 7.54L63.11 7.46L63.22 7.29Z" fill="#E6922F"/>
<path d="M63.2299 7.54L63.1099 7.61L58.1899 0.53H58.2599V0.39L58.3899 0.32L63.2199 7.29L63.1099 7.46L63.2299 7.54Z" fill="#E6922F"/>
<path d="M58.26 0.389999V0.529999H58.19L58.15 0.459999L58.26 0.389999Z" fill="#E6922F"/>
<path d="M58.26 0.25V0.39L58.15 0.46L58.19 0.53H37.06L37.09 0.47L36.97 0.38V0.25H58.26Z" fill="#E6922F"/>
<path d="M42.78 14.62L50.65 25.75L50.53 25.83L50.41 25.75L50.36 25.83L42.66 14.93L42.78 14.77L42.67 14.69L42.78 14.62Z" fill="#E6922F"/>
<path d="M50.65 25.92L32.43 50.86H32.16V51L32.04 50.93L50.36 25.83L50.41 25.91L50.53 25.83L50.65 25.92Z" fill="#E6922F"/>
<path d="M50.53 25.83L50.41 25.91L50.36 25.83L50.41 25.75L50.53 25.83Z" fill="#E6922F"/>
<path d="M47.62 51V51.13H32.16V51L32.27 51.08L32.43 50.86H47.55L47.5 50.93L47.62 51Z" fill="#E6922F"/>
<path d="M47.62 50.86V51L47.5 50.93L47.55 50.86H47.62Z" fill="#E6922F"/>
<path d="M42.78 14.77L42.66 14.93L42.54 14.77L42.67 14.69L42.78 14.77Z" fill="#E6922F"/>
<path d="M42.67 14.69L42.54 14.77L42.66 14.93L16.67 51.08L16.55 51V50.86H16.49L42.54 14.61L42.67 14.69Z" fill="#E6922F"/>
<path d="M37.09 0.470001L37.06 0.530001H36.97V0.380001L37.09 0.470001Z" fill="#E6922F"/>
<path d="M37.06 0.530001L0.64 51.14H0.37V51.29L0.25 51.2L36.85 0.310001L36.97 0.380001V0.530001H37.06Z" fill="#E6922F"/>
<path d="M32.43 50.86L32.27 51.08L32.16 51V50.86H32.43Z" fill="#E6922F"/>
<path d="M16.55 51V51.13L0.369995 51.42V51.29L0.479995 51.36L0.639995 51.14L16.49 50.86L16.44 50.93L16.55 51Z" fill="#E6922F"/>
<path d="M16.5499 50.86V51L16.4399 50.93L16.4899 50.86H16.5499Z" fill="#E6922F"/>
<path d="M0.639995 51.14L0.479995 51.36L0.369995 51.29V51.14H0.639995Z" fill="#E6922F"/>
<path d="M0.64 51.14L0.48 51.36L0.37 51.29L0.25 51.2L36.85 0.310001L36.97 0.380001L37.09 0.470001L37.06 0.530001L0.64 51.14Z" stroke="#E6922F" stroke-width="0.25" stroke-miterlimit="10"/>
<path d="M58.26 0.39V0.53H58.19H37.06H36.97V0.38V0.25H58.26V0.39Z" stroke="#E6922F" stroke-width="0.25" stroke-miterlimit="10"/>
<path d="M63.23 7.54L63.11 7.61L58.19 0.53L58.15 0.46L58.26 0.39L58.39 0.32L63.22 7.29L63.35 7.47L63.23 7.54Z" stroke="#E6922F" stroke-width="0.25" stroke-miterlimit="10"/>
<path d="M68.41 0.530001L63.35 7.62L63.23 7.54L63.11 7.46L63.22 7.29L68.21 0.310001L68.33 0.390001L68.44 0.470001L68.41 0.530001Z" stroke="#E6922F" stroke-width="0.25" stroke-miterlimit="10"/>
<path d="M79.56 0.39V0.53H79.48H68.41H68.33V0.39V0.25H79.56V0.39Z" stroke="#E6922F" stroke-width="0.25" stroke-miterlimit="10"/>
<path d="M87.1399 10.9L87.0299 10.98L86.9699 10.89L79.4799 0.530001L79.4399 0.470001L79.5599 0.390001L79.6699 0.310001L87.2599 10.83L87.1399 10.9Z" stroke="#E6922F" stroke-width="0.25" stroke-miterlimit="10"/>
<path d="M87.1399 10.9L87.2599 10.98L79.6699 22.19L79.5599 22.12L79.4399 22.04L79.5599 21.88L86.9699 10.89L87.0199 10.83L87.1399 10.9Z" stroke="#E6922F" stroke-width="0.25" stroke-miterlimit="10"/>
<path d="M79.5599 22.12L79.4399 22.19L73.9499 14.79L73.8199 14.63L73.9499 14.55L74.0599 14.47L79.5599 21.88L79.6699 22.04L79.5599 22.12Z" stroke="#E6922F" stroke-width="0.25" stroke-miterlimit="10"/>
<path d="M73.95 14.79L47.74 51.08L47.62 51L47.5 50.93L47.55 50.86L73.82 14.47L73.95 14.55L74.06 14.63L73.95 14.79Z" stroke="#E6922F" stroke-width="0.25" stroke-miterlimit="10"/>
<path d="M32.43 50.86L32.27 51.08L32.16 51L32.04 50.93L50.36 25.83L50.41 25.75L50.53 25.83L50.65 25.92L32.43 50.86Z" stroke="#E6922F" stroke-width="0.25" stroke-miterlimit="10"/>
<path d="M50.53 25.83L50.41 25.91L50.36 25.83L42.66 14.93L42.54 14.77L42.67 14.69L42.78 14.62L50.65 25.75L50.53 25.83Z" stroke="#E6922F" stroke-width="0.25" stroke-miterlimit="10"/>
<path d="M42.6599 14.93L16.6699 51.08L16.5499 51L16.4399 50.93L16.4899 50.86L42.5399 14.61L42.6699 14.69L42.7799 14.77L42.6599 14.93Z" stroke="#E6922F" stroke-width="0.25" stroke-miterlimit="10"/>
<path d="M16.55 51V51.13L0.369995 51.42V51.29V51.14H0.639995L16.49 50.86H16.55V51Z" stroke="#E6922F" stroke-width="0.25" stroke-miterlimit="10"/>
<path d="M47.62 51V51.13H32.16V51V50.86H32.43H47.55H47.62V51Z" stroke="#E6922F" stroke-width="0.25" stroke-miterlimit="10"/>
<path d="M100.44 0.599998L100.56 0.679998L100.53 0.729998L64.55 50.94L64.4 51.14L64.27 51.07L64.16 50.99L100.32 0.509998L100.44 0.589998" stroke="#C1C1C1" stroke-width="0.25" stroke-miterlimit="10"/>
<path d="M112.11 0.589999V0.729999H112.03H100.53H100.44V0.599999V0.589999V0.459999H112.11V0.589999Z" stroke="#C1C1C1" stroke-width="0.25" stroke-miterlimit="10"/>
<path d="M120.57 11.67L120.45 11.75L120.4 11.67L112.03 0.729998L111.99 0.679998L112.11 0.589998L112.23 0.509998L120.68 11.6L120.57 11.67Z" stroke="#C1C1C1" stroke-width="0.25" stroke-miterlimit="10"/>
<path d="M120.57 11.67L120.68 11.76L112.23 22.69L112.11 22.61L112 22.52L112.11 22.38L120.4 11.67L120.45 11.6L120.57 11.67Z" stroke="#C1C1C1" stroke-width="0.25" stroke-miterlimit="10"/>
<path d="M112.11 22.61L111.99 22.69L106.28 14.99L106.16 14.84L106.28 14.76L106.39 14.68L112.11 22.38L112.23 22.53L112.11 22.61Z" stroke="#C1C1C1" stroke-width="0.25" stroke-miterlimit="10"/>
<path d="M106.28 14.99L79.85 51.16L79.73 51.07L79.61 50.99L79.66 50.94L106.16 14.68L106.28 14.76L106.39 14.84L106.28 14.99Z" stroke="#C1C1C1" stroke-width="0.25" stroke-miterlimit="10"/>
<path d="M79.73 51.07V51.21H64.27V51.07V50.94H64.55H79.66H79.73V51.07Z" stroke="#C1C1C1" stroke-width="0.25" stroke-miterlimit="10"/>
<path d="M93.17 39.55L93.13 39.62L93 39.55L92.89 39.47L100.32 28.67L100.44 28.75L100.56 28.83L100.45 28.99L93.17 39.55Z" stroke="#C1C1C1" stroke-width="0.25" stroke-miterlimit="10"/>
<path d="M117.35 51.08L117.23 51.16L117.06 50.94L100.45 28.99L100.32 28.83L100.44 28.75L100.55 28.67L117.46 50.99L117.35 51.08Z" stroke="#C1C1C1" stroke-width="0.25" stroke-miterlimit="10"/>
<path d="M117.35 51.08V51.21H101.59V51.08V50.94H101.66H117.06H117.35V51.08Z" stroke="#C1C1C1" stroke-width="0.25" stroke-miterlimit="10"/>
<path d="M101.59 51.08L101.48 51.16L92.89 39.62L93 39.55L93.12 39.47L93.17 39.55L101.66 50.94L101.71 50.99L101.59 51.08Z" stroke="#C1C1C1" stroke-width="0.25" stroke-miterlimit="10"/>
<path d="M115.04 25.84L114.98 25.92L114.87 25.84L114.75 25.75L133.12 0.509998L133.24 0.589998L133.36 0.679998L133.32 0.729998L115.04 25.84Z" stroke="#11418B" stroke-width="0.25" stroke-miterlimit="10"/>
<path d="M157.16 0.599999V0.729999H157.02H133.32H133.24V0.589999V0.459999H157.16V0.599999Z" stroke="#11418B" stroke-width="0.25" stroke-miterlimit="10"/>
<path d="M157.16 0.599998H157.31V10.66H157.16H157.02V10.53V0.729998V0.599998H157.16Z" stroke="#11418B" stroke-width="0.25" stroke-miterlimit="10"/>
<path d="M157.16 10.66V10.81H141.62H141.55V10.66V10.53H157.02H157.16V10.66Z" stroke="#11418B" stroke-width="0.25" stroke-miterlimit="10"/>
<path d="M131.03 25.39L130.97 25.47L130.86 25.39L130.75 25.3L141.44 10.59L141.55 10.66L141.67 10.74L141.62 10.81L131.03 25.39Z" stroke="#11418B" stroke-width="0.25" stroke-miterlimit="10"/>
<path d="M141.9 41.04L141.78 41.12L130.75 25.47L130.86 25.39L130.97 25.31L131.03 25.39L141.98 40.91L142.01 40.96L141.9 41.04Z" stroke="#11418B" stroke-width="0.25" stroke-miterlimit="10"/>
<path d="M157.02 41L141.9 41.18V41.04V40.91H141.98L157.16 40.72V40.85V41H157.02Z" stroke="#11418B" stroke-width="0.25" stroke-miterlimit="10"/>
<path d="M157.26 51.07H157.11V50.94L157.02 41V40.85H157.16H157.31L157.4 51.07H157.26Z" stroke="#11418B" stroke-width="0.25" stroke-miterlimit="10"/>
<path d="M157.26 51.07V51.21H132.9V51.07V50.94H132.98H157.11H157.26V51.07Z" stroke="#11418B" stroke-width="0.25" stroke-miterlimit="10"/>
<path d="M132.9 51.07L132.78 51.14L114.75 25.92L114.87 25.84L114.98 25.75L115.04 25.84L132.98 50.94L133.02 50.99L132.9 51.07Z" stroke="#11418B" stroke-width="0.25" stroke-miterlimit="10"/>
</g>
<defs>
<clipPath id="clip0_341_338">
<rect width="157.65" height="51.67" fill="white"/>
</clipPath>
</defs>
</svg>
