<svg width="27" height="26" viewBox="0 0 27 26" fill="none" xmlns="http://www.w3.org/2000/svg">
<path d="M20.0509 0H6.69271C3.00226 0 0 3.00315 0 6.69468V18.9191C0 22.6106 3.00226 25.6138 6.69271 25.6138H20.0509C23.7413 25.6138 26.7436 22.6106 26.7436 18.9191V6.69468C26.7436 3.00315 23.7413 0 20.0509 0ZM2.36098 6.69468C2.36098 4.30577 4.30451 2.36167 6.69271 2.36167H20.0509C22.4391 2.36167 24.3826 4.30577 24.3826 6.69468V18.9191C24.3826 21.308 22.4391 23.2521 20.0509 23.2521H6.69271C4.30451 23.2521 2.36098 21.308 2.36098 18.9191V6.69468Z" fill="#11418B"/>
<path d="M13.3718 19.0325C16.8036 19.0325 19.5972 16.2396 19.5972 12.8053C19.5972 9.37097 16.8052 6.57812 13.3718 6.57812C9.93852 6.57812 7.14648 9.37097 7.14648 12.8053C7.14648 16.2396 9.93852 19.0325 13.3718 19.0325ZM13.3718 8.94131C15.5029 8.94131 17.2362 10.6751 17.2362 12.8068C17.2362 14.9385 15.5029 16.6723 13.3718 16.6723C11.2408 16.6723 9.50746 14.9385 9.50746 12.8068C9.50746 10.6751 11.2408 8.94131 13.3718 8.94131Z" fill="#11418B"/>
<path d="M20.1735 7.58418C21.0977 7.58418 21.8509 6.83226 21.8509 5.90635C21.8509 4.98044 21.0992 4.22852 20.1735 4.22852C19.2479 4.22852 18.4962 4.98044 18.4962 5.90635C18.4962 6.83226 19.2479 7.58418 20.1735 7.58418Z" fill="#11418B"/>
</svg>
