<svg width="25" height="24" viewBox="0 0 25 24" fill="none" xmlns="http://www.w3.org/2000/svg">
<path d="M0.851506 4.74149C0.282815 4.21348 0 3.55991 0 2.78226C0 2.00462 0.284328 1.32229 0.851506 0.792769C1.4202 0.26476 2.15224 0 3.04914 0C3.94604 0 4.64935 0.26476 5.21653 0.792769C5.78522 1.32078 6.06803 1.98496 6.06803 2.78226C6.06803 3.57957 5.78371 4.21348 5.21653 4.74149C4.64784 5.2695 3.92637 5.53426 3.04914 5.53426C2.1719 5.53426 1.4202 5.2695 0.851506 4.74149ZM5.59011 7.77036V23.9586H0.476415V7.77036H5.59011Z" fill="#11418B"/>
<path d="M22.6132 9.36922C23.7279 10.5796 24.2845 12.2408 24.2845 14.3558V23.6724H19.4279V15.0124C19.4279 13.9458 19.1511 13.1167 18.5991 12.5267C18.047 11.9366 17.3029 11.6401 16.3712 11.6401C15.4395 11.6401 14.6954 11.9351 14.1433 12.5267C13.5912 13.1167 13.3145 13.9458 13.3145 15.0124V23.6724H8.4292V7.72467H13.3145V9.83973C13.809 9.13471 14.4761 8.57797 15.314 8.16797C16.1519 7.75796 17.0942 7.55371 18.1423 7.55371C20.0087 7.55371 21.5 8.15888 22.6132 9.3677V9.36922Z" fill="#11418B"/>
</svg>
