<svg width="28" height="20" viewBox="0 0 28 20" fill="none" xmlns="http://www.w3.org/2000/svg">
<path d="M27.3431 5.15609C27.1737 3.52062 26.8092 1.71268 25.4676 0.762569C24.4285 0.0257766 23.0628 -0.00146195 21.7877 5.09714e-05C19.0925 5.09714e-05 16.3958 0.00459565 13.7005 0.00610857C11.1081 0.00913441 8.51576 0.0106455 5.92338 0.0136713C4.84044 0.0136713 3.78776 -0.0695412 2.78196 0.399464C1.91834 0.801901 1.24226 1.56745 0.835403 2.41922C0.27125 3.60384 0.153282 4.9458 0.0852209 6.25599C-0.0403147 8.64186 -0.0267024 11.0338 0.123033 13.4181C0.233444 15.158 0.513247 17.0809 1.85784 18.1899C3.04967 19.1718 4.73154 19.2202 6.27729 19.2217C11.1838 19.2263 16.0918 19.2308 20.9997 19.2338C21.6289 19.2353 22.2853 19.2232 22.9266 19.1536C24.188 19.0175 25.3904 18.6559 26.2011 17.7209C27.0194 16.7783 27.2296 15.4666 27.3537 14.2245C27.6562 11.2108 27.6531 8.16832 27.3431 5.15609ZM10.8631 13.8418V5.3921L18.1775 9.61618L10.8631 13.8418Z" fill="#11418B"/>
</svg>
