<svg width="281" height="293" viewBox="0 0 281 293" fill="none" xmlns="http://www.w3.org/2000/svg">
<g opacity="0.1" clip-path="url(#clip0_146_353)">
<path d="M280.993 261.121V33.7011C280.993 30.1892 281.005 26.6773 280.993 23.1654C280.975 18.1259 277.747 13.5629 272.526 12.8755C271.582 12.751 270.599 12.8008 269.649 12.8008H240.339V1.2987C240.339 0.189505 239.385 -0.308636 238.437 0.202789C237.36 0.782293 236.606 2.16048 236.606 3.36765V12.8024H191.355V1.2987C191.355 0.189505 190.401 -0.308636 189.452 0.202789C188.376 0.782293 187.622 2.16048 187.622 3.36765V12.8024H142.371V1.2987C142.371 0.189505 141.417 -0.308636 140.468 0.202789C139.392 0.782293 138.638 2.16048 138.638 3.36765V12.8024H93.3866V1.2987C93.3866 0.189505 92.433 -0.308636 91.4844 0.202789C90.4077 0.782293 89.6538 2.16048 89.6538 3.36765V12.8024H44.4026V1.2987C44.4026 0.189505 43.449 -0.308636 42.5004 0.202789C41.4236 0.782293 40.6698 2.16048 40.6698 3.36765V12.8024H13.1605C12.1687 12.8024 11.1685 12.7709 10.18 12.8755C4.12894 13.5181 0.0383358 19.3231 0.00838022 25.1165C-0.00992597 28.4889 0.00838022 31.8613 0.00838022 35.2354V279.18C0.00838022 280.337 0.00338763 281.493 0.00838022 282.651C0.031679 287.922 3.70623 292.69 9.23137 292.945C11.7693 293.063 14.3355 292.954 16.875 292.954H269.604C276.169 292.811 280.957 287.042 280.993 280.68C281 279.599 280.993 278.518 280.993 277.437V261.121ZM241.419 286.421V255.595C241.419 255.404 241.419 255.213 241.419 255.022C241.419 254.99 241.419 254.957 241.419 254.926C241.419 254.891 241.419 254.854 241.419 254.818C241.425 254.794 241.444 254.63 241.449 254.597C241.455 254.56 241.462 254.527 241.467 254.499C241.47 254.491 241.474 254.481 241.477 254.469C241.485 254.441 241.514 254.381 241.54 254.323C241.579 254.266 241.62 254.205 241.64 254.18C241.652 254.165 241.662 254.154 241.67 254.142C241.712 254.1 241.758 254.062 241.805 254.026C241.818 254.014 241.833 254.002 241.85 253.991C241.86 253.982 241.87 253.974 241.88 253.966C241.875 253.971 241.87 253.974 241.865 253.978C241.891 253.958 241.916 253.939 241.933 253.931C242.058 253.861 242.181 253.787 242.311 253.725C242.366 253.699 242.406 253.68 242.441 253.664C242.446 253.667 242.472 253.662 242.542 253.64C242.912 253.529 243.258 253.469 243.637 253.466C244.181 253.463 244.726 253.466 245.268 253.466H272.656C273.247 253.466 273.839 253.474 274.431 253.483C271.371 256.536 268.311 259.59 265.25 262.643C258.146 269.732 251.043 276.819 243.938 283.908C243.098 284.746 242.258 285.585 241.419 286.421ZM245.995 41.7478C245.984 41.7876 245.93 42.1911 245.93 42.1894C245.9 42.3621 245.864 42.5332 245.826 42.7025C245.869 42.495 245.736 43.0247 245.716 43.0795C245.643 43.287 245.558 43.4879 245.478 43.6922C245.468 43.7171 245.459 43.7387 245.451 43.7603C245.434 43.7852 245.415 43.8151 245.393 43.8532C245.316 43.9761 245.251 44.1056 245.177 44.2285C245.138 44.2899 245.098 44.3497 245.06 44.4112C245.038 44.4394 245.005 44.4842 244.957 44.549C244.815 44.71 244.681 44.8811 244.542 45.0455C244.514 45.0787 244.493 45.1069 244.473 45.1301C244.448 45.1501 244.419 45.1733 244.384 45.2032C244.22 45.3427 244.065 45.4921 243.897 45.6283C243.882 45.6399 243.514 45.9089 243.557 45.8857C242.875 46.3356 242.256 46.6213 241.59 46.8172C238.417 47.7554 234.87 46.676 232.777 44.1073C231.753 42.8503 231.062 41.238 230.956 39.7951C230.926 39.3783 230.918 38.9515 230.948 38.5331C230.954 38.5331 231.014 38.0881 231.013 38.0897C231.044 37.9054 231.084 37.7244 231.124 37.5418C231.132 37.5003 231.137 37.4737 231.139 37.4571C231.146 37.4405 231.149 37.4272 231.156 37.4073C231.227 37.1997 231.297 36.9922 231.38 36.7879C231.405 36.7265 231.53 36.4857 231.565 36.4127C231.668 36.23 231.771 36.0474 231.88 35.8664C231.893 35.8448 231.901 35.8282 231.913 35.8099C231.933 35.7883 231.958 35.7618 231.986 35.7286C232.128 35.5675 232.262 35.3965 232.4 35.2321C232.414 35.2155 232.439 35.1889 232.465 35.164C232.6 35.0345 232.738 34.9083 232.881 34.7871C233.336 34.4002 234.118 33.9054 234.727 33.6696C235.338 33.4321 235.967 33.2744 236.604 33.1914V38.4152C236.604 39.5244 237.558 40.0225 238.506 39.5111C239.583 38.9316 240.337 37.5534 240.337 36.3463V33.5318C241.823 34.0199 243.189 34.9697 244.166 36.1686C245.385 37.663 245.99 39.3833 246.012 41.1699C246.01 41.3609 246.005 41.5518 245.994 41.7428L245.995 41.7478ZM232.499 35.1341C232.56 35.0727 232.607 35.0295 232.499 35.1341V35.1341ZM197.01 41.7478C196.998 41.7876 196.945 42.1911 196.945 42.1894C196.915 42.3621 196.878 42.5332 196.84 42.7025C196.883 42.495 196.75 43.0247 196.73 43.0795C196.657 43.287 196.572 43.4879 196.492 43.6922C196.482 43.7171 196.474 43.7387 196.465 43.7603C196.449 43.7852 196.429 43.8151 196.407 43.8532C196.331 43.9761 196.266 44.1056 196.191 44.2285C196.153 44.2899 196.113 44.3497 196.074 44.4112C196.053 44.4394 196.019 44.4842 195.971 44.549C195.83 44.71 195.695 44.8811 195.557 45.0455C195.528 45.0787 195.507 45.1069 195.487 45.1301C195.462 45.1501 195.434 45.1733 195.399 45.2032C195.234 45.3427 195.079 45.4921 194.911 45.6283C194.896 45.6399 194.528 45.9089 194.572 45.8857C193.889 46.3356 193.27 46.6213 192.604 46.8172C189.431 47.7554 185.884 46.676 183.791 44.1073C182.767 42.8503 182.077 41.238 181.97 39.7951C181.94 39.3783 181.932 38.9515 181.962 38.5331C181.969 38.5331 182.029 38.0881 182.027 38.0897C182.058 37.9054 182.098 37.7244 182.138 37.5418C182.147 37.5003 182.152 37.4737 182.153 37.4571C182.16 37.4405 182.163 37.4272 182.17 37.4073C182.242 37.1997 182.311 36.9922 182.395 36.7879C182.42 36.7265 182.544 36.4857 182.579 36.4127C182.683 36.23 182.786 36.0474 182.894 35.8664C182.907 35.8448 182.915 35.8282 182.927 35.8099C182.947 35.7883 182.972 35.7618 183 35.7286C183.142 35.5675 183.277 35.3965 183.415 35.2321C183.428 35.2155 183.453 35.1889 183.48 35.164C183.614 35.0345 183.753 34.9083 183.896 34.7871C184.35 34.4002 185.132 33.9054 185.741 33.6696C186.352 33.4321 186.981 33.2744 187.619 33.1914V38.4152C187.619 39.5244 188.572 40.0225 189.521 39.5111C190.597 38.9316 191.351 37.5534 191.351 36.3463V33.5318C192.837 34.0199 194.204 34.9697 195.181 36.1686C196.399 37.663 197.005 39.3833 197.026 41.1699C197.025 41.3609 197.02 41.5518 197.008 41.7428L197.01 41.7478ZM183.515 35.1341C183.576 35.0727 183.623 35.0295 183.515 35.1341V35.1341ZM148.024 41.7478C148.012 41.7876 147.959 42.1911 147.959 42.1894C147.929 42.3621 147.892 42.5332 147.854 42.7025C147.897 42.495 147.764 43.0247 147.744 43.0795C147.671 43.287 147.586 43.4879 147.506 43.6922C147.496 43.7171 147.488 43.7387 147.48 43.7603C147.463 43.7852 147.443 43.8151 147.421 43.8532C147.345 43.9761 147.28 44.1056 147.205 44.2285C147.167 44.2899 147.127 44.3497 147.089 44.4112C147.067 44.4394 147.034 44.4842 146.985 44.549C146.844 44.71 146.709 44.8811 146.571 45.0455C146.543 45.0787 146.521 45.1069 146.501 45.1301C146.476 45.1501 146.448 45.1733 146.413 45.2032C146.248 45.3427 146.093 45.4921 145.925 45.6283C145.91 45.6399 145.543 45.9089 145.586 45.8857C144.904 46.3356 144.284 46.6213 143.619 46.8172C140.445 47.7554 136.899 46.676 134.805 44.1073C133.782 42.8503 133.091 41.238 132.985 39.7951C132.955 39.3783 132.946 38.9515 132.976 38.5331C132.983 38.5331 133.043 38.0881 133.041 38.0897C133.073 37.9054 133.113 37.7244 133.153 37.5418C133.161 37.5003 133.166 37.4737 133.168 37.4571C133.174 37.4405 133.178 37.4272 133.184 37.4073C133.256 37.1997 133.326 36.9922 133.409 36.7879C133.434 36.7265 133.559 36.4857 133.594 36.4127C133.697 36.23 133.8 36.0474 133.908 35.8664C133.921 35.8448 133.93 35.8282 133.941 35.8099C133.961 35.7883 133.986 35.7618 134.015 35.7286C134.156 35.5675 134.291 35.3965 134.429 35.2321C134.442 35.2155 134.467 35.1889 134.494 35.164C134.629 35.0345 134.767 34.9083 134.91 34.7871C135.364 34.4002 136.147 33.9054 136.756 33.6696C137.366 33.4321 137.995 33.2744 138.633 33.1914V38.4152C138.633 39.5244 139.586 40.0225 140.535 39.5111C141.612 38.9316 142.366 37.5534 142.366 36.3463V33.5318C143.852 34.0199 145.218 34.9697 146.195 36.1686C147.413 37.663 148.019 39.3833 148.041 41.1699C148.039 41.3609 148.034 41.5518 148.022 41.7428L148.024 41.7478ZM134.529 35.1341C134.59 35.0727 134.637 35.0295 134.529 35.1341V35.1341ZM99.0382 41.7478C99.0266 41.7876 98.9733 42.1911 98.9733 42.1894C98.9434 42.3621 98.9067 42.5332 98.8685 42.7025C98.9117 42.495 98.7786 43.0247 98.7586 43.0795C98.6854 43.287 98.6005 43.4879 98.5206 43.6922C98.5107 43.7171 98.5023 43.7387 98.494 43.7603C98.4774 43.7852 98.4574 43.8151 98.4358 43.8532C98.3592 43.9761 98.2943 44.1056 98.2194 44.2285C98.1812 44.2899 98.1412 44.3497 98.1029 44.4112C98.0813 44.4394 98.048 44.4842 97.9997 44.549C97.8583 44.71 97.7235 44.8811 97.5854 45.0455C97.5571 45.0787 97.5354 45.1069 97.5155 45.1301C97.4905 45.1501 97.4622 45.1733 97.4273 45.2032C97.2625 45.3427 97.1077 45.4921 96.9397 45.6283C96.9247 45.6399 96.5569 45.9089 96.6002 45.8857C95.9178 46.3356 95.2988 46.6213 94.6331 46.8172C91.4594 47.7554 87.913 46.676 85.8195 44.1073C84.796 42.8503 84.1054 41.238 83.9988 39.7951C83.9689 39.3783 83.9606 38.9515 83.9905 38.5331C83.9972 38.5331 84.0571 38.0881 84.0554 38.0897C84.087 37.9054 84.127 37.7244 84.1669 37.5418C84.1752 37.5003 84.1802 37.4737 84.1819 37.4571C84.1886 37.4405 84.1919 37.4272 84.1985 37.4073C84.2701 37.1997 84.34 36.9922 84.4232 36.7879C84.4482 36.7265 84.573 36.4857 84.6079 36.4127C84.7111 36.23 84.8143 36.0474 84.9225 35.8664C84.9358 35.8448 84.9441 35.8282 84.9558 35.8099C84.9757 35.7883 85.0007 35.7618 85.029 35.7286C85.1704 35.5675 85.3052 35.3965 85.4434 35.2321C85.4567 35.2155 85.4816 35.1889 85.5083 35.164C85.6431 35.0345 85.7812 34.9083 85.9243 34.7871C86.3786 34.4002 87.1608 33.9054 87.7699 33.6696C88.3807 33.4321 89.0098 33.2744 89.6471 33.1914V38.4152C89.6471 39.5244 90.6007 40.0225 91.5493 39.5111C92.6261 38.9316 93.3799 37.5534 93.3799 36.3463V33.5318C94.8661 34.0199 96.2324 34.9697 97.2093 36.1686C98.4275 37.663 99.0332 39.3833 99.0549 41.1699C99.0532 41.3609 99.0482 41.5518 99.0365 41.7428L99.0382 41.7478ZM85.5432 35.1341C85.6048 35.0727 85.6514 35.0295 85.5432 35.1341V35.1341ZM50.0542 41.7478C50.0425 41.7876 49.9893 42.1911 49.9893 42.1894C49.9593 42.3621 49.9227 42.5332 49.8844 42.7025C49.9277 42.495 49.7946 43.0247 49.7746 43.0795C49.7014 43.287 49.6165 43.4879 49.5366 43.6922C49.5266 43.7171 49.5183 43.7387 49.51 43.7603C49.4933 43.7852 49.4734 43.8151 49.4517 43.8532C49.3752 43.9761 49.3103 44.1056 49.2354 44.2285C49.1971 44.2899 49.1572 44.3497 49.1189 44.4112C49.0973 44.4394 49.064 44.4842 49.0157 44.549C48.8743 44.71 48.7395 44.8811 48.6013 45.0455C48.573 45.0787 48.5514 45.1069 48.5314 45.1301C48.5065 45.1501 48.4782 45.1733 48.4432 45.2032C48.2785 45.3427 48.1237 45.4921 47.9556 45.6283C47.9406 45.6399 47.5729 45.9089 47.6161 45.8857C46.9338 46.3356 46.3147 46.6213 45.649 46.8172C42.4754 47.7554 38.929 46.676 36.8354 44.1073C35.812 42.8503 35.1213 41.238 35.0148 39.7951C34.9849 39.3783 34.9765 38.9515 35.0065 38.5331C35.0131 38.5331 35.0731 38.0881 35.0714 38.0897C35.103 37.9054 35.143 37.7244 35.1829 37.5418C35.1912 37.5003 35.1962 37.4737 35.1979 37.4571C35.2045 37.4405 35.2079 37.4272 35.2145 37.4073C35.2861 37.1997 35.356 36.9922 35.4392 36.7879C35.4641 36.7265 35.589 36.4857 35.6239 36.4127C35.7271 36.23 35.8303 36.0474 35.9384 35.8664C35.9518 35.8448 35.9601 35.8282 35.9717 35.8099C35.9917 35.7883 36.0167 35.7618 36.0449 35.7286C36.1864 35.5675 36.3212 35.3965 36.4593 35.2321C36.4726 35.2155 36.4976 35.1889 36.5242 35.164C36.659 35.0345 36.7972 34.9083 36.9403 34.7871C37.3946 34.4002 38.1768 33.9054 38.7859 33.6696C39.3966 33.4321 40.0257 33.2744 40.6631 33.1914V38.4152C40.6631 39.5244 41.6167 40.0225 42.5653 39.5111C43.642 38.9316 44.3959 37.5534 44.3959 36.3463V33.5318C45.882 34.0199 47.2483 34.9697 48.2252 36.1686C49.4434 37.663 50.0492 39.3833 50.0708 41.1699C50.0692 41.3609 50.0642 41.5518 50.0525 41.7428L50.0542 41.7478ZM36.5592 35.1325C36.6208 35.071 36.6657 35.0295 36.5592 35.1325V35.1325ZM3.74118 22.747C3.80608 19.5257 6.54203 17.5962 9.61913 17.5281C10.2931 17.5132 10.9688 17.5281 11.6428 17.5281H40.6631V28.7596C38.1269 29.3922 35.8086 30.9032 34.1394 33.0486C31.069 36.9972 30.2053 42.5664 32.873 46.955C35.2212 50.8173 39.9791 52.6504 44.341 51.5827C49.8378 50.2361 53.6239 44.8628 53.797 39.35C53.8036 39.2687 53.8053 39.1873 53.8053 39.1076C53.7504 34.6409 51.0544 30.3984 46.7141 28.9671C45.9486 28.7147 45.1714 28.5553 44.3959 28.4789V17.5281H89.6471V28.7596C87.1109 29.3922 84.7927 30.9032 83.1235 33.0486C80.053 36.9972 79.1893 42.5664 81.857 46.955C84.2052 50.8173 88.9632 52.6504 93.325 51.5827C98.8219 50.2361 102.608 44.8628 102.781 39.35C102.788 39.2687 102.789 39.189 102.789 39.1076C102.734 34.6409 100.038 30.3984 95.6982 28.9671C94.9326 28.7147 94.1554 28.5553 93.3799 28.4789V17.5281H138.631V28.7596C136.095 29.3922 133.777 30.9032 132.108 33.0486C129.035 36.9972 128.173 42.5664 130.841 46.955C133.189 50.8173 137.947 52.6504 142.309 51.5827C147.806 50.2361 151.592 44.8628 151.765 39.35C151.772 39.2687 151.773 39.189 151.773 39.1076C151.718 34.6409 149.022 30.3984 144.682 28.9671C143.917 28.7147 143.139 28.5553 142.364 28.4789V17.5281H187.615V28.7596C185.079 29.3922 182.761 30.9032 181.092 33.0486C178.019 36.9972 177.157 42.5664 179.825 46.955C182.173 50.8173 186.931 52.6504 191.293 51.5827C196.79 50.2361 200.576 44.8628 200.749 39.35C200.756 39.2687 200.757 39.189 200.757 39.1076C200.702 34.6409 198.006 30.3984 193.666 28.9671C192.901 28.7147 192.124 28.5553 191.348 28.4789V17.5281H236.599V28.7596C234.063 29.3922 231.745 30.9032 230.076 33.0486C227.003 36.9972 226.141 42.5664 228.809 46.955C231.157 50.8173 235.915 52.6504 240.277 51.5827C245.774 50.2361 249.56 44.8628 249.733 39.35C249.74 39.2687 249.741 39.1873 249.741 39.1076C249.687 34.6409 246.991 30.3984 242.65 28.9671C241.885 28.7147 241.108 28.5553 240.332 28.4789V17.5281H267.572C268.246 17.5281 268.921 17.5149 269.595 17.5281C273.967 17.6112 277.242 20.9304 277.254 25.2593C277.264 28.7629 277.254 32.2665 277.254 35.7701V70.4174H14.0193C10.5943 70.4174 7.1661 70.3776 3.74118 70.4141V23.3165C3.74118 23.1272 3.73785 22.9363 3.74118 22.747ZM180.349 288.226H19.2149C16.6138 288.226 14.0093 288.271 11.4098 288.226C7.08123 288.15 3.75948 284.871 3.74284 280.558C3.73785 279.398 3.74284 278.235 3.74284 277.075V75.1448H266.983C270.407 75.1448 273.836 75.1847 277.261 75.1481V248.739H247.859C245.839 248.739 243.787 248.564 241.955 249.617C239.348 251.115 237.741 254.022 237.684 256.995C237.676 257.415 237.684 257.835 237.684 258.255V275.879C237.684 279.992 237.624 284.11 237.648 288.225H180.348L180.349 288.226ZM277.261 283.001C277.196 286.221 274.466 288.158 271.386 288.225H244.231C247.297 285.166 250.362 282.108 253.428 279.049C260.532 271.96 267.635 264.874 274.739 257.785C275.58 256.946 276.42 256.108 277.259 255.271V282.421C277.259 282.614 277.262 282.808 277.259 283.001H277.261Z" fill="#11418B"/>
<path d="M241.865 253.979C241.865 253.979 241.855 253.987 241.85 253.991C241.835 254.002 241.82 254.014 241.805 254.025C241.748 254.072 241.727 254.094 241.865 253.979Z" fill="#11418B"/>
<path d="M217.554 145.039C216.405 142.743 213.971 141.168 211.415 141.018C210.964 140.993 210.509 141.005 210.057 141.005H192.467C187.206 141.007 181.947 140.991 176.688 141.007C171.846 141.022 167.738 144.928 167.135 149.732C166.909 151.531 167.035 153.401 167.035 155.208V175.369C167.035 176.961 167.01 178.554 167.035 180.146C167.104 184.459 170.347 187.975 174.718 187.991C179.928 188.009 185.14 187.991 190.352 187.991H209.105C214.509 187.886 218.458 182.94 218.486 177.719C218.496 175.702 218.486 173.684 218.486 171.665V151.734C218.486 149.422 218.628 147.187 217.554 145.039ZM213.393 182.149C213.275 182.24 213.333 182.195 213.393 182.149V182.149ZM214.433 167.16V179.343C214.433 179.567 214.433 179.793 214.433 180.017C214.433 180.059 214.433 180.102 214.433 180.144C214.435 180.225 214.433 180.319 214.428 180.401C214.44 180.075 214.317 180.873 214.33 180.934C214.319 180.972 214.308 181.006 214.305 181.014C214.269 181.099 214.236 181.186 214.202 181.272C214.256 181.113 214.086 181.415 214.041 181.522C213.98 181.596 213.898 181.699 213.828 181.784C213.794 181.802 213.541 182.032 213.438 182.115C213.311 182.195 213.183 182.271 213.051 182.341C212.813 182.47 212.661 182.529 212.589 182.555C212.087 182.73 211.565 182.835 211.04 182.846H179.502C178.072 182.846 176.48 183.005 175.07 182.703C173.076 182.274 171.402 180.366 171.131 178.645C171.046 178.102 171.088 177.507 171.088 176.957V150.885C171.088 150.251 171.084 149.616 171.088 148.981C171.088 148.94 171.088 148.9 171.088 148.858C171.088 148.788 171.088 148.715 171.091 148.643C171.091 148.744 171.137 148.406 171.171 148.174C171.182 148.189 171.287 147.856 171.33 147.702C171.33 147.699 171.333 147.697 171.335 147.693C171.335 147.693 171.373 147.634 171.411 147.567C171.353 147.675 171.574 147.353 171.7 147.2C171.711 147.191 171.722 147.183 171.738 147.171C171.861 147.073 171.976 146.97 172.097 146.872C172.135 146.858 172.399 146.693 172.468 146.655C172.823 146.464 172.791 146.482 173.044 146.404C173.515 146.257 173.994 146.162 174.481 146.151C174.572 146.149 174.662 146.151 174.752 146.151C175.402 146.149 176.054 146.151 176.704 146.151H204.289C205.86 146.151 207.433 146.133 209.004 146.151C210.539 146.167 212.027 146.666 213.084 147.831C214.054 148.9 214.426 150.007 214.431 151.291C214.456 156.579 214.431 161.867 214.431 167.155L214.433 167.16Z" fill="#11418B"/>
<path d="M218.308 199.038C217.16 196.743 214.725 195.166 212.17 195.018C211.718 194.993 211.263 195.005 210.812 195.005H193.222C187.963 195.005 182.702 194.989 177.443 195.005C172.603 195.02 168.493 198.926 167.891 203.731C167.665 205.531 167.792 207.401 167.792 209.208V229.369C167.792 230.961 167.767 232.554 167.792 234.145C167.861 238.459 171.104 241.975 175.474 241.991C180.685 242.009 185.897 241.991 191.109 241.991H209.862C215.265 241.886 219.215 236.94 219.242 231.718C219.253 229.702 219.242 227.684 219.242 225.665V205.733C219.242 203.422 219.385 201.187 218.31 199.038H218.308ZM214.147 236.149C214.03 236.24 214.088 236.194 214.147 236.149V236.149ZM215.188 221.16V233.342C215.188 233.567 215.188 233.793 215.188 234.017C215.188 234.059 215.188 234.102 215.188 234.144C215.19 234.225 215.188 234.319 215.182 234.4C215.195 234.075 215.072 234.872 215.085 234.934C215.074 234.972 215.063 235.006 215.059 235.014C215.023 235.099 214.991 235.185 214.957 235.272C215.011 235.113 214.841 235.415 214.796 235.522C214.734 235.596 214.653 235.699 214.583 235.784C214.548 235.802 214.296 236.032 214.193 236.115C214.066 236.194 213.938 236.27 213.806 236.341C213.568 236.469 213.416 236.529 213.344 236.554C212.842 236.73 212.32 236.835 211.794 236.846H180.257C178.826 236.846 177.235 237.005 175.825 236.703C173.831 236.274 172.157 234.366 171.886 232.644C171.801 232.102 171.843 231.507 171.843 230.957V204.885C171.843 204.25 171.839 203.616 171.843 202.981C171.843 202.939 171.843 202.9 171.843 202.858C171.843 202.787 171.843 202.715 171.846 202.643C171.846 202.744 171.891 202.406 171.926 202.174C171.937 202.189 172.041 201.856 172.085 201.702C172.085 201.699 172.088 201.697 172.09 201.693C172.09 201.693 172.128 201.634 172.166 201.567C172.108 201.675 172.328 201.353 172.455 201.199C172.466 201.19 172.477 201.183 172.493 201.171C172.616 201.073 172.731 200.97 172.852 200.872C172.89 200.858 173.154 200.693 173.222 200.655C173.578 200.463 173.546 200.482 173.799 200.404C174.27 200.257 174.748 200.161 175.236 200.151C175.326 200.149 175.417 200.151 175.507 200.151C176.157 200.149 176.809 200.151 177.459 200.151H205.044C206.615 200.151 208.188 200.132 209.759 200.151C211.294 200.167 212.782 200.666 213.839 201.831C214.808 202.9 215.18 204.006 215.186 205.29C215.211 210.579 215.186 215.867 215.186 221.155L215.188 221.16Z" fill="#11418B"/>
<path d="M218.552 91.0402C217.403 88.7452 214.969 87.1682 212.413 87.0199C211.962 86.9946 211.507 87.0072 211.055 87.0072H193.465C188.206 87.0072 182.945 86.991 177.686 87.0072C172.846 87.0217 168.736 90.9281 168.135 95.7334C167.909 97.5329 168.035 99.4029 168.035 101.21V121.371C168.035 122.963 168.01 124.556 168.035 126.147C168.104 130.461 171.347 133.976 175.718 133.993C180.928 134.011 186.14 133.993 191.352 133.993H210.105C215.509 133.888 219.458 128.942 219.486 123.72C219.496 121.704 219.486 119.686 219.486 117.667V97.7354C219.486 95.4241 219.628 93.1888 218.554 91.0402H218.552ZM214.391 128.151C214.273 128.242 214.331 128.196 214.391 128.151V128.151ZM215.433 113.162V125.344C215.433 125.569 215.433 125.795 215.433 126.019C215.433 126.061 215.433 126.104 215.433 126.146C215.435 126.227 215.433 126.321 215.428 126.402C215.44 126.077 215.317 126.874 215.33 126.936C215.319 126.974 215.308 127.008 215.305 127.015C215.269 127.1 215.236 127.187 215.202 127.274C215.256 127.115 215.086 127.417 215.041 127.524C214.98 127.598 214.898 127.701 214.828 127.786C214.794 127.802 214.541 128.034 214.438 128.117C214.311 128.196 214.183 128.272 214.051 128.343C213.813 128.471 213.661 128.531 213.589 128.556C213.087 128.732 212.565 128.837 212.04 128.848H180.502C179.072 128.848 177.48 129.007 176.07 128.705C174.076 128.276 172.402 126.368 172.131 124.646C172.046 124.104 172.088 123.509 172.088 122.959V96.8872C172.088 96.2524 172.084 95.6176 172.088 94.9828C172.088 94.9412 172.088 94.9015 172.088 94.8599C172.088 94.7893 172.088 94.717 172.091 94.6446C172.091 94.7459 172.137 94.4077 172.171 94.1762C172.182 94.1907 172.287 93.8579 172.33 93.7042C172.33 93.7006 172.333 93.6988 172.335 93.6952C172.335 93.6952 172.373 93.6355 172.411 93.5686C172.353 93.6771 172.574 93.3552 172.7 93.2014C172.711 93.1924 172.722 93.1852 172.738 93.1725C172.861 93.0748 172.976 92.9718 173.097 92.8741C173.135 92.8596 173.399 92.6951 173.468 92.6571C173.823 92.4654 173.791 92.4835 174.044 92.4057C174.515 92.2592 174.994 92.1633 175.481 92.1525C175.572 92.1507 175.662 92.1525 175.752 92.1525C176.402 92.1507 177.054 92.1525 177.704 92.1525H205.289C206.86 92.1525 208.433 92.1344 210.004 92.1525C211.539 92.1688 213.027 92.6679 214.084 93.8326C215.054 94.9015 215.426 96.0083 215.431 97.2923C215.456 102.58 215.431 107.869 215.431 113.157L215.433 113.162Z" fill="#11418B"/>
</g>
<defs>
<clipPath id="clip0_146_353">
<rect width="281" height="293" fill="white"/>
</clipPath>
</defs>
</svg>
