<svg width="35" height="35" viewBox="0 0 35 35" fill="none" xmlns="http://www.w3.org/2000/svg">
<g clip-path="url(#clip0_146_365)">
<path d="M31.1111 12.8527V29.1666H3.88891V7.7777H6.80557V5.83325H3.64585C3.41858 5.83705 3.19429 5.88558 2.98578 5.97608C2.77727 6.06658 2.58863 6.19726 2.43063 6.36067C2.27264 6.52409 2.14838 6.71702 2.06497 6.92846C1.98155 7.1399 1.9406 7.36571 1.94446 7.59297V29.3513C1.9406 29.5786 1.98155 29.8044 2.06497 30.0158C2.14838 30.2273 2.27264 30.4202 2.43063 30.5836C2.58863 30.747 2.77727 30.8777 2.98578 30.9682C3.19429 31.0587 3.41858 31.1072 3.64585 31.111H31.3542C31.5815 31.1072 31.8057 31.0587 32.0143 30.9682C32.2228 30.8777 32.4114 30.747 32.5694 30.5836C32.7274 30.4202 32.8517 30.2273 32.9351 30.0158C33.0185 29.8044 33.0594 29.5786 33.0556 29.3513V11.9971C32.4527 12.3757 31.7976 12.664 31.1111 12.8527Z" fill="white"/>
<path d="M7.77783 13.6111H9.72228V15.5555H7.77783V13.6111Z" fill="white"/>
<path d="M13.6111 13.6111H15.5555V15.5555H13.6111V13.6111Z" fill="white"/>
<path d="M19.4445 13.6111H21.3889V15.5555H19.4445V13.6111Z" fill="white"/>
<path d="M25.2778 13.6111H27.2223V15.5555H25.2778V13.6111Z" fill="white"/>
<path d="M7.77783 18.4722H9.72228V20.4166H7.77783V18.4722Z" fill="white"/>
<path d="M13.6111 18.4722H15.5555V20.4166H13.6111V18.4722Z" fill="white"/>
<path d="M19.4445 18.4722H21.3889V20.4166H19.4445V18.4722Z" fill="white"/>
<path d="M25.2778 18.4722H27.2223V20.4166H25.2778V18.4722Z" fill="white"/>
<path d="M7.77783 23.3333H9.72228V25.2777H7.77783V23.3333Z" fill="white"/>
<path d="M13.6111 23.3333H15.5555V25.2777H13.6111V23.3333Z" fill="white"/>
<path d="M19.4445 23.3333H21.3889V25.2777H19.4445V23.3333Z" fill="white"/>
<path d="M25.2778 23.3333H27.2223V25.2777H25.2778V23.3333Z" fill="white"/>
<path d="M9.72222 9.72211C9.98007 9.72211 10.2274 9.61968 10.4097 9.43736C10.592 9.25503 10.6944 9.00774 10.6944 8.74989V2.91656C10.6944 2.65871 10.592 2.41142 10.4097 2.22909C10.2274 2.04677 9.98007 1.94434 9.72222 1.94434C9.46437 1.94434 9.21708 2.04677 9.03476 2.22909C8.85243 2.41142 8.75 2.65871 8.75 2.91656V8.74989C8.75 9.00774 8.85243 9.25503 9.03476 9.43736C9.21708 9.61968 9.46437 9.72211 9.72222 9.72211Z" fill="white"/>
<path d="M21.875 5.83325H12.6389V7.7777H22.1473C21.9693 7.14478 21.8777 6.49071 21.875 5.83325Z" fill="white"/>
<path d="M29.1667 10.6944C31.8514 10.6944 34.0278 8.518 34.0278 5.83328C34.0278 3.14856 31.8514 0.972168 29.1667 0.972168C26.4819 0.972168 24.3055 3.14856 24.3055 5.83328C24.3055 8.518 26.4819 10.6944 29.1667 10.6944Z" fill="white"/>
</g>
<defs>
<clipPath id="clip0_146_365">
<rect width="35" height="35" fill="white"/>
</clipPath>
</defs>
</svg>
