<svg width="58" height="58" viewBox="0 0 58 58" fill="none" xmlns="http://www.w3.org/2000/svg">
<path d="M28.7958 19.1972C39.3981 19.1972 47.993 15.9741 47.993 11.9983C47.993 8.02239 39.3981 4.79932 28.7958 4.79932C18.1935 4.79932 9.59863 8.02239 9.59863 11.9983C9.59863 15.9741 18.1935 19.1972 28.7958 19.1972Z" stroke="#306E57" stroke-width="4"/>
<path d="M16.7974 26.0171C18.242 26.449 19.8545 26.809 21.5967 27.0729" stroke="#306E57" stroke-width="4" stroke-linecap="round"/>
<path d="M47.993 28.7959C47.993 32.7721 39.3974 35.9948 28.7958 35.9948C18.1942 35.9948 9.59863 32.7721 9.59863 28.7959" stroke="#306E57" stroke-width="4"/>
<path d="M16.7974 42.8145C18.242 43.2464 19.8545 43.6063 21.5967 43.8703" stroke="#306E57" stroke-width="4" stroke-linecap="round"/>
<path d="M47.993 11.9983V45.5933C47.993 49.5695 39.3974 52.7923 28.7958 52.7923C18.1942 52.7923 9.59863 49.5695 9.59863 45.5933V11.9983" stroke="#306E57" stroke-width="4"/>
</svg>
