<svg width="41" height="57" viewBox="0 0 41 57" fill="none" xmlns="http://www.w3.org/2000/svg">
<path d="M39.9453 14.8021L25.7515 0.608304C25.346 0.202768 24.9404 0 24.3321 0H4.05536C1.82491 0 0 1.82491 0 4.05536V52.7196C0 54.9501 1.82491 56.775 4.05536 56.775H36.4982C38.7287 56.775 40.5536 54.9501 40.5536 52.7196V16.2214C40.5536 15.6131 40.3508 15.2076 39.9453 14.8021ZM24.3321 4.86643L35.6871 16.2214H24.3321V4.86643ZM36.4982 52.7196H4.05536V4.05536H20.2768V16.2214C20.2768 18.4519 22.1017 20.2768 24.3321 20.2768H36.4982V52.7196Z" fill="#306E57"/>
<path d="M8.11084 40.5536H32.443V44.6089H8.11084V40.5536ZM8.11084 28.3875H32.443V32.4429H8.11084V28.3875Z" fill="#306E57"/>
</svg>
