<svg width="20" height="20" viewBox="0 0 20 20" fill="none" xmlns="http://www.w3.org/2000/svg">
<path d="M10 0C8.02219 0 6.08879 0.58649 4.4443 1.6853C2.79981 2.78412 1.51809 4.3459 0.761209 6.17316C0.00433284 8.00042 -0.1937 10.0111 0.192152 11.9509C0.578004 13.8907 1.53041 15.6725 2.92894 17.0711C4.32746 18.4696 6.10929 19.422 8.0491 19.8078C9.98891 20.1937 11.9996 19.9957 13.8268 19.2388C15.6541 18.4819 17.2159 17.2002 18.3147 15.5557C19.4135 13.9112 20 11.9778 20 10C19.9969 7.34877 18.9424 4.80701 17.0677 2.9323C15.193 1.0576 12.6512 0.00305383 10 0ZM18.4615 10C18.4622 10.7803 18.3544 11.557 18.1413 12.3077H14.4385C14.6744 10.7783 14.6744 9.22172 14.4385 7.69231H18.1413C18.3544 8.44299 18.4622 9.21965 18.4615 10ZM7.5 13.8462H12.5C12.0074 15.4602 11.1523 16.9402 10 18.1731C8.84815 16.9399 7.99309 15.46 7.5 13.8462ZM7.125 12.3077C6.86091 10.7806 6.86091 9.21943 7.125 7.69231H12.8827C13.1468 9.21943 13.1468 10.7806 12.8827 12.3077H7.125ZM1.53847 10C1.5378 9.21965 1.64556 8.44299 1.85866 7.69231H5.56154C5.32564 9.22172 5.32564 10.7783 5.56154 12.3077H1.85866C1.64556 11.557 1.5378 10.7803 1.53847 10ZM12.5 6.15384H7.5C7.99259 4.53982 8.84771 3.05979 10 1.82692C11.1519 3.06012 12.0069 4.54003 12.5 6.15384ZM17.5317 6.15384H14.1067C13.6751 4.5701 12.9475 3.08238 11.9625 1.76923C13.1526 2.05512 14.2668 2.59498 15.2288 3.35178C16.1907 4.10859 16.9776 5.06445 17.5356 6.15384H17.5317ZM8.0375 1.76923C7.0525 3.08238 6.32495 4.5701 5.89327 6.15384H2.46443C3.02238 5.06445 3.8093 4.10859 4.77124 3.35178C5.73318 2.59498 6.8474 2.05512 8.0375 1.76923ZM2.46443 13.8462H5.89327C6.32495 15.4299 7.0525 16.9176 8.0375 18.2308C6.8474 17.9449 5.73318 17.405 4.77124 16.6482C3.8093 15.8914 3.02238 14.9355 2.46443 13.8462ZM11.9625 18.2308C12.9475 16.9176 13.6751 15.4299 14.1067 13.8462H17.5356C16.9776 14.9355 16.1907 15.8914 15.2288 16.6482C14.2668 17.405 13.1526 17.9449 11.9625 18.2308Z" fill="white"/>
</svg>
