<svg width="112" height="112" viewBox="0 0 112 112" fill="none" xmlns="http://www.w3.org/2000/svg">
<path fill-rule="evenodd" clip-rule="evenodd" d="M51.6709 15.9628C51.6758 15.6044 51.8212 15.2621 52.076 15.0098C52.3307 14.7575 52.6743 14.6154 53.0328 14.614C53.3914 14.6125 53.7361 14.752 53.9928 15.0023C54.2495 15.2526 54.3976 15.5937 54.4053 15.9521L54.4066 16.1593C55.261 16.4405 56.0055 16.9831 56.5348 17.7104C57.0641 18.4377 57.3514 19.313 57.3562 20.2125C57.3514 20.571 57.2059 20.9132 56.9511 21.1655C56.6964 21.4178 56.3527 21.5599 55.9942 21.5613C55.6357 21.5626 55.291 21.4232 55.0343 21.1728C54.7776 20.9225 54.6295 20.5814 54.6219 20.223C54.6194 19.968 54.5542 19.7175 54.4319 19.4936C54.3097 19.2698 54.1342 19.0795 53.921 18.9395C53.7078 18.7996 53.4634 18.7143 53.2094 18.6912C52.9554 18.6681 52.6996 18.708 52.4647 18.8072C52.2297 18.9064 52.0228 19.0619 51.8622 19.2601C51.7016 19.4582 51.5923 19.6928 51.5439 19.9432C51.4955 20.1936 51.5095 20.4521 51.5847 20.6958C51.6599 20.9395 51.7939 21.161 51.975 21.3406C52.887 22.241 54.4044 21.3334 56.1183 23.025C56.6388 23.5379 57.0196 24.1752 57.2246 24.8765C57.4297 25.5778 57.4522 26.3199 57.2901 27.0324C57.1279 27.7448 56.7865 28.4041 56.2981 28.9476C55.8098 29.4911 55.1907 29.9009 54.4996 30.1381L54.5009 30.3537C54.496 30.7122 54.3506 31.0545 54.0959 31.3068C53.8411 31.5591 53.4975 31.7012 53.139 31.7026C52.7804 31.704 52.4357 31.5646 52.179 31.3143C51.9223 31.064 51.7742 30.7229 51.7665 30.3645L51.765 30.1573C50.9108 29.8761 50.1666 29.3336 49.6375 28.6065C49.1084 27.8793 48.8212 27.0042 48.8165 26.105C48.8126 25.9234 48.8449 25.7429 48.9115 25.574C48.9782 25.4051 49.0778 25.2512 49.2046 25.1212C49.3313 24.9912 49.4827 24.8877 49.6499 24.8168C49.8171 24.746 49.9967 24.7091 50.1783 24.7084C50.3599 24.7077 50.5398 24.7432 50.7075 24.8128C50.8752 24.8824 51.0274 24.9846 51.1552 25.1137C51.2829 25.2427 51.3837 25.3959 51.4517 25.5643C51.5196 25.7327 51.5533 25.9129 51.5508 26.0945C51.5533 26.3495 51.6185 26.6 51.7407 26.8238C51.863 27.0477 52.0385 27.238 52.2517 27.3779C52.4649 27.5179 52.7093 27.6031 52.9633 27.6262C53.2173 27.6493 53.4731 27.6095 53.708 27.5103C53.943 27.4111 54.1499 27.2556 54.3105 27.0574C54.4711 26.8593 54.5804 26.6246 54.6288 26.3742C54.6772 26.1238 54.6632 25.8654 54.588 25.6216C54.5128 25.3779 54.3788 25.1565 54.1977 24.9769C53.2857 24.0765 51.7683 24.9841 50.0541 23.2925C49.5338 22.7796 49.153 22.1423 48.948 21.441C48.743 20.7396 48.7205 19.9976 48.8826 19.2851C49.0447 18.5727 49.3861 17.9135 49.8745 17.3699C50.3628 16.8264 50.9818 16.4166 51.6729 16.1794L51.6714 15.9637L51.6709 15.9628ZM60.0515 16.1035C58.6562 14.7258 56.8838 13.7928 54.9583 13.4224C53.0327 13.0521 51.0407 13.261 49.2339 14.0229C47.4271 14.7847 45.8869 16.0652 44.8079 17.7024C43.7288 19.3396 43.1595 21.26 43.172 23.2208C43.1844 25.1815 43.778 27.0946 44.8776 28.718C45.9773 30.3414 47.5337 31.6023 49.3499 32.3411C51.1662 33.08 53.1608 33.2637 55.0814 32.869C57.0021 32.4743 58.7626 31.5189 60.1403 30.1236C61.9872 28.2524 63.0153 25.7243 62.9987 23.0952C62.982 20.4661 61.9219 17.9512 60.0515 16.1035ZM61.971 14.1516C60.1897 12.3943 57.9273 11.2046 55.4698 10.7331C53.0124 10.2616 50.4704 10.5294 48.1651 11.5026C45.8599 12.4758 43.895 14.1107 42.519 16.2006C41.1429 18.2906 40.4175 20.7416 40.4344 23.2438C40.4514 25.746 41.2099 28.1869 42.6142 30.258C44.0184 32.3291 46.0053 33.9373 48.3235 34.8792C50.6417 35.8211 53.1871 36.0544 55.6379 35.5496C58.0887 35.0448 60.3348 33.8247 62.0922 32.0434C63.2592 30.8607 64.1818 29.4598 64.8073 27.9205C65.4328 26.3813 65.749 24.7338 65.7378 23.0724C65.7265 21.4109 65.388 19.7679 64.7417 18.2373C64.0954 16.7067 63.1539 15.3183 61.971 14.1516ZM27.3501 8.1865L19.1452 16.3912H27.3501V8.1865ZM102.122 54.2625H22.788L10.2484 105.755H89.7374L102.122 54.2625ZM80.187 51.5172H83.0066V18.5415H80.187V51.5172ZM74.3997 51.5172H77.4403V12.6105H74.3997V51.5172ZM22.7747 51.5172H71.6544V6.24531H30.0954V17.764C30.0953 18.1281 29.9507 18.4772 29.6933 18.7346C29.4359 18.992 29.0868 19.1366 28.7227 19.1367H17.2042V65.6272L20.1333 53.5992C20.274 53.0049 20.6117 52.4757 21.0914 52.0977C21.5711 51.7196 22.1646 51.515 22.7754 51.5172H22.7747ZM14.4594 31.1229V76.9009L9.87874 95.7082V32.4518C9.88017 32.0998 10.0206 31.7626 10.2696 31.5137C10.5185 31.2648 10.8556 31.1243 11.2076 31.1229H14.4594ZM85.7522 39.7375V17.1688C85.7521 16.8048 85.6075 16.4557 85.3501 16.1983C85.0927 15.9409 84.7436 15.7962 84.3795 15.7962H80.187V11.2376C80.1869 10.8736 80.0423 10.5245 79.7848 10.2671C79.5274 10.0097 79.1783 9.86503 78.8143 9.86497H74.3997V4.87266C74.3997 4.50861 74.2551 4.15947 73.9977 3.90204C73.7402 3.64462 73.3911 3.5 73.0271 3.5H28.7219C28.5393 3.49981 28.3586 3.53611 28.1903 3.60678C28.022 3.67744 27.8695 3.78103 27.7419 3.91147L14.8704 16.784C14.7399 16.9117 14.6362 17.0641 14.5655 17.2324C14.4948 17.4007 14.4585 17.5815 14.4587 17.764V28.3776H11.2076C10.1275 28.3789 9.09198 28.8086 8.3282 29.5723C7.56443 30.3361 7.13475 31.3716 7.13342 32.4518V107.127C7.13348 107.491 7.27812 107.84 7.53553 108.098C7.79294 108.355 8.14205 108.5 8.50608 108.5H89.7498C90.3621 108.502 90.9571 108.297 91.4372 107.917C91.9174 107.537 92.2544 107.005 92.393 106.409L104.788 54.8763C104.889 54.4774 104.896 54.0604 104.809 53.6583C104.721 53.2561 104.542 52.8797 104.284 52.5586C104.031 52.2331 103.706 51.97 103.335 51.7895C102.964 51.609 102.557 51.5158 102.144 51.5172H92.0281V42.4609C92.0273 41.7389 91.7401 41.0466 91.2295 40.536C90.719 40.0255 90.0267 39.7383 89.3047 39.7375H85.7522ZM89.2826 51.5172H85.7522V42.4828H89.2826V51.5172ZM19.2574 101.145C18.8963 101.141 18.5516 100.994 18.2979 100.737C18.0442 100.48 17.9019 100.134 17.9019 99.7726C17.9019 99.4115 18.0442 99.065 18.2979 98.808C18.5516 98.5511 18.8963 98.4044 19.2574 98.3999H35.3937C35.7548 98.4044 36.0996 98.5511 36.3533 98.808C36.607 99.065 36.7493 99.4115 36.7493 99.7726C36.7493 100.134 36.607 100.48 36.3533 100.737C36.0996 100.994 35.7548 101.141 35.3937 101.145H19.2574ZM21.2187 95.8175C20.8547 95.8175 20.5055 95.6729 20.2481 95.4155C19.9907 95.1581 19.8461 94.8089 19.8461 94.4449C19.8461 94.0808 19.9907 93.7317 20.2481 93.4743C20.5055 93.2168 20.8547 93.0722 21.2187 93.0722H37.3544C37.7184 93.0722 38.0676 93.2168 38.325 93.4743C38.5824 93.7317 38.727 94.0808 38.727 94.4449C38.727 94.8089 38.5824 95.1581 38.325 95.4155C38.0676 95.6729 37.7184 95.8175 37.3544 95.8175H21.2187ZM23.1798 90.4899C22.9996 90.4899 22.8211 90.4544 22.6545 90.3854C22.488 90.3164 22.3367 90.2153 22.2092 90.0878C22.0818 89.9604 21.9806 89.8091 21.9117 89.6425C21.8427 89.476 21.8072 89.2975 21.8072 89.1172C21.8072 88.937 21.8427 88.7585 21.9117 88.5919C21.9806 88.4254 22.0818 88.2741 22.2092 88.1466C22.3367 88.0191 22.488 87.918 22.6545 87.849C22.8211 87.7801 22.9996 87.7446 23.1798 87.7446H39.3155C39.4957 87.7446 39.6742 87.7801 39.8408 87.849C40.0073 87.918 40.1586 88.0191 40.2861 88.1466C40.4136 88.2741 40.5147 88.4254 40.5837 88.5919C40.6526 88.7585 40.6881 88.937 40.6881 89.1172C40.6881 89.2975 40.6526 89.476 40.5837 89.6425C40.5147 89.8091 40.4136 89.9604 40.2861 90.0878C40.1586 90.2153 40.0073 90.3164 39.8408 90.3854C39.6742 90.4544 39.4957 90.4899 39.3155 90.4899H23.1798ZM21.9767 41.6649C21.6127 41.6649 21.2635 41.5203 21.0061 41.2628C20.7487 41.0054 20.604 40.6563 20.604 40.2922C20.604 39.9282 20.7487 39.579 21.0061 39.3216C21.2635 39.0642 21.6127 38.9196 21.9767 38.9196H46.9033C47.2673 38.9196 47.6165 39.0642 47.8739 39.3216C48.1313 39.579 48.2759 39.9282 48.2759 40.2922C48.2759 40.6563 48.1313 41.0054 47.8739 41.2628C47.6165 41.5203 47.2673 41.6649 46.9033 41.6649H21.9767ZM21.9767 46.3713C21.795 46.3736 21.6146 46.3398 21.446 46.2718C21.2775 46.2038 21.1241 46.1031 20.9948 45.9754C20.8654 45.8477 20.7627 45.6956 20.6927 45.5279C20.6226 45.3602 20.5865 45.1803 20.5865 44.9985C20.5865 44.8168 20.6226 44.6368 20.6927 44.4691C20.7627 44.3014 20.8654 44.1493 20.9948 44.0216C21.1241 43.8939 21.2775 43.7932 21.446 43.7252C21.6146 43.6573 21.795 43.6235 21.9767 43.6258H46.9033C47.085 43.6235 47.2654 43.6573 47.4339 43.7252C47.6025 43.7932 47.7559 43.8939 47.8852 44.0216C48.0145 44.1493 48.1172 44.3014 48.1873 44.4691C48.2574 44.6368 48.2935 44.8168 48.2935 44.9985C48.2935 45.1803 48.2574 45.3602 48.1873 45.5279C48.1172 45.6956 48.0145 45.8477 47.8852 45.9754C47.7559 46.1031 47.6025 46.2038 47.4339 46.2718C47.2654 46.3398 47.085 46.3736 46.9033 46.3713H21.9767Z" fill="#00853F"/>
</svg>
