<svg width="104" height="104" viewBox="0 0 104 104" fill="none" xmlns="http://www.w3.org/2000/svg">
<path d="M102.375 2.1123H25.1875C24.375 2.1123 23.5625 2.7623 23.5625 3.7373V55.8998H1.625C0.8125 55.8998 0 56.5498 0 57.5248V88.7248C0 96.0373 6.0125 102.05 13.325 102.05H88.8875C97.175 102.05 104 95.2248 104 86.9373V3.5748C104 2.7623 103.35 2.1123 102.375 2.1123ZM13.325 98.7998C7.6375 98.7998 3.0875 94.2498 3.0875 88.5623V58.8248H23.5625V88.3998C23.5625 94.2498 19.0125 98.7998 13.325 98.7998ZM100.912 86.9373C100.912 93.4373 95.55 98.7998 89.05 98.7998H21.9375L22.2625 98.4748C22.425 98.3123 22.75 97.9873 22.9125 97.8248C23.075 97.6623 23.075 97.4998 23.2375 97.4998C23.4 97.3373 23.5625 97.0123 23.725 96.8498C23.8875 96.6873 23.8875 96.5248 24.05 96.3623C24.2125 96.1998 24.375 95.8748 24.5375 95.7123C24.7 95.5498 24.7 95.3873 24.8625 95.2248C25.025 95.0623 25.1875 94.7373 25.1875 94.5748C25.35 94.4123 25.35 94.2498 25.5125 94.0873C25.675 93.7623 25.675 93.5998 25.8375 93.2748C25.8375 93.1123 26 92.9498 26 92.7873C26.1625 92.4623 26.1625 92.2998 26.1625 91.9748C26.1625 91.8123 26.325 91.6498 26.325 91.4873C26.325 91.1623 26.4875 90.8373 26.4875 90.5123C26.4875 90.3498 26.4875 90.1873 26.4875 90.0248C26.4875 89.5373 26.4875 89.0498 26.4875 88.5623V57.3623V5.1998H100.588V86.9373H100.912Z" fill="#00853F"/>
<path d="M34.775 55.25C35.425 55.9 39.4876 56.225 43.3876 56.225C47.4501 56.225 51.35 55.9 52 55.25C52.4876 54.7625 52.975 54.275 52.975 47.45C52.975 40.4625 52.4876 39.975 52 39.65C50.7001 38.5125 36.075 38.5125 34.775 39.65C34.2875 40.1375 33.8 40.625 33.8 47.45C33.8 54.4375 34.2875 54.925 34.775 55.25ZM37.2125 42.0875C39.65 41.7625 47.2876 41.7625 49.7251 42.0875C50.0501 44.3625 50.0501 50.7 49.7251 52.975C47.2876 53.3 39.65 53.3 37.2125 52.975C36.8875 50.5375 36.8875 44.2 37.2125 42.0875Z" fill="#00853F"/>
<path d="M92.1375 40.1377H60.9375C60.125 40.1377 59.3125 40.7877 59.3125 41.7627C59.3125 42.5752 59.9625 43.3877 60.9375 43.3877H92.3C93.1125 43.3877 93.925 42.7377 93.925 41.7627C93.7625 40.7877 93.1125 40.1377 92.1375 40.1377Z" fill="#00853F"/>
<path d="M92.1375 51.6748H60.9375C60.125 51.6748 59.3125 52.3248 59.3125 53.2998C59.3125 54.1123 59.9625 54.9248 60.9375 54.9248H92.3C93.1125 54.9248 93.925 54.2748 93.925 53.2998C93.7625 52.3248 93.1125 51.6748 92.1375 51.6748Z" fill="#00853F"/>
<path d="M35.425 66.2998H92.3C93.1125 66.2998 93.925 65.6498 93.925 64.6748C93.925 63.6998 93.275 63.0498 92.3 63.0498H35.425C34.6125 63.0498 33.8 63.6998 33.8 64.6748C33.8 65.6498 34.45 66.2998 35.425 66.2998Z" fill="#00853F"/>
<path d="M35.425 78H92.3C93.1125 78 93.925 77.35 93.925 76.375C93.925 75.4 93.275 74.75 92.3 74.75H35.425C34.6125 74.75 33.8 75.4 33.8 76.375C33.8 77.35 34.45 78 35.425 78Z" fill="#00853F"/>
<path d="M35.425 89.5371H92.3C93.1125 89.5371 93.925 88.8871 93.925 87.9121C93.925 87.0996 93.275 86.2871 92.3 86.2871H35.425C34.6125 86.2871 33.8 86.9371 33.8 87.9121C33.8 88.8871 34.45 89.5371 35.425 89.5371Z" fill="#00853F"/>
<path d="M57.525 27.7869C57.525 29.0869 58.5 30.0619 59.8 30.0619H67.275C68.0875 30.0619 68.9 29.4119 68.9 28.4369C68.9 27.4619 68.25 26.8119 67.275 26.8119H60.6125V23.8869H66.1375C66.95 23.8869 67.7625 23.2369 67.7625 22.2619C67.7625 21.4494 67.1125 20.6369 66.1375 20.6369H60.6125V17.7119H67.275C68.0875 17.7119 68.9 17.0619 68.9 16.0869C68.9 15.2744 68.25 14.4619 67.275 14.4619H59.8C58.5 14.4619 57.525 15.4369 57.525 16.7369V21.9369V27.7869Z" fill="#00853F"/>
<path d="M75.7249 27.462C74.9124 27.462 74.2624 27.137 73.9374 26.6495C73.4499 25.837 72.475 25.6745 71.825 26.162C71.0125 26.6495 70.85 27.6245 71.3375 28.2745C72.3125 29.737 73.9374 30.5495 75.7249 30.5495H75.8875C77.8375 30.5495 79.4625 29.5745 80.275 28.112C81.0875 26.6495 81.2499 24.6995 80.4374 23.237C79.7874 21.937 78.6499 20.962 77.1874 20.637C76.8624 20.637 76.6999 20.637 76.3749 20.4745C75.3999 20.312 74.9124 20.312 74.7499 19.987C74.4249 19.4995 74.5874 19.012 74.9124 18.362C75.2374 17.8745 75.725 17.5495 76.2125 17.5495C76.8625 17.387 77.675 17.5495 78.3249 18.037C78.9749 18.5245 79.9499 18.362 80.5999 17.712C81.0874 17.062 80.925 16.087 80.275 15.437C78.65 14.6245 76.8625 14.2995 75.4 14.6245C73.9375 14.9495 72.7999 15.762 71.9874 16.8995C71.0124 18.362 71.0124 20.312 71.9874 21.7745C72.9624 23.3995 74.7499 23.7245 76.0499 23.7245C76.2124 23.7245 76.5374 23.7245 76.7 23.887C77.1874 23.887 77.5124 24.212 77.6749 24.6995C77.9999 25.3495 77.9999 26.162 77.5124 26.6495C77.025 27.137 76.3749 27.462 75.7249 27.462Z" fill="#00853F"/>
<path d="M88.4 27.462C87.5875 27.462 86.9375 27.137 86.6125 26.6495C86.125 25.837 85.15 25.6745 84.5 26.162C83.6875 26.6495 83.525 27.6245 84.0125 28.2745C84.9875 29.737 86.6125 30.5495 88.4 30.5495H88.5625C90.5125 30.5495 92.1375 29.5745 92.95 28.112C93.7625 26.6495 93.925 24.6995 93.1125 23.237C92.4625 21.937 91.325 20.962 89.8625 20.637C89.5375 20.637 89.375 20.637 89.05 20.4745C88.075 20.312 87.5875 20.312 87.425 19.987C87.1 19.4995 87.2625 19.012 87.5875 18.362C87.9125 17.8745 88.4 17.5495 88.8875 17.5495C89.5375 17.387 90.35 17.5495 91 18.037C91.65 18.5245 92.625 18.362 93.275 17.712C93.7625 17.062 93.6 16.087 92.95 15.437C91.325 14.6245 89.5375 14.2995 88.075 14.6245C86.6125 14.9495 85.475 15.762 84.6625 16.8995C83.6875 18.362 83.6875 20.312 84.6625 21.7745C85.6375 23.3995 87.425 23.7245 88.725 23.7245C88.8875 23.7245 89.2125 23.7245 89.375 23.887C89.8625 23.887 90.1875 24.212 90.35 24.6995C90.675 25.3495 90.675 26.162 90.1875 26.6495C89.8625 27.137 89.2125 27.462 88.4 27.462Z" fill="#00853F"/>
<path d="M35.5875 30.3875C36.4 30.3875 37.2125 29.7375 37.2125 28.7625V24.05H38.675C41.275 24.05 43.3875 21.9375 43.3875 19.3375C43.3875 16.7375 41.275 14.625 38.675 14.625H35.5875C34.775 14.625 33.9625 15.275 33.9625 16.25V28.925C33.9625 29.7375 34.775 30.3875 35.5875 30.3875ZM37.2125 17.875H38.675C39.4875 17.875 40.3 18.525 40.3 19.5C40.3 20.3125 39.65 21.125 38.675 21.125H37.2125V17.875Z" fill="#00853F"/>
<path d="M47.2875 30.3875C48.1 30.3875 48.9125 29.7375 48.9125 28.7625V24.05H50.05C50.5375 24.2125 52 25.1875 52.1625 28.925C52.1625 29.7375 52.975 30.3875 53.7875 30.3875C54.6 30.3875 55.25 29.575 55.25 28.7625C55.0875 26 54.275 24.05 53.3 22.9125C54.275 22.1 54.925 20.8 54.925 19.3375C54.925 16.7375 52.8125 14.625 50.2125 14.625H47.125C46.3125 14.625 45.5 15.275 45.5 16.25V28.925C45.6625 29.7375 46.3125 30.3875 47.2875 30.3875ZM48.9125 17.875H50.375C51.1875 17.875 52 18.525 52 19.5C52 20.3125 51.35 21.125 50.375 21.125H48.9125V17.875Z" fill="#00853F"/>
</svg>
