<svg width="104" height="104" viewBox="0 0 104 104" fill="none" xmlns="http://www.w3.org/2000/svg">
<path d="M47.125 35.75H56.875V39H47.125V35.75Z" fill="#00853F"/>
<path d="M47.125 42.25H56.875V45.5H47.125V42.25Z" fill="#00853F"/>
<path d="M47.125 48.75H56.875V52H47.125V48.75Z" fill="#00853F"/>
<path d="M66.625 39H73.125V42.25H66.625V39Z" fill="#00853F"/>
<path d="M30.875 47.125H37.375V50.375H30.875V47.125Z" fill="#00853F"/>
<path d="M30.875 53.625H37.375V56.875H30.875V53.625Z" fill="#00853F"/>
<path d="M86.1787 18.1904C80.4408 17.9938 74.8866 16.7376 69.6703 14.4578C63.4027 11.7164 57.7347 7.48 53.2854 2.202C52.6663 1.46913 51.4199 1.46913 50.8008 2.202C46.3516 7.48 40.6836 11.7164 34.4159 14.4578C29.1997 16.7376 23.6454 17.9937 17.8767 18.1888C16.9829 18.1888 16.2566 18.9103 16.2517 19.804C16.2094 27.5585 16.9358 49.6601 20.7659 58.6919C26.0667 71.076 34.8303 79.0791 41.6976 83.7933C41.0346 84.9698 40.6251 86.3071 40.6251 87.7501V100.75C40.6251 101.649 41.3514 102.375 42.2501 102.375H61.7501C62.6487 102.375 63.3751 101.649 63.3751 100.75V87.7501C63.3751 86.3071 62.9656 84.9698 62.3026 83.7933C69.1698 79.0791 77.9334 71.076 83.2374 58.687C87.0643 49.6601 87.7923 27.5601 87.7484 19.804C87.7436 18.933 87.0497 18.2196 86.1787 18.1904ZM35.7159 17.4348C41.8682 14.747 47.4777 10.7121 52.0423 5.712C56.6069 10.7121 62.2164 14.747 68.3687 17.4348C73.4842 19.6724 78.9019 20.9903 84.4968 21.3591C84.4578 26.655 84.1036 36.6423 82.9807 45.2418L79.6251 43.0058V34.1251C79.6251 33.2265 78.8987 32.5001 78.0001 32.5001H63.3751V29.2501C63.3751 28.3515 62.6487 27.6251 61.7501 27.6251H60.1251V22.7501C60.1251 21.8515 59.3987 21.1251 58.5001 21.1251H53.6251V16.2501H50.3751V21.1251H45.5001C44.6014 21.1251 43.8751 21.8515 43.8751 22.7501V27.6251H42.2501C41.3514 27.6251 40.6251 28.3515 40.6251 29.2501V39.0001H26.0001C25.1014 39.0001 24.3751 39.7265 24.3751 40.6251V43.8751H20.8504C19.8624 35.6071 19.5407 26.3836 19.5033 21.364C25.1274 21.0049 30.5744 19.6838 35.7159 17.4348ZM66.6251 50.3751V63.3751H63.3751V35.7501H76.3751V43.0058L67.3482 49.0231C66.8964 49.3254 66.6251 49.8324 66.6251 50.3751ZM53.6251 63.3751H50.3751V60.1251H53.6251V63.3751ZM55.2501 56.8751H48.7501C47.8514 56.8751 47.1251 57.6015 47.1251 58.5001V63.3751H43.8751V30.8751H60.1251V63.3751H56.8751V58.5001C56.8751 57.6015 56.1487 56.8751 55.2501 56.8751ZM40.6251 63.3751H27.6251V42.2501H40.6251V63.3751ZM56.8751 24.3751V27.6251H47.1251V24.3751H56.8751ZM21.2778 47.1251H24.3751V58.7731C24.1671 58.323 23.9542 57.881 23.7559 57.4179C22.6964 54.9219 21.8904 51.2461 21.2778 47.1251ZM60.1251 99.1251H43.8751V87.7501C43.8751 85.0624 46.0623 82.8751 48.7501 82.8751H49.5999L47.2404 88.7723C47.0422 89.2695 47.1007 89.8301 47.3981 90.277L50.6481 95.152C50.9503 95.6038 51.4573 95.8751 52.0001 95.8751C52.5428 95.8751 53.0498 95.6038 53.3521 95.152L56.6021 90.277C56.8994 89.8318 56.9579 89.2695 56.7597 88.7723L54.4002 82.8751H55.2501C57.9378 82.8751 60.1251 85.0624 60.1251 87.7501V99.1251ZM52.0001 85.6246L53.4236 89.1834L52.0001 91.3203L50.5766 89.185L52.0001 85.6246ZM52.0001 79.6251C49.7592 79.6251 47.9376 77.8035 47.9376 75.5626C47.9376 73.3218 49.7592 71.5001 52.0001 71.5001C54.2409 71.5001 56.0626 73.3218 56.0626 75.5626C56.0626 77.8035 54.2409 79.6251 52.0001 79.6251ZM60.1576 81.3184C59.4328 80.7626 58.6154 80.3401 57.7282 80.0525C58.7048 78.8094 59.3126 77.2624 59.3126 75.5626C59.3126 71.531 56.0317 68.2501 52.0001 68.2501C47.9684 68.2501 44.6876 71.531 44.6876 75.5626C44.6876 77.2624 45.2953 78.8094 46.2719 80.0525C45.3847 80.3401 44.5673 80.7643 43.8426 81.3184C39.1837 78.1643 33.5596 73.39 28.8666 66.6251H75.1336C70.4406 73.3916 64.8164 78.1643 60.1576 81.3184ZM77.2168 63.3751H69.8751V51.2445L78.0001 45.8284L82.4526 48.7956C82.2657 49.9088 82.0674 50.9878 81.8481 52.0001H73.1251V55.2501H81.0063C80.7674 56.0318 80.5188 56.7728 80.2474 57.413C79.3374 59.5385 78.3137 61.5161 77.2168 63.3751Z" fill="#00853F"/>
<path d="M98.9641 86.866C99.5784 85.9576 99.9375 84.864 99.9375 83.6875C99.9375 80.5512 97.3862 78 94.25 78C91.1137 78 88.5625 80.5512 88.5625 83.6875C88.5625 84.864 88.9216 85.9576 89.5359 86.866C87.5192 87.9223 86.125 90.0104 86.125 92.4414V100.75C86.125 101.649 86.8514 102.375 87.75 102.375H100.75C101.649 102.375 102.375 101.649 102.375 100.75V92.4414C102.375 90.0104 100.981 87.9223 98.9641 86.866ZM94.25 81.25C95.5939 81.25 96.6875 82.3436 96.6875 83.6875C96.6875 85.0314 95.5939 86.125 94.25 86.125C92.9061 86.125 91.8125 85.0314 91.8125 83.6875C91.8125 82.3436 92.9061 81.25 94.25 81.25ZM99.125 99.125H89.375V92.4414C89.375 90.7514 90.7514 89.375 92.4414 89.375H96.0602C97.7486 89.375 99.125 90.7514 99.125 92.4414V99.125Z" fill="#00853F"/>
<path d="M21.125 92.4414V100.75C21.125 101.649 21.8514 102.375 22.75 102.375H35.75C36.6486 102.375 37.375 101.649 37.375 100.75V92.4414C37.375 90.0104 35.9807 87.9223 33.9641 86.866C34.5784 85.9576 34.9375 84.864 34.9375 83.6875C34.9375 80.5512 32.3862 78 29.25 78C26.1137 78 23.5625 80.5512 23.5625 83.6875C23.5625 84.864 23.9216 85.9576 24.5359 86.866C22.5192 87.9223 21.125 90.0104 21.125 92.4414ZM29.25 81.25C30.5939 81.25 31.6875 82.3436 31.6875 83.6875C31.6875 85.0314 30.5939 86.125 29.25 86.125C27.9061 86.125 26.8125 85.0314 26.8125 83.6875C26.8125 82.3436 27.9061 81.25 29.25 81.25ZM24.375 92.4414C24.375 90.7514 25.7514 89.375 27.4414 89.375H31.0603C32.7486 89.375 34.125 90.7514 34.125 92.4414V99.125H24.375V92.4414Z" fill="#00853F"/>
<path d="M66.625 92.4414V100.75C66.625 101.649 67.3514 102.375 68.25 102.375H81.25C82.1486 102.375 82.875 101.649 82.875 100.75V92.4414C82.875 90.0104 81.4808 87.9223 79.4641 86.866C80.0784 85.9576 80.4375 84.864 80.4375 83.6875C80.4375 80.5512 77.8862 78 74.75 78C71.6137 78 69.0625 80.5512 69.0625 83.6875C69.0625 84.864 69.4216 85.9576 70.0359 86.866C68.0192 87.9223 66.625 90.0104 66.625 92.4414ZM74.75 81.25C76.0939 81.25 77.1875 82.3436 77.1875 83.6875C77.1875 85.0314 76.0939 86.125 74.75 86.125C73.4061 86.125 72.3125 85.0314 72.3125 83.6875C72.3125 82.3436 73.4061 81.25 74.75 81.25ZM69.875 92.4414C69.875 90.7514 71.2514 89.375 72.9414 89.375H76.5602C78.2486 89.375 79.625 90.7514 79.625 92.4414V99.125H69.875V92.4414Z" fill="#00853F"/>
<path d="M3.25 102.375H16.25C17.1486 102.375 17.875 101.649 17.875 100.75V92.4414C17.875 90.0104 16.4808 87.9223 14.4641 86.866C15.0784 85.9576 15.4375 84.864 15.4375 83.6875C15.4375 80.5512 12.8862 78 9.75 78C6.61375 78 4.0625 80.5512 4.0625 83.6875C4.0625 84.864 4.42162 85.9576 5.03587 86.866C3.01925 87.9223 1.625 90.0104 1.625 92.4414V100.75C1.625 101.649 2.35138 102.375 3.25 102.375ZM9.75 81.25C11.0939 81.25 12.1875 82.3436 12.1875 83.6875C12.1875 85.0314 11.0939 86.125 9.75 86.125C8.40613 86.125 7.3125 85.0314 7.3125 83.6875C7.3125 82.3436 8.40613 81.25 9.75 81.25ZM4.875 92.4414C4.875 90.7514 6.25138 89.375 7.94138 89.375H11.5602C13.2486 89.375 14.625 90.7514 14.625 92.4414V99.125H4.875V92.4414Z" fill="#00853F"/>
</svg>
