<svg width="104" height="104" viewBox="0 0 104 104" fill="none" xmlns="http://www.w3.org/2000/svg">
<path d="M19.5 35.75V29.25C21.2875 29.25 22.75 30.7125 22.75 32.5H26C26 28.925 23.075 26 19.5 26V22.75H16.25V26C12.675 26 9.75 28.925 9.75 32.5C9.75 36.075 12.675 39 16.25 39V45.5C14.4625 45.5 13 44.0375 13 42.25H9.75C9.75 45.825 12.675 48.75 16.25 48.75V52H19.5V48.75C23.075 48.75 26 45.825 26 42.25C26 38.675 23.075 35.75 19.5 35.75ZM13 32.5C13 30.7125 14.4625 29.25 16.25 29.25V35.75C14.4625 35.75 13 34.2875 13 32.5ZM19.5 45.5V39C21.2875 39 22.75 40.4625 22.75 42.25C22.75 44.0375 21.2875 45.5 19.5 45.5Z" fill="#00853F"/>
<path d="M65.65 71.5H6.5V19.5H87.75V49.4C88.8875 50.05 90.025 50.8625 91 51.8375V16.25H38.675L35.425 3.25H3.25V74.75H68.0875C67.1125 73.775 66.3 72.6375 65.65 71.5ZM6.5 6.5H32.825L35.2625 16.25H6.5V6.5Z" fill="#00853F"/>
<path d="M100.75 100.75H97.5V87.75C97.5 84.9875 95.3875 82.875 92.625 82.875H66.625C63.8625 82.875 61.75 84.9875 61.75 87.75V100.75H58.5V87.75C58.5 83.2 62.075 79.625 66.625 79.625H92.625C97.175 79.625 100.75 83.2 100.75 87.75V100.75Z" fill="#00853F"/>
<path d="M30.875 22.75H84.5V26H30.875V22.75Z" fill="#00853F"/>
<path d="M30.875 29.25H84.5V32.5H30.875V29.25Z" fill="#00853F"/>
<path d="M30.875 35.75H84.5V39H30.875V35.75Z" fill="#00853F"/>
<path d="M30.875 42.25H84.5V45.5H30.875V42.25Z" fill="#00853F"/>
<path d="M72.6375 48.75H30.875V52H68.0875C69.3875 50.7 70.85 49.5625 72.6375 48.75Z" fill="#00853F"/>
<path d="M79.625 76.375C72.475 76.375 66.625 70.525 66.625 63.375C66.625 56.225 72.475 50.375 79.625 50.375C86.775 50.375 92.625 56.225 92.625 63.375C92.625 70.525 86.775 76.375 79.625 76.375ZM79.625 53.625C74.2625 53.625 69.875 58.0125 69.875 63.375C69.875 68.7375 74.2625 73.125 79.625 73.125C84.9875 73.125 89.375 68.7375 89.375 63.375C89.375 58.0125 84.9875 53.625 79.625 53.625Z" fill="#00853F"/>
</svg>
