<svg width="112" height="112" viewBox="0 0 112 112" fill="none" xmlns="http://www.w3.org/2000/svg">
<path d="M84.1794 64.3349C83.8785 64.3354 83.581 64.27 83.3079 64.1435C82.9342 63.9729 82.6172 63.6986 82.3946 63.3533C82.1719 63.008 82.053 62.6061 82.0518 62.1952V54.1409H54.3013C52.9159 54.2073 51.5604 53.7235 50.5303 52.7948C49.5001 51.8661 48.8788 50.5679 48.8018 49.1831V17.0986C48.8788 15.7138 49.5001 14.4156 50.5303 13.4869C51.5604 12.5582 52.9159 12.0744 54.3013 12.1409H99.3005C100.686 12.0741 102.042 12.5577 103.072 13.4864C104.103 14.4151 104.725 15.7135 104.802 17.0986V49.1831C104.725 50.5682 104.103 51.8666 103.072 52.7953C102.042 53.724 100.686 54.2077 99.3005 54.1409H95.04L85.738 63.7112C85.3123 64.1028 84.7578 64.3248 84.1794 64.3349ZM54.3013 15.6409C53.2178 15.6409 52.3018 16.3091 52.3018 17.0986V49.1831C52.3018 49.9726 53.2178 50.6409 54.3013 50.6409H82.9575C83.6453 50.6416 84.3047 50.9152 84.791 51.4016C85.2774 51.8879 85.551 52.5473 85.5518 53.2351V58.8884L92.7876 51.4372C93.0329 51.1857 93.3261 50.9857 93.6498 50.8489C93.9735 50.7121 94.3212 50.6414 94.6726 50.6409H99.3005C100.386 50.6409 101.302 49.9726 101.302 49.1831V17.0986C101.302 16.3091 100.386 15.6409 99.3005 15.6409L54.3013 15.6409Z" fill="#00853F"/>
<path d="M96.4552 78.4594C92.8937 76.8802 89.0212 75.0363 85.2767 73.2521C81.4623 71.4337 77.5179 69.5555 73.8658 67.9389C73.3121 67.7055 72.6994 67.6507 72.113 67.7821C71.5267 67.9135 70.996 68.2246 70.5948 68.672L62.0585 78.8558C55.6956 76.8393 49.8558 73.4444 44.955 68.913C38.1577 62.5127 33.2553 54.3635 30.7858 45.3597L39.8707 35.475C40.2862 35.0193 40.5534 34.4481 40.6371 33.8371C40.7207 33.2261 40.6167 32.6042 40.339 32.0536L30.955 9.51206L30.8644 9.32577C30.6698 8.96249 30.3984 8.64601 30.069 8.39837C29.7396 8.15074 29.3602 7.97792 28.9572 7.89195C24.1555 7.09771 19.2309 8.14438 15.1674 10.8228C5.36976 18.6261 5.74917 35.9637 10.2472 48.7691C15.7963 64.5755 27.1713 79.524 42.2753 90.858C54.2724 99.8626 64.9193 104.376 74.112 104.374C79.3189 104.42 84.4067 102.817 88.6469 99.7943C94.1515 95.9166 97.5387 89.4054 98.1796 81.5201C98.2531 80.8931 98.1257 80.2589 97.8159 79.7089C97.506 79.1589 97.0296 78.7214 96.4552 78.4594ZM83.7712 76.4103C87.4096 78.1449 91.1677 79.9342 94.6694 81.4962C94.5612 82.6001 94.386 83.6964 94.1449 84.7791L70.7809 73.8934L72.9156 71.3465C76.3917 72.8949 80.1413 74.6808 83.7712 76.4103ZM26.0621 11.127C26.6735 11.1234 27.2842 11.1662 27.889 11.2552L37.0817 33.337L34.6536 35.9788L24.1895 11.2396C24.8113 11.1693 25.4364 11.1317 26.0621 11.127ZM86.6302 96.9334C76.2123 104.27 61.9935 101.283 44.3773 88.0587C29.8201 77.1349 18.8724 62.7708 13.5489 47.6104C9.44908 35.9347 8.88854 20.2992 17.348 13.5606C18.3553 12.8258 19.4873 12.2795 20.6892 11.948L32.0513 38.8101L28.0326 43.1824C27.6837 43.5529 27.436 44.0068 27.3133 44.5007C27.1906 44.9945 27.197 45.5116 27.3319 46.0023C29.9507 55.7466 35.2303 64.5695 42.5795 71.4832C47.9892 76.4854 54.4602 80.1993 61.5082 82.3472C62.0241 82.4924 62.5705 82.4889 63.0845 82.3372C63.5985 82.1854 64.0592 81.8915 64.4135 81.4893L68.454 76.669L93.1629 88.1814C91.9204 91.6922 89.6427 94.7438 86.6302 96.9334Z" fill="#00853F"/>
<path d="M76.8002 48.4343C76.4982 48.4348 76.1991 48.3756 75.9201 48.26L75.9149 48.2565C74.3415 47.5676 72.8528 46.6993 71.4784 45.6691C63.06 39.6518 63.2189 27.7248 63.2873 22.6321L63.2958 21.8169C63.2994 21.3473 63.4477 20.8902 63.7205 20.508C63.9933 20.1257 64.3773 19.8368 64.8202 19.6807C66.3763 19.1511 67.965 18.7224 69.5763 18.3972C74.3431 17.4197 79.2588 17.4197 84.0257 18.3972C85.633 18.7214 87.2177 19.1489 88.7699 19.6772C89.2149 19.8316 89.6014 20.1196 89.8764 20.502C90.1514 20.8844 90.3015 21.3425 90.3063 21.8135L90.3148 22.6321C90.3831 27.7248 90.5421 39.6518 82.1219 45.6692C80.7484 46.6998 79.2602 47.5681 77.6871 48.2566C77.406 48.3736 77.1046 48.434 76.8002 48.4343ZM66.7856 22.721C66.7258 27.2891 66.6061 37.8831 73.5138 42.822C74.5433 43.5927 75.6444 44.2628 76.8019 44.8232C77.9582 44.2625 79.0581 43.5923 80.0867 42.822C86.9978 37.8831 86.8765 27.289 86.8167 22.721C81.4676 21.0107 75.7688 20.7035 70.2669 21.8289C69.0917 22.0654 67.9297 22.3632 66.7856 22.721Z" fill="#00853F"/>
<path d="M74.9031 36.5671C74.6043 36.5663 74.3092 36.5009 74.0381 36.3752C73.7669 36.2495 73.5263 36.0667 73.3325 35.8391L70.6598 32.7117C70.5105 32.5371 70.3971 32.3348 70.3261 32.1163C70.255 31.8979 70.2276 31.6676 70.2456 31.4386C70.2635 31.2096 70.3264 30.9864 70.4306 30.7817C70.5348 30.577 70.6783 30.3948 70.8529 30.2456C71.0275 30.0964 71.2298 29.983 71.4482 29.9119C71.6666 29.8408 71.8969 29.8135 72.1259 29.8314C72.3549 29.8494 72.5781 29.9122 72.7828 30.0164C72.9875 30.1206 73.1697 30.2641 73.3189 30.4387L74.8997 32.2861L80.2795 25.9543C80.58 25.6008 81.0087 25.3811 81.4712 25.3436C81.9336 25.3061 82.3921 25.4539 82.7456 25.7544C83.0992 26.0549 83.3188 26.4836 83.3563 26.946C83.3938 27.4085 83.2461 27.867 82.9456 28.2205L76.4805 35.8306C76.2886 36.0596 76.0492 36.2442 75.7789 36.3714C75.5086 36.4986 75.2138 36.5654 74.915 36.5672L74.9031 36.5671Z" fill="#00853F"/>
</svg>
